*
G04 Mass Parameters ***
*
G04 Image ***
*
%INC:\USERS\PLACIDO DE-VITA\DESKTOP\LAVORO\SUB 1 GHZ\S2-LP\BOARD APPLICATIVA VERS2\LAYOUT\GERBER-STEVAL-FKI433V1.SPT*%
%ICAS*%
%MOIN*%
%IPPOS*%
%ASAXBY*%
G74*%FSLAN2X34Y34*%
*
G04 Aperture Definitions ***
*
%ADD10R,0.0380X0.0320*%
%ADD11R,0.0220X0.0220*%
%ADD12R,0.0320X0.0380*%
%ADD13O,0.0618X0.0787*%
%ADD14R,0.0618X0.0787*%
%ADD15R,0.2000X0.0500*%
%ADD16R,0.1500X0.0300*%
%ADD17C,0.0640*%
%ADD18R,0.0480X0.0400*%
%ADD19O,0.0940X0.0250*%
%ADD20R,0.0940X0.0250*%
%ADD21R,0.0100X0.0200*%
%ADD22R,0.1063X0.1063*%
%ADD23R,0.0200X0.0100*%
%ADD24R,0.0300X0.0330*%
%ADD25C,0.0150*%
%ADD26C,0.0650*%
%ADD27C,0.0010*%
%ADD28C,0.0100*%
%ADD29C,0.0200*%
%ADD30C,0.0060*%
%ADD31C,0.0080*%
%ADD32O,0.0620X0.0790*%
%ADD33R,0.0620X0.0790*%
%ADD34C,0.0700*%
%ADD35R,0.2500X0.1000*%
%ADD36R,0.1600X0.0350*%
%ADD37C,0.0690*%
%ADD38R,0.0080X0.0200*%
%ADD39R,0.0200X0.0080*%
%ADD40C,0.0800*%
%ADD41R,0.2100X0.0600*%
%ADD42R,0.0984X0.0984*%
*
G04 Plot Data ***
*
G54D10*
X0014455Y0018580D03*
Y0018020D03*
G54D11*
X0019740Y0022010D03*
Y0022430D03*
X0015205Y0025330D03*
Y0025750D03*
X0014385Y0026255D03*
X0014805D03*
X0017905Y0026780D03*
Y0027200D03*
X0015790Y0022505D03*
X0016210D03*
X0018915Y0022955D03*
X0019335D03*
X0023810Y0030480D03*
Y0030060D03*
X0022750Y0032220D03*
X0023170D03*
X0019580Y0031060D03*
Y0031480D03*
X0020340Y0021255D03*
X0020760D03*
X0018935D03*
X0019355D03*
X0017890Y0022430D03*
Y0022010D03*
X0013560Y0022830D03*
X0013980D03*
X0021080Y0023355D03*
Y0023775D03*
Y0024175D03*
Y0024595D03*
X0021465D03*
X0021885D03*
X0014805Y0026650D03*
X0015225D03*
X0018885Y0021990D03*
X0018465D03*
X0019340Y0022430D03*
Y0022010D03*
X0016650Y0026765D03*
Y0027185D03*
X0014805Y0025330D03*
X0014385D03*
X0016210Y0023290D03*
X0015790D03*
X0016210Y0022910D03*
X0015790D03*
X0021285Y0021255D03*
Y0020835D03*
X0019825Y0021255D03*
Y0020835D03*
X0017885Y0021560D03*
X0017465D03*
X0018025Y0023335D03*
X0018445D03*
X0016685Y0023075D03*
Y0022655D03*
X0020340Y0020815D03*
X0020760D03*
X0018915Y0023340D03*
X0019335D03*
X0018915Y0023725D03*
X0019335D03*
X0021885Y0022745D03*
Y0022325D03*
X0014870Y0022830D03*
X0014450D03*
X0013980Y0023780D03*
X0013560D03*
X0021465Y0024175D03*
X0021885D03*
X0019630D03*
X0020050D03*
X0021885Y0023665D03*
Y0023245D03*
X0020665Y0024595D03*
Y0024175D03*
X0019630Y0024595D03*
X0020050D03*
X0021080Y0025425D03*
Y0025005D03*
X0017105Y0027195D03*
Y0026775D03*
X0017495Y0027195D03*
Y0026775D03*
X0023735Y0031480D03*
X0024155D03*
X0019207Y0025412D03*
Y0025832D03*
X0019592Y0025412D03*
Y0025832D03*
X0016210Y0023685D03*
X0015790D03*
X0016210Y0024055D03*
X0015790D03*
X0017415Y0023075D03*
Y0022655D03*
X0017050Y0023075D03*
Y0022655D03*
X0015000Y0018580D03*
Y0018160D03*
G54D12*
X0018905Y0022430D03*
X0018345D03*
X0014245Y0025790D03*
X0014805D03*
G54D15*
X0024175Y0021300D03*
Y0024650D03*
G54D16*
X0024430Y0022995D03*
G54D18*
X0015945Y0026650D03*
Y0025860D03*
G54D19*
X0020790Y0030980D03*
Y0030480D03*
Y0029980D03*
X0022750D03*
Y0030480D03*
Y0030980D03*
Y0031480D03*
G54D20*
X0020790D03*
G54D24*
X0014870Y0023250D03*
Y0023780D03*
X0014450D03*
Y0023250D03*
G54D26*
X0013695Y0026720D03*
G54D38*
X0017108Y0024058D03*
X0017305D03*
X0017502D03*
X0017698D03*
X0017895D03*
X0018092D03*
Y0025522D03*
X0017895D03*
X0017698D03*
X0017502D03*
X0017305D03*
X0017108D03*
G54D39*
X0016868Y0025282D03*
Y0025085D03*
Y0024888D03*
Y0024692D03*
Y0024495D03*
Y0024298D03*
X0018332D03*
Y0024495D03*
Y0024692D03*
Y0024888D03*
Y0025085D03*
Y0025282D03*
G54D42*
X0017600Y0024790D03*
M02*
