*
G04 Mass Parameters ***
*
G04 Image ***
*
%INC:\USERS\PLACIDO DE-VITA\DESKTOP\LAVORO\SUB 1 GHZ\S2-LP\BOARD APPLICATIVA VERS2\LAYOUT\GERBER-STEVAL-FKI433V1.SSB*%
%ICAS*%
%MOIN*%
%IPPOS*%
%ASAXBY*%
G74*%FSLAN2X34Y34*%
*
G04 Aperture Definitions ***
*
%ADD10R,0.0380X0.0320*%
%ADD11R,0.0220X0.0220*%
%ADD12R,0.0320X0.0380*%
%ADD13O,0.0618X0.0787*%
%ADD14R,0.0618X0.0787*%
%ADD15R,0.2000X0.0500*%
%ADD16R,0.1500X0.0300*%
%ADD17C,0.0640*%
%ADD18R,0.0480X0.0400*%
%ADD19O,0.0940X0.0250*%
%ADD20R,0.0940X0.0250*%
%ADD21R,0.0100X0.0200*%
%ADD22R,0.1063X0.1063*%
%ADD23R,0.0200X0.0100*%
%ADD24R,0.0300X0.0330*%
%ADD25C,0.0150*%
%ADD26C,0.0650*%
%ADD27C,0.0010*%
%ADD28C,0.0100*%
%ADD29C,0.0200*%
%ADD30C,0.0060*%
%ADD31C,0.0080*%
%ADD32O,0.0620X0.0790*%
%ADD33R,0.0620X0.0790*%
%ADD34C,0.0700*%
%ADD35R,0.2500X0.1000*%
%ADD36R,0.1600X0.0350*%
%ADD37C,0.0690*%
%ADD38R,0.0080X0.0200*%
%ADD39R,0.0200X0.0080*%
%ADD40C,0.0800*%
%ADD41R,0.2100X0.0600*%
%ADD42R,0.0984X0.0984*%
%ADD43C,0.0100*%
%ADD44C,0.0040*%
%ADD45C,0.0030*%
%ADD46C,0.0020*%
%ADD47C,0.0015*%
%ADD48C,0.0070*%
*
G04 Plot Data ***
*
G54D44*
G01X0015157Y0033070D02*
X0015357Y0033120D01*
Y0033054D01*
X0015257Y0032940D02*
X0015157Y0032965D01*
X0015257Y0032899D02*
Y0032949D01*
X0015290Y0032965D01*
X0015324D01*
X0015357Y0032949D01*
Y0032899D01*
X0015157D01*
X0021815Y0017117D02*
X0021782Y0017125D01*
Y0017175D01*
X0021815Y0017184D01*
X0021882D01*
X0021915Y0017167D01*
Y0017117D01*
X0021982D01*
Y0017184D01*
X0021782Y0017029D02*
Y0016995D01*
Y0017012D02*
X0021982D01*
X0021949Y0016995D01*
X0021882Y0016865D02*
X0021782Y0016890D01*
X0021882Y0016824D02*
Y0016874D01*
X0021915Y0016890D01*
X0021949D01*
X0021982Y0016874D01*
Y0016824D01*
X0021782D01*
X0013262Y0033117D02*
Y0033067D01*
X0013295Y0033059D01*
X0013329D01*
X0013362Y0033067D01*
Y0033117D01*
X0013329Y0033125D01*
X0013295D01*
X0013162Y0033092D01*
X0013262Y0032945D02*
X0013162Y0032970D01*
X0013262Y0032904D02*
Y0032954D01*
X0013295Y0032970D01*
X0013329D01*
X0013362Y0032954D01*
Y0032904D01*
X0013162D01*
X0020844Y0017189D02*
Y0017122D01*
X0020977Y0017155D01*
Y0017172D01*
X0020777D01*
Y0017034D02*
Y0017000D01*
Y0017017D02*
X0020977D01*
X0020944Y0017000D01*
X0020877Y0016870D02*
X0020777Y0016895D01*
X0020877Y0016829D02*
Y0016879D01*
X0020910Y0016895D01*
X0020944D01*
X0020977Y0016879D01*
Y0016829D01*
X0020777D01*
X0016742Y0033152D02*
X0016775Y0033135D01*
X0016809Y0033127D01*
X0016875D01*
X0016909Y0033135D01*
X0016942Y0033152D01*
Y0033169D01*
X0016909Y0033185D01*
X0016875Y0033194D01*
X0016809D01*
X0016775Y0033185D01*
X0016742Y0033169D01*
Y0033152D01*
Y0033039D02*
Y0033005D01*
Y0033022D02*
X0016942D01*
X0016909Y0033005D01*
X0016842Y0032875D02*
X0016742Y0032900D01*
X0016842Y0032834D02*
Y0032884D01*
X0016875Y0032900D01*
X0016909D01*
X0016942Y0032884D01*
Y0032834D01*
X0016742D01*
X0018722Y0017229D02*
Y0017162D01*
X0018855Y0017229D01*
X0018889D01*
X0018922Y0017220D01*
Y0017170D01*
X0018889Y0017162D01*
X0018722Y0017074D02*
Y0017040D01*
Y0017057D02*
X0018922D01*
X0018889Y0017040D01*
X0018822Y0016910D02*
X0018722Y0016935D01*
X0018822Y0016869D02*
Y0016919D01*
X0018855Y0016935D01*
X0018889D01*
X0018922Y0016919D01*
Y0016869D01*
X0018722D01*
X0023852Y0017155D02*
Y0017205D01*
X0023819Y0017214D01*
X0023785D01*
X0023752Y0017205D01*
Y0017155D01*
X0023785Y0017147D01*
X0023819D01*
X0023952Y0017180D01*
X0023752Y0017059D02*
Y0017025D01*
Y0017042D02*
X0023952D01*
X0023919Y0017025D01*
X0023852Y0016895D02*
X0023752Y0016920D01*
X0023852Y0016854D02*
Y0016904D01*
X0023885Y0016920D01*
X0023919D01*
X0023952Y0016904D01*
Y0016854D01*
X0023752D01*
X0020757Y0033177D02*
Y0033144D01*
Y0033160D02*
X0020957D01*
X0020924Y0033144D01*
X0020757Y0033039D02*
Y0033005D01*
Y0033022D02*
X0020957D01*
X0020924Y0033005D01*
X0020857Y0032875D02*
X0020757Y0032900D01*
X0020857Y0032834D02*
Y0032884D01*
X0020890Y0032900D01*
X0020924D01*
X0020957Y0032884D01*
Y0032834D01*
X0020757D01*
X0012205Y0033039D02*
X0012172Y0033047D01*
Y0033097D01*
X0012205Y0033105D01*
X0012272D01*
X0012305Y0033089D01*
Y0033039D01*
X0012372D01*
Y0033105D01*
X0012272Y0032925D02*
X0012172Y0032950D01*
X0012272Y0032884D02*
Y0032934D01*
X0012305Y0032950D01*
X0012339D01*
X0012372Y0032934D01*
Y0032884D01*
X0012172D01*
X0010262Y0033047D02*
Y0033097D01*
X0010229Y0033105D01*
X0010195D01*
X0010162Y0033097D01*
Y0033047D01*
X0010195Y0033039D01*
X0010229D01*
X0010362Y0033072D01*
X0010262Y0032925D02*
X0010162Y0032950D01*
X0010262Y0032884D02*
Y0032934D01*
X0010295Y0032950D01*
X0010329D01*
X0010362Y0032934D01*
Y0032884D01*
X0010162D01*
X0011234Y0033125D02*
Y0033059D01*
X0011367Y0033092D01*
Y0033109D01*
X0011167D01*
X0011267Y0032945D02*
X0011167Y0032970D01*
X0011267Y0032904D02*
Y0032954D01*
X0011300Y0032970D01*
X0011334D01*
X0011367Y0032954D01*
Y0032904D01*
X0011167D01*
X0019800Y0017152D02*
X0019767Y0017169D01*
Y0017202D01*
X0019800Y0017219D01*
X0019834D01*
X0019900Y0017185D01*
X0019967Y0017219D01*
Y0017152D01*
X0019767Y0017064D02*
Y0017030D01*
Y0017047D02*
X0019967D01*
X0019934Y0017030D01*
X0019867Y0016900D02*
X0019767Y0016925D01*
X0019867Y0016859D02*
Y0016909D01*
X0019900Y0016925D01*
X0019934D01*
X0019967Y0016909D01*
Y0016859D01*
X0019767D01*
X0015795Y0033380D02*
Y0032640D01*
X0015475D01*
Y0033380D01*
X0015795D01*
X0022395Y0017420D02*
Y0016680D01*
X0022075D01*
Y0017420D01*
X0022395D01*
X0013795Y0033375D02*
Y0032635D01*
X0013475D01*
Y0033375D01*
X0013795D01*
X0021390Y0017415D02*
Y0016675D01*
X0021070D01*
Y0017415D01*
X0021390D01*
X0017390Y0033375D02*
Y0032635D01*
X0017070D01*
Y0033375D01*
X0017390D01*
X0019395Y0017420D02*
Y0016680D01*
X0019075D01*
Y0017420D01*
X0019395D01*
X0024395Y0017425D02*
Y0016685D01*
X0024075D01*
Y0017425D01*
X0024395D01*
X0021390Y0033380D02*
Y0032640D01*
X0021070D01*
Y0033380D01*
X0021390D01*
X0012795D02*
Y0032640D01*
X0012475D01*
Y0033380D01*
X0012795D01*
X0010795D02*
Y0032640D01*
X0010475D01*
Y0033380D01*
X0010795D01*
X0011795D02*
Y0032640D01*
X0011475D01*
Y0033380D01*
X0011795D01*
X0020395Y0017425D02*
Y0016685D01*
X0020075D01*
Y0017425D01*
X0020395D01*
M02*
