*
G04 Mass Parameters ***
*
G04 Image ***
*
%INC:\USERS\PLACIDO DE-VITA\DESKTOP\LAVORO\SUB 1 GHZ\S2-LP\BOARD APPLICATIVA VERS2\LAYOUT\GERBER-STEVAL-FKI433V1.DRD*%
%ICAS*%
%MOIN*%
%IPPOS*%
%ASAXBY*%
G74*%FSLAN2X34Y34*%
*
G04 Aperture Definitions ***
*
%ADD10R,0.0380X0.0320*%
%ADD11R,0.0220X0.0220*%
%ADD12R,0.0320X0.0380*%
%ADD13O,0.0618X0.0787*%
%ADD14R,0.0618X0.0787*%
%ADD15R,0.2000X0.0500*%
%ADD16R,0.1500X0.0300*%
%ADD17C,0.0640*%
%ADD18R,0.0480X0.0400*%
%ADD19O,0.0940X0.0250*%
%ADD20R,0.0940X0.0250*%
%ADD21R,0.0100X0.0200*%
%ADD22R,0.1063X0.1063*%
%ADD23R,0.0200X0.0100*%
%ADD24R,0.0300X0.0330*%
%ADD25C,0.0150*%
%ADD26C,0.0650*%
%ADD27C,0.0010*%
%ADD28C,0.0100*%
%ADD29C,0.0200*%
%ADD30C,0.0060*%
%ADD31C,0.0080*%
%ADD32O,0.0620X0.0790*%
%ADD33R,0.0620X0.0790*%
%ADD34C,0.0700*%
%ADD35R,0.2500X0.1000*%
%ADD36R,0.1600X0.0350*%
%ADD37C,0.0690*%
%ADD38R,0.0080X0.0200*%
%ADD39R,0.0200X0.0080*%
%ADD40C,0.0800*%
%ADD41R,0.2100X0.0600*%
%ADD42R,0.0984X0.0984*%
%ADD43C,0.0100*%
%ADD44C,0.0040*%
%ADD45C,0.0030*%
%ADD46C,0.0020*%
%ADD47C,0.0015*%
%ADD48C,0.0070*%
*
G04 Plot Data ***
*
G54D27*
G01X0005810Y0014580D02*
Y0016810D01*
X0009900D01*
Y0033050D01*
X0005810D01*
Y0035280D01*
X0025250D01*
Y0014580D01*
X0005810D01*
G54D28*
G01X0024208Y-0009833D02*
X0024708Y-0008833D01*
X0024042D01*
X0023758Y-0009833D02*
X0023092D01*
X0023758Y-0009167D01*
Y-0009000D01*
X0023675Y-0008833D01*
X0023175D01*
X0023092Y-0009000D01*
X0022142Y-0009667D02*
X0022308Y-0009833D01*
X0022642D01*
X0022808Y-0009667D01*
Y-0009500D01*
X0022475Y-0009167D01*
X0022808Y-0008833D01*
X0022142D01*
X0012312Y-0009833D02*
X0011729D01*
Y-0008833D01*
X0011446Y-0009500D02*
X0010779D01*
X0011446Y-0009833D02*
Y-0009333D01*
X0011196Y-0008833D01*
X0011029D01*
X0010779Y-0009333D01*
Y-0009833D01*
X0010162D02*
Y-0008833D01*
X0010496D02*
X0009829D01*
X0008962Y-0009833D02*
X0008879Y-0009667D01*
Y-0009000D01*
X0008962Y-0008833D01*
X0009462D01*
X0009546Y-0009000D01*
Y-0009667D01*
X0009462Y-0009833D01*
X0008962D01*
X0008262D02*
Y-0008833D01*
X0008596D02*
X0007929D01*
X0024708Y-0007972D02*
X0024264D01*
X0024708Y-0007528D01*
Y-0007417D01*
X0024653Y-0007306D01*
X0024319D01*
X0024264Y-0007417D01*
X0023564Y-0007861D02*
X0023675Y-0007972D01*
X0023897D01*
X0024008Y-0007861D01*
Y-0007750D01*
X0023786Y-0007528D01*
X0024008Y-0007306D01*
X0023564D01*
X0011092Y-0007972D02*
X0010647D01*
X0011092Y-0007528D01*
Y-0007417D01*
X0011036Y-0007306D01*
X0010703D01*
X0010647Y-0007417D01*
X0010392Y-0007750D02*
X0009947D01*
X0010169Y-0007306D01*
X0010280D01*
Y-0007972D01*
X0009414D02*
X0009303Y-0007861D01*
X0009247Y-0007750D01*
Y-0007528D01*
X0009303Y-0007417D01*
X0009414Y-0007306D01*
X0009525D01*
X0009636Y-0007417D01*
X0009692Y-0007528D01*
Y-0007750D01*
X0009636Y-0007861D01*
X0009525Y-0007972D01*
X0009414D01*
X0008881D02*
X0008992D01*
Y-0007861D01*
X0008881D01*
Y-0007972D01*
X0008236D02*
X0008125Y-0007861D01*
X0008069Y-0007750D01*
Y-0007528D01*
X0008125Y-0007417D01*
X0008236Y-0007306D01*
X0008347D01*
X0008458Y-0007417D01*
X0008514Y-0007528D01*
Y-0007750D01*
X0008458Y-0007861D01*
X0008347Y-0007972D01*
X0008236D01*
X0024264Y-0006361D02*
X0024375Y-0006472D01*
X0024597D01*
X0024708Y-0006361D01*
Y-0006250D01*
X0024486Y-0006028D01*
X0024708Y-0005806D01*
X0024264D01*
X0010814Y-0006472D02*
X0010703Y-0006361D01*
X0010647Y-0006250D01*
Y-0006028D01*
X0010703Y-0005917D01*
X0010814Y-0005806D01*
X0010925D01*
X0011036Y-0005917D01*
X0011092Y-0006028D01*
Y-0006250D01*
X0011036Y-0006361D01*
X0010925Y-0006472D01*
X0010814D01*
X0010392Y-0006250D02*
X0009947D01*
X0010169Y-0005806D01*
X0010280D01*
Y-0006472D01*
X0009414D02*
X0009303Y-0006361D01*
X0009247Y-0006250D01*
Y-0006028D01*
X0009303Y-0005917D01*
X0009414Y-0005806D01*
X0009525D01*
X0009636Y-0005917D01*
X0009692Y-0006028D01*
Y-0006250D01*
X0009636Y-0006361D01*
X0009525Y-0006472D01*
X0009414D01*
X0008881D02*
X0008992D01*
Y-0006361D01*
X0008881D01*
Y-0006472D01*
X0008236D02*
X0008125Y-0006361D01*
X0008069Y-0006250D01*
Y-0006028D01*
X0008125Y-0005917D01*
X0008236Y-0005806D01*
X0008347D01*
X0008458Y-0005917D01*
X0008514Y-0006028D01*
Y-0006250D01*
X0008458Y-0006361D01*
X0008347Y-0006472D01*
X0008236D01*
X0024708Y-0004972D02*
X0024264D01*
X0024708Y-0004528D01*
Y-0004417D01*
X0024653Y-0004306D01*
X0024319D01*
X0024264Y-0004417D01*
X0023953Y-0004639D02*
X0023619D01*
X0023564Y-0004528D01*
Y-0004417D01*
X0023619Y-0004306D01*
X0023953D01*
X0024008Y-0004417D01*
Y-0004528D01*
X0023786Y-0004972D01*
X0023308D02*
X0022864D01*
X0023308Y-0004528D01*
Y-0004417D01*
X0023253Y-0004306D01*
X0022919D01*
X0022864Y-0004417D01*
X0010814Y-0004972D02*
X0010703Y-0004861D01*
X0010647Y-0004750D01*
Y-0004528D01*
X0010703Y-0004417D01*
X0010814Y-0004306D01*
X0010925D01*
X0011036Y-0004417D01*
X0011092Y-0004528D01*
Y-0004750D01*
X0011036Y-0004861D01*
X0010925Y-0004972D01*
X0010814D01*
X0010392D02*
X0010169D01*
X0010280D02*
Y-0004306D01*
X0010169Y-0004417D01*
X0009525Y-0004972D02*
X0009414Y-0004861D01*
X0009358Y-0004750D01*
Y-0004528D01*
X0009414Y-0004417D01*
X0009525Y-0004306D01*
X0009636D01*
X0009747Y-0004417D01*
X0009803Y-0004528D01*
Y-0004750D01*
X0009747Y-0004861D01*
X0009636Y-0004972D01*
X0009525D01*
X0008992D02*
X0009103D01*
Y-0004861D01*
X0008992D01*
Y-0004972D01*
X0008347D02*
X0008236Y-0004861D01*
X0008181Y-0004750D01*
Y-0004528D01*
X0008236Y-0004417D01*
X0008347Y-0004306D01*
X0008458D01*
X0008569Y-0004417D01*
X0008625Y-0004528D01*
Y-0004750D01*
X0008569Y-0004861D01*
X0008458Y-0004972D01*
X0008347D01*
X0033112Y-0002833D02*
X0032612D01*
X0033279Y-0003333D02*
X0032612D01*
Y-0002333D01*
X0033279D01*
X0031996Y-0003333D02*
Y-0002333D01*
X0032329D02*
X0031662D01*
X0030796Y-0003333D02*
X0030712Y-0003167D01*
Y-0002500D01*
X0030796Y-0002333D01*
X0031296D01*
X0031379Y-0002500D01*
Y-0003167D01*
X0031296Y-0003333D01*
X0030796D01*
X0030429Y-0002333D02*
Y-0003333D01*
X0030262Y-0003167D01*
X0029929Y-0002500D01*
X0029762Y-0002333D01*
Y-0003333D01*
X0023925D02*
Y-0002833D01*
X0024258Y-0002333D02*
X0024008Y-0002833D01*
X0023842D01*
X0023592Y-0002333D01*
X0022975Y-0003333D02*
Y-0002333D01*
X0023308D02*
X0022642D01*
X0022025Y-0003000D02*
X0022358Y-0003333D01*
X0021692Y-0003167D02*
X0021775Y-0003333D01*
X0022108D01*
X0022192Y-0003167D01*
X0022358Y-0003000D01*
Y-0002500D01*
X0022275Y-0002333D01*
X0021775D01*
X0021692Y-0002500D01*
Y-0003167D01*
X0017408Y-0003333D02*
X0016825D01*
Y-0002333D01*
X0015958Y-0003333D02*
X0015875Y-0003167D01*
Y-0002500D01*
X0015958Y-0002333D01*
X0016458D01*
X0016542Y-0002500D01*
Y-0003167D01*
X0016458Y-0003333D01*
X0015958D01*
X0015258D02*
Y-0002333D01*
X0015592D02*
X0014925D01*
X0009587Y-0003333D02*
Y-0002333D01*
X0009421Y-0002500D01*
X0009254Y-0002833D01*
X0009087Y-0002500D01*
X0008921Y-0002333D01*
Y-0003333D01*
X0008637Y-0003000D02*
X0007971D01*
X0008637Y-0003333D02*
Y-0002833D01*
X0008387Y-0002333D01*
X0008221D01*
X0007971Y-0002833D01*
Y-0003333D01*
X0007687D02*
X0007354D01*
X0007521D02*
Y-0002333D01*
X0007687D02*
X0007354D01*
X0006321Y-0003333D02*
Y-0002333D01*
X0006237Y-0003333D02*
X0006737D01*
X0006904Y-0003000D01*
Y-0002667D01*
X0006737Y-0002333D01*
X0006237D01*
X0003150Y-0003333D02*
Y-0002333D01*
X0002983Y-0002500D01*
X0002817Y-0002833D01*
X0002650Y-0002500D01*
X0002483Y-0002333D01*
Y-0003333D01*
X0001867D02*
Y-0002833D01*
X0002200Y-0002333D02*
X0001950Y-0002833D01*
X0001783D01*
X0001533Y-0002333D01*
X0001250Y-0002500D02*
X0001167Y-0002333D01*
X0000667D01*
X0000583Y-0002500D01*
Y-0002667D01*
X0000667Y-0002833D01*
X0001167D01*
X0001250Y-0003000D01*
Y-0003167D01*
X0001167Y-0003333D01*
X0000667D01*
X0000583Y-0003167D01*
X0023437Y-0001333D02*
Y-0000333D01*
X0023771D02*
X0023104D01*
X0022571Y-0000833D02*
X0022821Y-0001333D01*
X0022154Y-0000833D02*
X0022654D01*
X0022821Y-0000667D01*
Y-0000500D01*
X0022654Y-0000333D01*
X0022154D01*
Y-0001333D01*
X0021871Y-0001000D02*
X0021204D01*
X0021871Y-0001333D02*
Y-0000833D01*
X0021621Y-0000333D01*
X0021454D01*
X0021204Y-0000833D01*
Y-0001333D01*
X0020921Y-0000833D02*
X0020254D01*
X0020921Y-0001333D02*
Y-0000333D01*
X0020254Y-0001333D02*
Y-0000333D01*
X0019971Y-0001167D02*
X0019887Y-0001333D01*
X0019387D01*
X0019304Y-0001167D01*
Y-0000500D01*
X0019387Y-0000333D01*
X0019887D01*
X0019971Y-0000500D01*
X0017696Y-0001333D02*
X0017112D01*
Y-0000333D01*
X0016829Y-0001333D02*
X0016246D01*
Y-0000333D01*
X0015962Y-0001333D02*
X0015629D01*
X0015796D02*
Y-0000333D01*
X0015962D02*
X0015629D01*
X0014929Y-0000833D02*
X0015179Y-0001333D01*
X0014512Y-0000833D02*
X0015012D01*
X0015179Y-0000667D01*
Y-0000500D01*
X0015012Y-0000333D01*
X0014512D01*
Y-0001333D01*
X0013646D02*
Y-0000333D01*
X0013562Y-0001333D02*
X0014062D01*
X0014229Y-0001000D01*
Y-0000667D01*
X0014062Y-0000333D01*
X0013562D01*
X0001575Y-0007500D02*
Y-0008000D01*
X0002075Y-0007500D02*
X0001575D01*
X0002075Y-0008000D02*
Y-0007500D01*
X0001575Y-0008000D02*
X0002075D01*
Y-0007500D02*
X0001575Y-0008000D01*
X0002075D02*
X0001575Y-0007500D01*
X0001825Y-0006000D02*
X0001575Y-0006250D01*
X0002075D02*
X0001825Y-0006000D01*
Y-0006500D02*
X0002075Y-0006250D01*
X0001575D02*
X0001825Y-0006500D01*
X0002075Y-0004500D02*
X0001575Y-0005000D01*
X0002075D02*
X0001575Y-0004500D01*
X0037300Y-0010550D02*
X-0000050D01*
X0037250Y-0010500D02*
X0000000D01*
X0037250Y-0008500D02*
X0000000D01*
X0037250Y-0007000D02*
X0000000D01*
X0037250Y-0005500D02*
X0000000D01*
X0037250Y-0004000D02*
X0000000D01*
X0037250Y-0003950D02*
X0000000D01*
X0037250Y-0002000D02*
X0000000D01*
X0037250Y-0001950D02*
X0000000D01*
X0037250Y0000000D02*
X0000000D01*
X0037300Y0000050D02*
X-0000050D01*
X0037300Y-0010500D02*
Y0000000D01*
X0037250Y-0010500D02*
Y0000000D01*
X0025708Y-0010500D02*
Y-0002000D01*
X0020158Y-0010500D02*
Y-0002000D01*
X0012092Y-0008500D02*
Y-0002000D01*
X0003700Y-0008500D02*
Y-0002000D01*
X0003650Y-0008500D02*
Y-0002000D01*
X-0000050Y-0010500D02*
Y0000000D01*
X0000000Y-0010500D02*
Y0000000D01*
X0019795Y0021855D02*
X0019295Y0021355D01*
X0019795D02*
X0019295Y0021855D01*
X0013695Y0026970D02*
X0013445Y0026720D01*
X0013945D02*
X0013695Y0026970D01*
Y0026470D02*
X0013945Y0026720D01*
X0013445D02*
X0013695Y0026470D01*
X0015455Y0027355D02*
X0014955Y0026855D01*
X0015455D02*
X0014955Y0027355D01*
X0014250Y0024595D02*
X0013750Y0024095D01*
X0014250D02*
X0013750Y0024595D01*
X0025360Y0023975D02*
X0024860Y0023475D01*
X0025360D02*
X0024860Y0023975D01*
X0024965Y0023985D02*
X0024465Y0023485D01*
X0024965D02*
X0024465Y0023985D01*
X0024490Y0023980D02*
X0023990Y0023480D01*
X0024490D02*
X0023990Y0023980D01*
X0023490Y0023480D01*
X0023990D02*
X0023490Y0023980D01*
X0025365Y0024405D02*
X0024865Y0023905D01*
X0025365D02*
X0024865Y0024405D01*
X0024950Y0024400D02*
X0024450Y0023900D01*
X0024950D02*
X0024450Y0024400D01*
X0024480D02*
X0023980Y0023900D01*
X0024480D02*
X0023980Y0024400D01*
X0023480Y0023900D01*
X0023980D02*
X0023480Y0024400D01*
X0025340Y0025320D02*
X0024840Y0024820D01*
X0025340D02*
X0024840Y0025320D01*
X0024950D02*
X0024450Y0024820D01*
X0024950D02*
X0024450Y0025320D01*
X0024480Y0025310D02*
X0023980Y0024810D01*
X0024480D02*
X0023980Y0025310D01*
X0023965D02*
X0023465Y0024810D01*
X0023965D02*
X0023465Y0025310D01*
X0024950Y0025780D02*
X0024450Y0025280D01*
X0024950D02*
X0024450Y0025780D01*
X0025350D02*
X0024850Y0025280D01*
X0025350D02*
X0024850Y0025780D01*
X0024480Y0025785D02*
X0023980Y0025285D01*
X0024480D02*
X0023980Y0025785D01*
X0023965Y0025780D02*
X0023465Y0025280D01*
X0023965D02*
X0023465Y0025780D01*
X0023460Y0025315D02*
X0022960Y0024815D01*
X0023460D02*
X0022960Y0025315D01*
X0023455Y0024395D02*
X0022955Y0023895D01*
X0023455D02*
X0022955Y0024395D01*
X0023460Y0025780D02*
X0022960Y0025280D01*
X0023460D02*
X0022960Y0025780D01*
X0025360Y0026350D02*
X0024860Y0025850D01*
X0025360D02*
X0024860Y0026350D01*
X0024905Y0026355D02*
X0024405Y0025855D01*
X0024905D02*
X0024405Y0026355D01*
X0024450Y0026350D02*
X0023950Y0025850D01*
X0024450D02*
X0023950Y0026350D01*
X0024000Y0026345D02*
X0023500Y0025845D01*
X0024000D02*
X0023500Y0026345D01*
X0023605D02*
X0023105Y0025845D01*
X0023605D02*
X0023105Y0026345D01*
X0022945Y0025785D02*
X0022445Y0025285D01*
X0022945D02*
X0022445Y0025785D01*
X0022955Y0025310D02*
X0022455Y0024810D01*
X0022955D02*
X0022455Y0025310D01*
X0022950Y0024840D02*
X0022450Y0024340D01*
X0022950D02*
X0022450Y0024840D01*
X0022950Y0024380D02*
X0022450Y0023880D01*
X0022950D02*
X0022450Y0024380D01*
X0023450Y0023980D02*
X0022950Y0023480D01*
X0023450D02*
X0022950Y0023980D01*
X0022960Y0023940D02*
X0022460Y0023440D01*
X0022960D02*
X0022460Y0023940D01*
X0023190Y0026345D02*
X0022690Y0025845D01*
X0023190D02*
X0022690Y0026345D01*
X0022735Y0026340D02*
X0022235Y0025840D01*
X0022735D02*
X0022235Y0026340D01*
X0021880Y0026345D02*
X0021380Y0025845D01*
X0021880D02*
X0021380Y0026345D01*
X0022325D02*
X0021825Y0025845D01*
X0022325D02*
X0021825Y0026345D01*
X0022450Y0025795D02*
X0021950Y0025295D01*
X0022450D02*
X0021950Y0025795D01*
X0021955Y0025525D02*
X0021455Y0025025D01*
X0021955D02*
X0021455Y0025525D01*
X0021595Y0025850D02*
X0021095Y0025350D01*
X0021595D02*
X0021095Y0025850D01*
X0021445Y0026055D02*
X0020945Y0025555D01*
X0021445D02*
X0020945Y0026055D01*
X0020940Y0026200D02*
X0020440Y0025700D01*
X0020940D02*
X0020440Y0026200D01*
X0020960Y0025880D02*
X0020460Y0025380D01*
X0020960D02*
X0020460Y0025880D01*
X0020560Y0025940D02*
X0020060Y0025440D01*
X0020560D02*
X0020060Y0025940D01*
X0020540Y0026250D02*
X0020040Y0025750D01*
X0020540D02*
X0020040Y0026250D01*
X0020560Y0025580D02*
X0020060Y0025080D01*
X0020560D02*
X0020060Y0025580D01*
X0020960D02*
X0020460Y0025080D01*
X0020960D02*
X0020460Y0025580D01*
X0021610Y0025525D02*
X0021110Y0025025D01*
X0021610D02*
X0021110Y0025525D01*
X0021635Y0025170D02*
X0021135Y0024670D01*
X0021635D02*
X0021135Y0025170D01*
X0021975D02*
X0021475Y0024670D01*
X0021975D02*
X0021475Y0025170D01*
X0022500Y0025250D02*
X0022000Y0024750D01*
X0022500D02*
X0022000Y0025250D01*
X0022510Y0024780D02*
X0022010Y0024280D01*
X0022510D02*
X0022010Y0024780D01*
X0022520Y0024325D02*
X0022020Y0023825D01*
X0022520D02*
X0022020Y0024325D01*
X0022520Y0023945D02*
X0022020Y0023445D01*
X0022520D02*
X0022020Y0023945D01*
X0019230Y0020410D02*
X0018730Y0019910D01*
X0019230D02*
X0018730Y0020410D01*
X0018770D02*
X0018270Y0019910D01*
X0018770D02*
X0018270Y0020410D01*
X0019240Y0020840D02*
X0018740Y0020340D01*
X0019240D02*
X0018740Y0020840D01*
X0018770D02*
X0018270Y0020340D01*
X0018770D02*
X0018270Y0020840D01*
X0018220Y0020410D02*
X0017720Y0019910D01*
X0018220D02*
X0017720Y0020410D01*
X0018220Y0020840D02*
X0017720Y0020340D01*
X0018220D02*
X0017720Y0020840D01*
X0017600Y0020620D02*
X0017100Y0020120D01*
X0017600D02*
X0017100Y0020620D01*
X0017020D02*
X0016520Y0020120D01*
X0017020D02*
X0016520Y0020620D01*
X0016450D02*
X0015950Y0020120D01*
X0016450D02*
X0015950Y0020620D01*
X0015880Y0020630D02*
X0015380Y0020130D01*
X0015880D02*
X0015380Y0020630D01*
X0015310D02*
X0014810Y0020130D01*
X0015310D02*
X0014810Y0020630D01*
X0014700D02*
X0014200Y0020130D01*
X0014700D02*
X0014200Y0020630D01*
X0017570Y0021290D02*
X0017070Y0020790D01*
X0017570D02*
X0017070Y0021290D01*
X0016990D02*
X0016490Y0020790D01*
X0016990D02*
X0016490Y0021290D01*
X0016435Y0021285D02*
X0015935Y0020785D01*
X0016435D02*
X0015935Y0021285D01*
X0015885Y0021280D02*
X0015385Y0020780D01*
X0015885D02*
X0015385Y0021280D01*
X0015305Y0021275D02*
X0014805Y0020775D01*
X0015305D02*
X0014805Y0021275D01*
X0025370Y0022500D02*
X0024870Y0022000D01*
X0025370D02*
X0024870Y0022500D01*
X0025370Y0022050D02*
X0024870Y0021550D01*
X0025370D02*
X0024870Y0022050D01*
X0024840Y0022500D02*
X0024340Y0022000D01*
X0024840D02*
X0024340Y0022500D01*
X0024840Y0022060D02*
X0024340Y0021560D01*
X0024840D02*
X0024340Y0022060D01*
X0024410Y0022510D02*
X0023910Y0022010D01*
X0024410D02*
X0023910Y0022510D01*
X0024410Y0022060D02*
X0023910Y0021560D01*
X0024410D02*
X0023910Y0022060D01*
X0023900Y0022510D02*
X0023400Y0022010D01*
X0023900D02*
X0023400Y0022510D01*
X0023910Y0022060D02*
X0023410Y0021560D01*
X0023910D02*
X0023410Y0022060D01*
X0023415Y0022515D02*
X0022915Y0022015D01*
X0023415D02*
X0022915Y0022515D01*
X0023420Y0022060D02*
X0022920Y0021560D01*
X0023420D02*
X0022920Y0022060D01*
X0022840Y0022520D02*
X0022340Y0022020D01*
X0022840D02*
X0022340Y0022520D01*
X0022835Y0022050D02*
X0022335Y0021550D01*
X0022835D02*
X0022335Y0022050D01*
X0025340Y0021170D02*
X0024840Y0020670D01*
X0025340D02*
X0024840Y0021170D01*
X0025335Y0020720D02*
X0024835Y0020220D01*
X0025335D02*
X0024835Y0020720D01*
X0025335Y0020385D02*
X0024835Y0019885D01*
X0025335D02*
X0024835Y0020385D01*
X0024840Y0021165D02*
X0024340Y0020665D01*
X0024840D02*
X0024340Y0021165D01*
X0024840Y0020720D02*
X0024340Y0020220D01*
X0024840D02*
X0024340Y0020720D01*
X0024850Y0020370D02*
X0024350Y0019870D01*
X0024850D02*
X0024350Y0020370D01*
X0024405Y0021165D02*
X0023905Y0020665D01*
X0024405D02*
X0023905Y0021165D01*
X0024410Y0020730D02*
X0023910Y0020230D01*
X0024410D02*
X0023910Y0020730D01*
X0024405Y0020385D02*
X0023905Y0019885D01*
X0024405D02*
X0023905Y0020385D01*
X0023920Y0021165D02*
X0023420Y0020665D01*
X0023920D02*
X0023420Y0021165D01*
X0023930Y0020730D02*
X0023430Y0020230D01*
X0023930D02*
X0023430Y0020730D01*
X0023930Y0020390D02*
X0023430Y0019890D01*
X0023930D02*
X0023430Y0020390D01*
X0023420Y0021170D02*
X0022920Y0020670D01*
X0023420D02*
X0022920Y0021170D01*
X0023420Y0020750D02*
X0022920Y0020250D01*
X0023420D02*
X0022920Y0020750D01*
X0023430Y0020410D02*
X0022930Y0019910D01*
X0023430D02*
X0022930Y0020410D01*
X0022840Y0021610D02*
X0022340Y0021110D01*
X0022840D02*
X0022340Y0021610D01*
X0022845Y0021180D02*
X0022345Y0020680D01*
X0022845D02*
X0022345Y0021180D01*
X0022845Y0020760D02*
X0022345Y0020260D01*
X0022845D02*
X0022345Y0020760D01*
X0022845Y0020420D02*
X0022345Y0019920D01*
X0022845D02*
X0022345Y0020420D01*
X0025340Y0020090D02*
X0024840Y0019590D01*
X0025340D02*
X0024840Y0020090D01*
X0024850Y0020085D02*
X0024350Y0019585D01*
X0024850D02*
X0024350Y0020085D01*
X0024410Y0020090D02*
X0023910Y0019590D01*
X0024410D02*
X0023910Y0020090D01*
X0023930D02*
X0023430Y0019590D01*
X0023930D02*
X0023430Y0020090D01*
X0022930Y0019590D01*
X0023430D02*
X0022930Y0020090D01*
X0022845Y0020100D02*
X0022345Y0019600D01*
X0022845D02*
X0022345Y0020100D01*
X0022515Y0020435D02*
X0022015Y0019935D01*
X0022515D02*
X0022015Y0020435D01*
X0022515Y0020785D02*
X0022015Y0020285D01*
X0022515D02*
X0022015Y0020785D01*
X0024060Y0023610D02*
X0023560Y0023110D01*
X0024060D02*
X0023560Y0023610D01*
X0024430D02*
X0023930Y0023110D01*
X0024430D02*
X0023930Y0023610D01*
X0024780D02*
X0024280Y0023110D01*
X0024780D02*
X0024280Y0023610D01*
X0025360Y0023615D02*
X0024860Y0023115D01*
X0025360D02*
X0024860Y0023615D01*
X0025085D02*
X0024585Y0023115D01*
X0025085D02*
X0024585Y0023615D01*
X0025065Y0022890D02*
X0024565Y0022390D01*
X0025065D02*
X0024565Y0022890D01*
X0025370D02*
X0024870Y0022390D01*
X0025370D02*
X0024870Y0022890D01*
X0024730D02*
X0024230Y0022390D01*
X0024730D02*
X0024230Y0022890D01*
X0024405Y0022895D02*
X0023905Y0022395D01*
X0024405D02*
X0023905Y0022895D01*
X0024025Y0022890D02*
X0023525Y0022390D01*
X0024025D02*
X0023525Y0022890D01*
X0023740Y0022950D02*
X0023240Y0022450D01*
X0023740D02*
X0023240Y0022950D01*
X0023420Y0022940D02*
X0022920Y0022440D01*
X0023420D02*
X0022920Y0022940D01*
X0023100D02*
X0022600Y0022440D01*
X0023100D02*
X0022600Y0022940D01*
X0022780D02*
X0022280Y0022440D01*
X0022780D02*
X0022280Y0022940D01*
X0023760Y0023560D02*
X0023260Y0023060D01*
X0023760D02*
X0023260Y0023560D01*
X0023450D02*
X0022950Y0023060D01*
X0023450D02*
X0022950Y0023560D01*
X0023140Y0023555D02*
X0022640Y0023055D01*
X0023140D02*
X0022640Y0023555D01*
X0022800Y0023560D02*
X0022300Y0023060D01*
X0022800D02*
X0022300Y0023560D01*
X0022515Y0023550D02*
X0022015Y0023050D01*
X0022515D02*
X0022015Y0023550D01*
X0022520Y0022525D02*
X0022020Y0022025D01*
X0022520D02*
X0022020Y0022525D01*
X0022515Y0022930D02*
X0022015Y0022430D01*
X0022515D02*
X0022015Y0022930D01*
X0022520Y0022055D02*
X0022020Y0021555D01*
X0022520D02*
X0022020Y0022055D01*
X0022515Y0021175D02*
X0022015Y0020675D01*
X0022515D02*
X0022015Y0021175D01*
X0022510Y0021630D02*
X0022010Y0021130D01*
X0022510D02*
X0022010Y0021630D01*
X0021460Y0020430D02*
X0020960Y0019930D01*
X0021460D02*
X0020960Y0020430D01*
X0021890Y0020090D02*
X0021390Y0019590D01*
X0021890D02*
X0021390Y0020090D01*
X0021890Y0020430D02*
X0021390Y0019930D01*
X0021890D02*
X0021390Y0020430D01*
X0021900Y0020815D02*
X0021400Y0020315D01*
X0021900D02*
X0021400Y0020815D01*
X0021895Y0021180D02*
X0021395Y0020680D01*
X0021895D02*
X0021395Y0021180D01*
X0021455Y0020725D02*
X0020955Y0020225D01*
X0021455D02*
X0020955Y0020725D01*
X0019270Y0020060D02*
X0018770Y0019560D01*
X0019270D02*
X0018770Y0020060D01*
X0018860D02*
X0018360Y0019560D01*
X0018860D02*
X0018360Y0020060D01*
X0018400D02*
X0017900Y0019560D01*
X0018400D02*
X0017900Y0020060D01*
X0017980D02*
X0017480Y0019560D01*
X0017980D02*
X0017480Y0020060D01*
X0016980Y0019560D01*
X0017480D02*
X0016980Y0020060D01*
X0017070D02*
X0016570Y0019560D01*
X0017070D02*
X0016570Y0020060D01*
X0016610D02*
X0016110Y0019560D01*
X0016610D02*
X0016110Y0020060D01*
X0016140D02*
X0015640Y0019560D01*
X0016140D02*
X0015640Y0020060D01*
X0015670D02*
X0015170Y0019560D01*
X0015670D02*
X0015170Y0020060D01*
X0015260D02*
X0014760Y0019560D01*
X0015260D02*
X0014760Y0020060D01*
X0014820D02*
X0014320Y0019560D01*
X0014820D02*
X0014320Y0020060D01*
X0014700Y0021285D02*
X0014200Y0020785D01*
X0014700D02*
X0014200Y0021285D01*
X0014120Y0021280D02*
X0013620Y0020780D01*
X0014120D02*
X0013620Y0021280D01*
X0014120Y0020635D02*
X0013620Y0020135D01*
X0014120D02*
X0013620Y0020635D01*
X0014110Y0020060D02*
X0013610Y0019560D01*
X0014110D02*
X0013610Y0020060D01*
X0013520D02*
X0013020Y0019560D01*
X0013520D02*
X0013020Y0020060D01*
X0013520Y0020640D02*
X0013020Y0020140D01*
X0013520D02*
X0013020Y0020640D01*
X0013520Y0021110D02*
X0013020Y0020610D01*
X0013520D02*
X0013020Y0021110D01*
X0015000Y0021830D02*
X0014500Y0021330D01*
X0015000D02*
X0014500Y0021830D01*
X0014640D02*
X0014140Y0021330D01*
X0014640D02*
X0014140Y0021830D01*
X0015350Y0021825D02*
X0014850Y0021325D01*
X0015350D02*
X0014850Y0021825D01*
X0015710Y0021830D02*
X0015210Y0021330D01*
X0015710D02*
X0015210Y0021830D01*
X0016190Y0021825D02*
X0015690Y0021325D01*
X0016190D02*
X0015690Y0021825D01*
X0016710Y0021820D02*
X0016210Y0021320D01*
X0016710D02*
X0016210Y0021820D01*
X0017090D02*
X0016590Y0021320D01*
X0017090D02*
X0016590Y0021820D01*
X0017480Y0021815D02*
X0016980Y0021315D01*
X0017480D02*
X0016980Y0021815D01*
X0017890Y0021470D02*
X0017390Y0020970D01*
X0017890D02*
X0017390Y0021470D01*
X0018230Y0021250D02*
X0017730Y0020750D01*
X0018230D02*
X0017730Y0021250D01*
X0018640D02*
X0018140Y0020750D01*
X0018640D02*
X0018140Y0021250D01*
X0019010Y0021180D02*
X0018510Y0020680D01*
X0019010D02*
X0018510Y0021180D01*
X0019370D02*
X0018870Y0020680D01*
X0019370D02*
X0018870Y0021180D01*
X0020550Y0020060D02*
X0020050Y0019560D01*
X0020550D02*
X0020050Y0020060D01*
X0020550Y0020410D02*
X0020050Y0019910D01*
X0020550D02*
X0020050Y0020410D01*
X0021020Y0020055D02*
X0020520Y0019555D01*
X0021020D02*
X0020520Y0020055D01*
X0020970Y0020395D02*
X0020470Y0019895D01*
X0020970D02*
X0020470Y0020395D01*
X0020970Y0020720D02*
X0020470Y0020220D01*
X0020970D02*
X0020470Y0020720D01*
X0020550D02*
X0020050Y0020220D01*
X0020550D02*
X0020050Y0020720D01*
X0014105Y0021835D02*
X0013605Y0021335D01*
X0014105D02*
X0013605Y0021835D01*
X0013830Y0022110D02*
X0013330Y0021610D01*
X0013830D02*
X0013330Y0022110D01*
X0013520Y0021530D02*
X0013020Y0021030D01*
X0013520D02*
X0013020Y0021530D01*
X0013520Y0021930D02*
X0013020Y0021430D01*
X0013520D02*
X0013020Y0021930D01*
X0019842Y0026257D02*
X0019342Y0025757D01*
X0019842D02*
X0019342Y0026257D01*
X0019457Y0026262D02*
X0018957Y0025762D01*
X0019457D02*
X0018957Y0026262D01*
X0014010Y0024350D02*
X0013510Y0023850D01*
X0014010D02*
X0013510Y0024350D01*
X0013830Y0023750D02*
X0013330Y0023250D01*
X0013830D02*
X0013330Y0023750D01*
X0013830Y0023450D02*
X0013330Y0022950D01*
X0013830D02*
X0013330Y0023450D01*
X0013830Y0022870D02*
X0013330Y0022370D01*
X0013830D02*
X0013330Y0022870D01*
X0013830Y0022520D02*
X0013330Y0022020D01*
X0013830D02*
X0013330Y0022520D01*
X0013520Y0022320D02*
X0013020Y0021820D01*
X0013520D02*
X0013020Y0022320D01*
X0013520Y0022670D02*
X0013020Y0022170D01*
X0013520D02*
X0013020Y0022670D01*
X0013520Y0023010D02*
X0013020Y0022510D01*
X0013520D02*
X0013020Y0023010D01*
X0013520Y0023310D02*
X0013020Y0022810D01*
X0013520D02*
X0013020Y0023310D01*
X0013525Y0023580D02*
X0013025Y0023080D01*
X0013525D02*
X0013025Y0023580D01*
X0013520Y0024200D02*
X0013020Y0023700D01*
X0013520D02*
X0013020Y0024200D01*
X0013730Y0024410D02*
X0013230Y0023910D01*
X0013730D02*
X0013230Y0024410D01*
X0013965Y0024635D02*
X0013465Y0024135D01*
X0013965D02*
X0013465Y0024635D01*
X0014220Y0024865D02*
X0013720Y0024365D01*
X0014220D02*
X0013720Y0024865D01*
X0014585Y0024940D02*
X0014085Y0024440D01*
X0014585D02*
X0014085Y0024940D01*
X0014630Y0023590D02*
X0014130Y0023090D01*
X0014630D02*
X0014130Y0023590D01*
X0015865Y0023160D02*
X0015365Y0022660D01*
X0015865D02*
X0015365Y0023160D01*
X0015860Y0023540D02*
X0015360Y0023040D01*
X0015860D02*
X0015360Y0023540D01*
X0014775Y0023415D02*
X0014275Y0022915D01*
X0014775D02*
X0014275Y0023415D01*
X0013525Y0023895D02*
X0013025Y0023395D01*
X0013525D02*
X0013025Y0023895D01*
X0015190Y0023940D02*
X0014690Y0023440D01*
X0015190D02*
X0014690Y0023940D01*
X0015050Y0024120D02*
X0014550Y0023620D01*
X0015050D02*
X0014550Y0024120D01*
X0015860Y0023935D02*
X0015360Y0023435D01*
X0015860D02*
X0015360Y0023935D01*
X0015845Y0024305D02*
X0015345Y0023805D01*
X0015845D02*
X0015345Y0024305D01*
X0016930Y0022730D02*
X0016430Y0022230D01*
X0016930D02*
X0016430Y0022730D01*
X0017305D02*
X0016805Y0022230D01*
X0017305D02*
X0016805Y0022730D01*
X0017665Y0022720D02*
X0017165Y0022220D01*
X0017665D02*
X0017165Y0022720D01*
X0020570Y0021890D02*
X0020070Y0021390D01*
X0020570D02*
X0020070Y0021890D01*
X0020550Y0022250D02*
X0020050Y0021750D01*
X0020550D02*
X0020050Y0022250D01*
X0020550Y0022620D02*
X0020050Y0022120D01*
X0020550D02*
X0020050Y0022620D01*
X0020570Y0023030D02*
X0020070Y0022530D01*
X0020570D02*
X0020070Y0023030D01*
X0020560Y0023350D02*
X0020060Y0022850D01*
X0020560D02*
X0020060Y0023350D01*
X0020560Y0023710D02*
X0020060Y0023210D01*
X0020560D02*
X0020060Y0023710D01*
X0020970Y0021890D02*
X0020470Y0021390D01*
X0020970D02*
X0020470Y0021890D01*
X0020970Y0022250D02*
X0020470Y0021750D01*
X0020970D02*
X0020470Y0022250D01*
X0020970Y0022620D02*
X0020470Y0022120D01*
X0020970D02*
X0020470Y0022620D01*
X0020980Y0023030D02*
X0020480Y0022530D01*
X0020980D02*
X0020480Y0023030D01*
X0020980Y0023350D02*
X0020480Y0022850D01*
X0020980D02*
X0020480Y0023350D01*
X0020970Y0023710D02*
X0020470Y0023210D01*
X0020970D02*
X0020470Y0023710D01*
X0021445Y0023345D02*
X0020945Y0022845D01*
X0021445D02*
X0020945Y0023345D01*
X0021445Y0023015D02*
X0020945Y0022515D01*
X0021445D02*
X0020945Y0023015D01*
X0021445Y0022620D02*
X0020945Y0022120D01*
X0021445D02*
X0020945Y0022620D01*
X0021445Y0022245D02*
X0020945Y0021745D01*
X0021445D02*
X0020945Y0022245D01*
X0021450Y0021890D02*
X0020950Y0021390D01*
X0021450D02*
X0020950Y0021890D01*
X0021810D02*
X0021310Y0021390D01*
X0021810D02*
X0021310Y0021890D01*
X0021810Y0022250D02*
X0021310Y0021750D01*
X0021810D02*
X0021310Y0022250D01*
X0021810Y0022640D02*
X0021310Y0022140D01*
X0021810D02*
X0021310Y0022640D01*
X0021810Y0023030D02*
X0021310Y0022530D01*
X0021810D02*
X0021310Y0023030D01*
X0021805Y0023360D02*
X0021305Y0022860D01*
X0021805D02*
X0021305Y0023360D01*
X0021805Y0023715D02*
X0021305Y0023215D01*
X0021805D02*
X0021305Y0023715D01*
X0021730Y0024085D02*
X0021230Y0023585D01*
X0021730D02*
X0021230Y0024085D01*
X0019590Y0022075D02*
X0019090Y0021575D01*
X0019590D02*
X0019090Y0022075D01*
X0018710Y0022060D02*
X0018210Y0021560D01*
X0018710D02*
X0018210Y0022060D01*
X0018850Y0023585D02*
X0018350Y0023085D01*
X0018850D02*
X0018350Y0023585D01*
X0019745Y0023590D02*
X0019245Y0023090D01*
X0019745D02*
X0019245Y0023590D01*
X0019750Y0023975D02*
X0019250Y0023475D01*
X0019750D02*
X0019250Y0023975D01*
X0015250Y0018215D02*
X0014750Y0017715D01*
X0015250D02*
X0014750Y0018215D01*
X0014700Y0018030D02*
X0014200Y0017530D01*
X0014700D02*
X0014200Y0018030D01*
X0024610Y0031730D02*
X0024110Y0031230D01*
X0024610D02*
X0024110Y0031730D01*
X0024060Y0030110D02*
X0023560Y0029610D01*
X0024060D02*
X0023560Y0030110D01*
X0020445Y0030230D02*
X0019945Y0029730D01*
X0020445D02*
X0019945Y0030230D01*
X0017740Y0027650D02*
X0017240Y0027150D01*
X0017740D02*
X0017240Y0027650D01*
X0017350Y0027640D02*
X0016850Y0027140D01*
X0017350D02*
X0016850Y0027640D01*
X0016900Y0027635D02*
X0016400Y0027135D01*
X0016900D02*
X0016400Y0027635D01*
X0014435Y0025575D02*
X0013935Y0025075D01*
X0014435D02*
X0013935Y0025575D01*
X0014255Y0026045D02*
X0013755Y0025545D01*
X0014255D02*
X0013755Y0026045D01*
X0018010Y0024590D02*
X0017510Y0024090D01*
X0018010D02*
X0017510Y0024590D01*
X0017680D02*
X0017180Y0024090D01*
X0017680D02*
X0017180Y0024590D01*
X0018300Y0024930D02*
X0017800Y0024430D01*
X0018300D02*
X0017800Y0024930D01*
X0017990D02*
X0017490Y0024430D01*
X0017990D02*
X0017490Y0024930D01*
X0017680D02*
X0017180Y0024430D01*
X0017680D02*
X0017180Y0024930D01*
X0018300Y0025220D02*
X0017800Y0024720D01*
X0018300D02*
X0017800Y0025220D01*
X0017990D02*
X0017490Y0024720D01*
X0017990D02*
X0017490Y0025220D01*
X0017680D02*
X0017180Y0024720D01*
X0017680D02*
X0017180Y0025220D01*
X0017990Y0025490D02*
X0017490Y0024990D01*
X0017990D02*
X0017490Y0025490D01*
X0017680D02*
X0017180Y0024990D01*
X0017680D02*
X0017180Y0025490D01*
X0017400Y0025220D02*
X0016900Y0024720D01*
X0017400D02*
X0016900Y0025220D01*
X0017400Y0024930D02*
X0016900Y0024430D01*
X0017400D02*
X0016900Y0024930D01*
X0018300Y0024590D02*
X0017800Y0024090D01*
X0018300D02*
X0017800Y0024590D01*
X0018300Y0025490D02*
X0017800Y0024990D01*
X0018300D02*
X0017800Y0025490D01*
X0017400Y0024590D02*
X0016900Y0024090D01*
X0017400D02*
X0016900Y0024590D01*
X0017400Y0025490D02*
X0016900Y0024990D01*
X0017400D02*
X0016900Y0025490D01*
X0017085Y0033045D02*
X0016585Y0032545D01*
X0017085D02*
X0016585Y0033045D01*
X0015090Y0028600D02*
X0014590Y0028100D01*
X0015090D02*
X0014590Y0028600D01*
X0023855Y0032470D02*
X0023355Y0031970D01*
X0023855D02*
X0023355Y0032470D01*
X0022565Y0029440D02*
X0022065Y0028940D01*
X0022565D02*
X0022065Y0029440D01*
X0021860Y0031550D02*
X0021360Y0031050D01*
X0021860D02*
X0021360Y0031550D01*
X0013885Y0032595D02*
X0013385Y0032095D01*
X0013885D02*
X0013385Y0032595D01*
X0012885D02*
X0012385Y0032095D01*
X0012885D02*
X0012385Y0032595D01*
X0015885Y0032705D02*
X0015385Y0032205D01*
X0015885D02*
X0015385Y0032705D01*
X0021290Y0028675D02*
X0020790Y0028175D01*
X0021290D02*
X0020790Y0028675D01*
X0022390Y0030465D02*
X0021890Y0029965D01*
X0022390D02*
X0021890Y0030465D01*
X0016040Y0022490D02*
X0015540Y0021990D01*
X0016040D02*
X0015540Y0022490D01*
X0020485Y0017925D02*
X0019985Y0017425D01*
X0020485D02*
X0019985Y0017925D01*
X0019795Y0019110D02*
X0019295Y0018610D01*
X0019795D02*
X0019295Y0019110D01*
X0017805Y0023890D02*
X0017305Y0023390D01*
X0017805D02*
X0017305Y0023890D01*
X0017072Y0024308D02*
X0016572Y0023808D01*
X0017072D02*
X0016572Y0024308D01*
X0018980Y0025055D02*
X0018480Y0024555D01*
X0018980D02*
X0018480Y0025055D01*
X0021865Y0030815D02*
X0021365Y0030315D01*
X0021865D02*
X0021365Y0030815D01*
X0020095Y0030730D02*
X0019595Y0030230D01*
X0020095D02*
X0019595Y0030730D01*
X0019585Y0022925D02*
X0019085Y0022425D01*
X0019585D02*
X0019085Y0022925D01*
X0018537Y0025772D02*
X0018037Y0025272D01*
X0018537D02*
X0018037Y0025772D01*
X0018145Y0026415D02*
X0017645Y0025915D01*
X0018145D02*
X0017645Y0026415D01*
X0017945Y0026625D02*
X0017445Y0026125D01*
X0017945D02*
X0017445Y0026625D01*
X0017750Y0026405D02*
X0017250Y0025905D01*
X0017750D02*
X0017250Y0026405D01*
X0017555Y0026620D02*
X0017055Y0026120D01*
X0017555D02*
X0017055Y0026620D01*
X0016860Y0024520D02*
X0016360Y0024020D01*
X0016860D02*
X0016360Y0024520D01*
X0016900Y0026125D02*
X0016400Y0025625D01*
X0016900D02*
X0016400Y0026125D01*
X0015455Y0026220D02*
X0014955Y0025720D01*
X0015455D02*
X0014955Y0026220D01*
X0013215Y0017830D02*
X0012965Y0017580D01*
X0013465D02*
X0013215Y0017830D01*
Y0017330D02*
X0013465Y0017580D01*
X0012965D02*
X0013215Y0017330D01*
Y0018830D02*
X0012965Y0018580D01*
X0013465D02*
X0013215Y0018830D01*
Y0018330D02*
X0013465Y0018580D01*
X0012965D02*
X0013215Y0018330D01*
X0018984Y0015708D02*
Y0015208D01*
X0019484Y0015708D02*
X0018984D01*
X0019484Y0015208D02*
Y0015708D01*
X0018984Y0015208D02*
X0019484D01*
Y0015708D02*
X0018984Y0015208D01*
X0019484D02*
X0018984Y0015708D01*
X0019984D02*
Y0015208D01*
X0020484Y0015708D02*
X0019984D01*
X0020484Y0015208D02*
Y0015708D01*
X0019984Y0015208D02*
X0020484D01*
Y0015708D02*
X0019984Y0015208D01*
X0020484D02*
X0019984Y0015708D01*
X0020984D02*
Y0015208D01*
X0021484Y0015708D02*
X0020984D01*
X0021484Y0015208D02*
Y0015708D01*
X0020984Y0015208D02*
X0021484D01*
Y0015708D02*
X0020984Y0015208D01*
X0021484D02*
X0020984Y0015708D01*
X0021984D02*
Y0015208D01*
X0022484Y0015708D02*
X0021984D01*
X0022484Y0015208D02*
Y0015708D01*
X0021984Y0015208D02*
X0022484D01*
Y0015708D02*
X0021984Y0015208D01*
X0022484D02*
X0021984Y0015708D01*
X0022984D02*
Y0015208D01*
X0023484Y0015708D02*
X0022984D01*
X0023484Y0015208D02*
Y0015708D01*
X0022984Y0015208D02*
X0023484D01*
Y0015708D02*
X0022984Y0015208D01*
X0023484D02*
X0022984Y0015708D01*
X0023984D02*
Y0015208D01*
X0024484Y0015708D02*
X0023984D01*
X0024484Y0015208D02*
Y0015708D01*
X0023984Y0015208D02*
X0024484D01*
Y0015708D02*
X0023984Y0015208D01*
X0024484D02*
X0023984Y0015708D01*
X0009977D02*
Y0015208D01*
X0010477Y0015708D02*
X0009977D01*
X0010477Y0015208D02*
Y0015708D01*
X0009977Y0015208D02*
X0010477D01*
Y0015708D02*
X0009977Y0015208D01*
X0010477D02*
X0009977Y0015708D01*
X0010977D02*
Y0015208D01*
X0011477Y0015708D02*
X0010977D01*
X0011477Y0015208D02*
Y0015708D01*
X0010977Y0015208D02*
X0011477D01*
Y0015708D02*
X0010977Y0015208D01*
X0011477D02*
X0010977Y0015708D01*
X0011977D02*
Y0015208D01*
X0012477Y0015708D02*
X0011977D01*
X0012477Y0015208D02*
Y0015708D01*
X0011977Y0015208D02*
X0012477D01*
Y0015708D02*
X0011977Y0015208D01*
X0012477D02*
X0011977Y0015708D01*
X0012977D02*
Y0015208D01*
X0013477Y0015708D02*
X0012977D01*
X0013477Y0015208D02*
Y0015708D01*
X0012977Y0015208D02*
X0013477D01*
Y0015708D02*
X0012977Y0015208D01*
X0013477D02*
X0012977Y0015708D01*
X0013977D02*
Y0015208D01*
X0014477Y0015708D02*
X0013977D01*
X0014477Y0015208D02*
Y0015708D01*
X0013977Y0015208D02*
X0014477D01*
Y0015708D02*
X0013977Y0015208D01*
X0014477D02*
X0013977Y0015708D01*
X0014977D02*
Y0015208D01*
X0015477Y0015708D02*
X0014977D01*
X0015477Y0015208D02*
Y0015708D01*
X0014977Y0015208D02*
X0015477D01*
Y0015708D02*
X0014977Y0015208D01*
X0015477D02*
X0014977Y0015708D01*
X0015977D02*
Y0015208D01*
X0016477Y0015708D02*
X0015977D01*
X0016477Y0015208D02*
Y0015708D01*
X0015977Y0015208D02*
X0016477D01*
Y0015708D02*
X0015977Y0015208D01*
X0016477D02*
X0015977Y0015708D01*
X0016977D02*
Y0015208D01*
X0017477Y0015708D02*
X0016977D01*
X0017477Y0015208D02*
Y0015708D01*
X0016977Y0015208D02*
X0017477D01*
Y0015708D02*
X0016977Y0015208D01*
X0017477D02*
X0016977Y0015708D01*
X0023979Y0034706D02*
Y0034206D01*
X0024479Y0034706D02*
X0023979D01*
X0024479Y0034206D02*
Y0034706D01*
X0023979Y0034206D02*
X0024479D01*
Y0034706D02*
X0023979Y0034206D01*
X0024479D02*
X0023979Y0034706D01*
X0022979D02*
Y0034206D01*
X0023479Y0034706D02*
X0022979D01*
X0023479Y0034206D02*
Y0034706D01*
X0022979Y0034206D02*
X0023479D01*
Y0034706D02*
X0022979Y0034206D01*
X0023479D02*
X0022979Y0034706D01*
X0021979D02*
Y0034206D01*
X0022479Y0034706D02*
X0021979D01*
X0022479Y0034206D02*
Y0034706D01*
X0021979Y0034206D02*
X0022479D01*
Y0034706D02*
X0021979Y0034206D01*
X0022479D02*
X0021979Y0034706D01*
X0020979D02*
Y0034206D01*
X0021479Y0034706D02*
X0020979D01*
X0021479Y0034206D02*
Y0034706D01*
X0020979Y0034206D02*
X0021479D01*
Y0034706D02*
X0020979Y0034206D01*
X0021479D02*
X0020979Y0034706D01*
X0019979D02*
Y0034206D01*
X0020479Y0034706D02*
X0019979D01*
X0020479Y0034206D02*
Y0034706D01*
X0019979Y0034206D02*
X0020479D01*
Y0034706D02*
X0019979Y0034206D01*
X0020479D02*
X0019979Y0034706D01*
X0018979D02*
Y0034206D01*
X0019479Y0034706D02*
X0018979D01*
X0019479Y0034206D02*
Y0034706D01*
X0018979Y0034206D02*
X0019479D01*
Y0034706D02*
X0018979Y0034206D01*
X0019479D02*
X0018979Y0034706D01*
X0017979D02*
Y0034206D01*
X0018479Y0034706D02*
X0017979D01*
X0018479Y0034206D02*
Y0034706D01*
X0017979Y0034206D02*
X0018479D01*
Y0034706D02*
X0017979Y0034206D01*
X0018479D02*
X0017979Y0034706D01*
X0016979D02*
Y0034206D01*
X0017479Y0034706D02*
X0016979D01*
X0017479Y0034206D02*
Y0034706D01*
X0016979Y0034206D02*
X0017479D01*
Y0034706D02*
X0016979Y0034206D01*
X0017479D02*
X0016979Y0034706D01*
X0015385D02*
Y0034206D01*
X0015885Y0034706D02*
X0015385D01*
X0015885Y0034206D02*
Y0034706D01*
X0015385Y0034206D02*
X0015885D01*
Y0034706D02*
X0015385Y0034206D01*
X0015885D02*
X0015385Y0034706D01*
X0014385D02*
Y0034206D01*
X0014885Y0034706D02*
X0014385D01*
X0014885Y0034206D02*
Y0034706D01*
X0014385Y0034206D02*
X0014885D01*
Y0034706D02*
X0014385Y0034206D01*
X0014885D02*
X0014385Y0034706D01*
X0013385D02*
Y0034206D01*
X0013885Y0034706D02*
X0013385D01*
X0013885Y0034206D02*
Y0034706D01*
X0013385Y0034206D02*
X0013885D01*
Y0034706D02*
X0013385Y0034206D01*
X0013885D02*
X0013385Y0034706D01*
X0012385D02*
Y0034206D01*
X0012885Y0034706D02*
X0012385D01*
X0012885Y0034206D02*
Y0034706D01*
X0012385Y0034206D02*
X0012885D01*
Y0034706D02*
X0012385Y0034206D01*
X0012885D02*
X0012385Y0034706D01*
X0011385D02*
Y0034206D01*
X0011885Y0034706D02*
X0011385D01*
X0011885Y0034206D02*
Y0034706D01*
X0011385Y0034206D02*
X0011885D01*
Y0034706D02*
X0011385Y0034206D01*
X0011885D02*
X0011385Y0034706D01*
X0010385D02*
Y0034206D01*
X0010885Y0034706D02*
X0010385D01*
X0010885Y0034206D02*
Y0034706D01*
X0010385Y0034206D02*
X0010885D01*
Y0034706D02*
X0010385Y0034206D01*
X0010885D02*
X0010385Y0034706D01*
X0009385D02*
Y0034206D01*
X0009885Y0034706D02*
X0009385D01*
X0009885Y0034206D02*
Y0034706D01*
X0009385Y0034206D02*
X0009885D01*
Y0034706D02*
X0009385Y0034206D01*
X0009885D02*
X0009385Y0034706D01*
X0008385D02*
Y0034206D01*
X0008885Y0034706D02*
X0008385D01*
X0008885Y0034206D02*
Y0034706D01*
X0008385Y0034206D02*
X0008885D01*
Y0034706D02*
X0008385Y0034206D01*
X0008885D02*
X0008385Y0034706D01*
X0007385D02*
Y0034206D01*
X0007885Y0034706D02*
X0007385D01*
X0007885Y0034206D02*
Y0034706D01*
X0007385Y0034206D02*
X0007885D01*
Y0034706D02*
X0007385Y0034206D01*
X0007885D02*
X0007385Y0034706D01*
X0006385D02*
Y0034206D01*
X0006885Y0034706D02*
X0006385D01*
X0006885Y0034206D02*
Y0034706D01*
X0006385Y0034206D02*
X0006885D01*
Y0034706D02*
X0006385Y0034206D01*
X0006885D02*
X0006385Y0034706D01*
M02*
