*
G04 Mass Parameters ***
*
G04 Image ***
*
%INC:\USERS\PLACIDO DE-VITA\DESKTOP\LAVORO\SUB 1 GHZ\S2-LP\BOARD APPLICATIVA VERS2\LAYOUT\GERBER-STEVAL-FKI433V1.SMB*%
%ICAS*%
%MOIN*%
%IPPOS*%
%ASAXBY*%
G74*%FSLAN2X34Y34*%
*
G04 Aperture Definitions ***
*
%ADD10R,0.0380X0.0320*%
%ADD11R,0.0220X0.0220*%
%ADD12R,0.0320X0.0380*%
%ADD13O,0.0618X0.0787*%
%ADD14R,0.0618X0.0787*%
%ADD15R,0.2000X0.0500*%
%ADD16R,0.1500X0.0300*%
%ADD17C,0.0640*%
%ADD18R,0.0480X0.0400*%
%ADD19O,0.0940X0.0250*%
%ADD20R,0.0940X0.0250*%
%ADD21R,0.0100X0.0200*%
%ADD22R,0.1063X0.1063*%
%ADD23R,0.0200X0.0100*%
%ADD24R,0.0300X0.0330*%
%ADD25C,0.0150*%
%ADD26C,0.0650*%
%ADD27C,0.0010*%
%ADD28C,0.0100*%
%ADD29C,0.0200*%
%ADD30C,0.0060*%
%ADD31C,0.0080*%
%ADD32O,0.0620X0.0790*%
%ADD33R,0.0620X0.0790*%
%ADD34C,0.0700*%
%ADD35R,0.2500X0.1000*%
%ADD36R,0.1600X0.0350*%
%ADD37C,0.0690*%
%ADD38R,0.0080X0.0200*%
%ADD39R,0.0200X0.0080*%
%ADD40C,0.0800*%
%ADD41R,0.2100X0.0600*%
*
G04 Plot Data ***
*
G54D11*
X0024235Y0016845D03*
Y0017265D03*
X0022235Y0016840D03*
Y0017260D03*
X0021230Y0016835D03*
Y0017255D03*
X0020235Y0016845D03*
Y0017265D03*
X0019235Y0016840D03*
Y0017260D03*
X0021230Y0032800D03*
Y0033220D03*
X0017230Y0032795D03*
Y0033215D03*
X0013635Y0032795D03*
Y0033215D03*
X0015635Y0032800D03*
Y0033220D03*
X0010635Y0032800D03*
Y0033220D03*
X0012635Y0032800D03*
Y0033220D03*
X0011635Y0032800D03*
Y0033220D03*
G54D13*
X0020234Y0015458D03*
X0021234D03*
X0022234D03*
X0023234D03*
X0024234D03*
X0011227D03*
X0012227D03*
X0013227D03*
X0014227D03*
X0015227D03*
X0016227D03*
X0017227D03*
X0023229Y0034456D03*
X0022229D03*
X0021229D03*
X0020229D03*
X0019229D03*
X0018229D03*
X0017229D03*
X0014635D03*
X0013635D03*
X0012635D03*
X0011635D03*
X0010635D03*
X0009635D03*
X0008635D03*
X0007635D03*
X0006635D03*
G54D14*
X0019234Y0015458D03*
X0010227D03*
X0024229Y0034456D03*
X0015635D03*
G54D37*
X0013215Y0017580D03*
Y0018580D03*
G54D40*
X0013695Y0026720D03*
G54D41*
X0024170Y0021295D03*
Y0024645D03*
M02*
