*
G04 Mass Parameters ***
*
G04 Image ***
*
%INC:\USERS\PLACIDO DE-VITA\DESKTOP\LAVORO\SUB 1 GHZ\S2-LP\BOARD APPLICATIVA VERS2\LAYOUT\GERBER-STEVAL-FKI433V1.SST*%
%ICAS*%
%MOIN*%
%IPPOS*%
%ASAXBY*%
G74*%FSLAN2X34Y34*%
*
G04 Aperture Definitions ***
*
%ADD10R,0.0380X0.0320*%
%ADD11R,0.0220X0.0220*%
%ADD12R,0.0320X0.0380*%
%ADD13O,0.0618X0.0787*%
%ADD14R,0.0618X0.0787*%
%ADD15R,0.2000X0.0500*%
%ADD16R,0.1500X0.0300*%
%ADD17C,0.0640*%
%ADD18R,0.0480X0.0400*%
%ADD19O,0.0940X0.0250*%
%ADD20R,0.0940X0.0250*%
%ADD21R,0.0100X0.0200*%
%ADD22R,0.1063X0.1063*%
%ADD23R,0.0200X0.0100*%
%ADD24R,0.0300X0.0330*%
%ADD25C,0.0150*%
%ADD26C,0.0650*%
%ADD27C,0.0010*%
%ADD28C,0.0100*%
%ADD29C,0.0200*%
%ADD30C,0.0060*%
%ADD31C,0.0080*%
%ADD32O,0.0620X0.0790*%
%ADD33R,0.0620X0.0790*%
%ADD34C,0.0700*%
%ADD35R,0.2500X0.1000*%
%ADD36R,0.1600X0.0350*%
%ADD37C,0.0690*%
%ADD38R,0.0080X0.0200*%
%ADD39R,0.0200X0.0080*%
%ADD40C,0.0800*%
%ADD41R,0.2100X0.0600*%
%ADD42R,0.0984X0.0984*%
%ADD43C,0.0100*%
%ADD44C,0.0040*%
%ADD45C,0.0030*%
%ADD46C,0.0020*%
%ADD47C,0.0015*%
%ADD48C,0.0070*%
*
G04 Plot Data ***
*
G54D27*
G01X0017550Y0029637D02*
X0017061D01*
X0017550Y0029628D02*
X0017053D01*
X0017550Y0029619D02*
X0017045D01*
X0017550Y0029610D02*
X0017037D01*
X0017550Y0029601D02*
X0017028D01*
X0017550Y0029592D02*
X0017020D01*
X0017550Y0029583D02*
X0017012D01*
X0017550Y0029574D02*
X0017004D01*
X0017550Y0029565D02*
X0016995D01*
X0017550Y0029556D02*
X0016987D01*
X0017550Y0029547D02*
X0016979D01*
X0017550Y0029538D02*
X0016971D01*
X0017550Y0029529D02*
X0016963D01*
X0017550Y0029520D02*
X0016954D01*
X0017550Y0029511D02*
X0016946D01*
X0017550Y0029502D02*
X0016937D01*
X0017550Y0029493D02*
X0016928D01*
X0017550Y0029484D02*
X0016919D01*
X0017550Y0029475D02*
X0016910D01*
X0017550Y0029466D02*
X0016901D01*
X0017550Y0029457D02*
X0016892D01*
X0017550Y0029448D02*
X0016883D01*
X0017550Y0029439D02*
X0016872D01*
X0017550Y0029430D02*
X0016860D01*
X0017550Y0029421D02*
X0016848D01*
X0017550Y0029412D02*
X0016836D01*
X0017550Y0029403D02*
X0016824D01*
X0017550Y0029394D02*
X0016812D01*
X0017550Y0029385D02*
X0016800D01*
X0017550Y0029376D02*
X0016782D01*
X0017550Y0029367D02*
X0016764D01*
X0017550Y0029358D02*
X0016746D01*
X0017550Y0029349D02*
X0016728D01*
X0017550Y0029340D02*
X0016710D01*
X0017550Y0029331D02*
X0016683D01*
X0017550Y0029322D02*
X0016644D01*
X0017550Y0029313D02*
X0016605D01*
X0017518Y0028449D02*
X0017482D01*
X0017550Y0029965D02*
Y0028515D01*
X0017520Y0029995D02*
X0017550Y0029965D01*
X0017490Y0030005D02*
X0017520Y0029995D01*
X0017460Y0030015D02*
X0017490Y0030005D01*
X0017460Y0030015D02*
X0017420Y0030005D01*
X0017370Y0029975D01*
X0016950Y0029515D01*
X0016880Y0029445D01*
X0016800Y0029385D01*
X0016700Y0029335D01*
X0016570Y0029305D01*
X0016480D01*
X0016380Y0029325D02*
X0016480Y0029305D01*
X0016300Y0029355D02*
X0016380Y0029325D01*
X0016210Y0029415D02*
X0016300Y0029355D01*
X0016160Y0029445D02*
X0016210Y0029415D01*
X0016120Y0029485D02*
X0016160Y0029445D01*
X0016080Y0029535D02*
X0016120Y0029485D01*
X0016040Y0029595D02*
X0016080Y0029535D01*
X0016020Y0029645D02*
X0016040Y0029595D01*
X0016020Y0029645D02*
X0015660D01*
Y0029515D01*
X0015670Y0029465D01*
X0015690Y0029395D01*
X0015720Y0029335D01*
X0015760Y0029275D01*
X0015800Y0029215D01*
X0015850Y0029165D01*
X0015920Y0029105D01*
X0017450Y0028465D01*
X0017490Y0028445D01*
X0017510D02*
X0017490D01*
X0017530Y0028455D02*
X0017510Y0028445D01*
X0017540Y0028465D02*
X0017530Y0028455D01*
X0017550Y0028495D02*
X0017540Y0028465D01*
X0017550Y0028515D02*
Y0028495D01*
X0017545Y0029970D02*
Y0028480D01*
X0017536Y0029979D02*
Y0028461D01*
X0017527Y0029988D02*
Y0028453D01*
X0017518Y0029996D02*
Y0028449D01*
X0017509Y0029999D02*
Y0028445D01*
X0017500Y0030002D02*
Y0028445D01*
X0017491Y0030005D02*
Y0028445D01*
X0017482Y0030008D02*
Y0028449D01*
X0017473Y0030011D02*
Y0028453D01*
X0017464Y0030014D02*
Y0028458D01*
X0017455Y0030014D02*
Y0028462D01*
X0017446Y0030011D02*
Y0028467D01*
X0017437Y0030009D02*
Y0028470D01*
X0017428Y0030007D02*
Y0028474D01*
X0017419Y0030005D02*
Y0028478D01*
X0017410Y0029999D02*
Y0028482D01*
X0017401Y0029993D02*
Y0028485D01*
X0017392Y0029988D02*
Y0028489D01*
X0017383Y0029983D02*
Y0028493D01*
X0017374Y0029977D02*
Y0028497D01*
X0017365Y0029969D02*
Y0028500D01*
X0017356Y0029960D02*
Y0028504D01*
X0017347Y0029950D02*
Y0028508D01*
X0017338Y0029940D02*
Y0028512D01*
X0017329Y0029930D02*
Y0028515D01*
X0017320Y0029920D02*
Y0028519D01*
X0017311Y0029910D02*
Y0028523D01*
X0017302Y0029900D02*
Y0028527D01*
X0017293Y0029891D02*
Y0028531D01*
X0017284Y0029881D02*
Y0028534D01*
X0017275Y0029871D02*
Y0028538D01*
X0017266Y0029861D02*
Y0028542D01*
X0017257Y0029851D02*
Y0028546D01*
X0017248Y0029841D02*
Y0028549D01*
X0017239Y0029831D02*
Y0028553D01*
X0017230Y0029822D02*
Y0028557D01*
X0017221Y0029812D02*
Y0028561D01*
X0017212Y0029802D02*
Y0028564D01*
X0017203Y0029792D02*
Y0028568D01*
X0017194Y0029782D02*
Y0028572D01*
X0017185Y0029772D02*
Y0028576D01*
X0017176Y0029762D02*
Y0028579D01*
X0017167Y0029753D02*
Y0028583D01*
X0017158Y0029743D02*
Y0028587D01*
X0017149Y0029733D02*
Y0028591D01*
X0017140Y0029723D02*
Y0028595D01*
X0017131Y0029713D02*
Y0028598D01*
X0017122Y0029703D02*
Y0028602D01*
X0017113Y0029693D02*
Y0028606D01*
X0017104Y0029684D02*
Y0028610D01*
X0017095Y0029674D02*
Y0028613D01*
X0017086Y0029664D02*
Y0028617D01*
X0017077Y0029654D02*
Y0028621D01*
X0017068Y0029644D02*
Y0028625D01*
X0017059Y0029634D02*
Y0028628D01*
X0017050Y0029624D02*
Y0028632D01*
X0017041Y0029615D02*
Y0028636D01*
X0017032Y0029605D02*
Y0028640D01*
X0017023Y0029595D02*
Y0028643D01*
X0017014Y0029585D02*
Y0028647D01*
X0017005Y0029575D02*
Y0028651D01*
X0016996Y0029565D02*
Y0028655D01*
X0016987Y0029555D02*
Y0028659D01*
X0016978Y0029546D02*
Y0028662D01*
X0016969Y0029536D02*
Y0028666D01*
X0016960Y0029526D02*
Y0028670D01*
X0016951Y0029516D02*
Y0028674D01*
X0016942Y0029507D02*
Y0028677D01*
X0016933Y0029498D02*
Y0028681D01*
X0016924Y0029489D02*
Y0028685D01*
X0016915Y0029480D02*
Y0028689D01*
X0016906Y0029471D02*
Y0028692D01*
X0016897Y0029462D02*
Y0028696D01*
X0016888Y0029453D02*
Y0028700D01*
X0016879Y0029444D02*
Y0028704D01*
X0016870Y0029437D02*
Y0028707D01*
X0016861Y0029431D02*
Y0028711D01*
X0016852Y0029424D02*
Y0028715D01*
X0016843Y0029417D02*
Y0028719D01*
X0016834Y0029410D02*
Y0028723D01*
X0016825Y0029404D02*
Y0028726D01*
X0016816Y0029397D02*
Y0028730D01*
X0016807Y0029390D02*
Y0028734D01*
X0016798Y0029384D02*
Y0028738D01*
X0016789Y0029379D02*
Y0028741D01*
X0016780Y0029375D02*
Y0028745D01*
X0016771Y0029370D02*
Y0028749D01*
X0016762Y0029366D02*
Y0028753D01*
X0016753Y0029361D02*
Y0028756D01*
X0016744Y0029357D02*
Y0028760D01*
X0016735Y0029352D02*
Y0028764D01*
X0016726Y0029348D02*
Y0028768D01*
X0016717Y0029343D02*
Y0028771D01*
X0016708Y0029339D02*
Y0028775D01*
X0016699Y0029335D02*
Y0028779D01*
X0016690Y0029333D02*
Y0028783D01*
X0016681Y0029330D02*
Y0028787D01*
X0016672Y0029328D02*
Y0028790D01*
X0016663Y0029326D02*
Y0028794D01*
X0016654Y0029324D02*
Y0028798D01*
X0016645Y0029322D02*
Y0028802D01*
X0016636Y0029320D02*
Y0028805D01*
X0016627Y0029318D02*
Y0028809D01*
X0016618Y0029316D02*
Y0028813D01*
X0016609Y0029314D02*
Y0028817D01*
X0016600Y0029312D02*
Y0028820D01*
X0016591Y0029310D02*
Y0028824D01*
X0016582Y0029308D02*
Y0028828D01*
X0016573Y0029306D02*
Y0028832D01*
X0016564Y0029305D02*
Y0028835D01*
X0016555Y0029305D02*
Y0028839D01*
X0016546Y0029305D02*
Y0028843D01*
X0016537Y0029305D02*
Y0028847D01*
X0016528Y0029305D02*
Y0028851D01*
X0016519Y0029305D02*
Y0028854D01*
X0016510Y0029305D02*
Y0028858D01*
X0016501Y0029305D02*
Y0028862D01*
X0016492Y0029305D02*
Y0028866D01*
X0016483Y0029305D02*
Y0028869D01*
X0016474Y0029306D02*
Y0028873D01*
X0016465Y0029308D02*
Y0028877D01*
X0016456Y0029310D02*
Y0028881D01*
X0016447Y0029311D02*
Y0028884D01*
X0016438Y0029313D02*
Y0028888D01*
X0016429Y0029315D02*
Y0028892D01*
X0016420Y0029317D02*
Y0028896D01*
X0016411Y0029319D02*
Y0028899D01*
X0016402Y0029320D02*
Y0028903D01*
X0016393Y0029322D02*
Y0028907D01*
X0016384Y0029324D02*
Y0028911D01*
X0016375Y0029327D02*
Y0028915D01*
X0016366Y0029330D02*
Y0028918D01*
X0016357Y0029333D02*
Y0028922D01*
X0016348Y0029337D02*
Y0028926D01*
X0016339Y0029340D02*
Y0028930D01*
X0016330Y0029344D02*
Y0028933D01*
X0016321Y0029347D02*
Y0028937D01*
X0016312Y0029350D02*
Y0028941D01*
X0016303Y0029354D02*
Y0028945D01*
X0016294Y0029359D02*
Y0028948D01*
X0016285Y0029365D02*
Y0028952D01*
X0016276Y0029371D02*
Y0028956D01*
X0016267Y0029377D02*
Y0028960D01*
X0016258Y0029383D02*
Y0028963D01*
X0016249Y0029389D02*
Y0028967D01*
X0016240Y0029395D02*
Y0028971D01*
X0016231Y0029401D02*
Y0028975D01*
X0016222Y0029407D02*
Y0028979D01*
X0016213Y0029413D02*
Y0028982D01*
X0016204Y0029418D02*
Y0028986D01*
X0016195Y0029424D02*
Y0028990D01*
X0016186Y0029429D02*
Y0028994D01*
X0016177Y0029435D02*
Y0028997D01*
X0016168Y0029440D02*
Y0029001D01*
X0016159Y0029446D02*
Y0029005D01*
X0016150Y0029455D02*
Y0029009D01*
X0016141Y0029464D02*
Y0029012D01*
X0016132Y0029473D02*
Y0029016D01*
X0016123Y0029482D02*
Y0029020D01*
X0016114Y0029492D02*
Y0029024D01*
X0016105Y0029504D02*
Y0029027D01*
X0016096Y0029515D02*
Y0029031D01*
X0016087Y0029526D02*
Y0029035D01*
X0016078Y0029538D02*
Y0029039D01*
X0016069Y0029551D02*
Y0029043D01*
X0016060Y0029565D02*
Y0029046D01*
X0016051Y0029578D02*
Y0029050D01*
X0016042Y0029592D02*
Y0029054D01*
X0016033Y0029612D02*
Y0029058D01*
X0016024Y0029635D02*
Y0029061D01*
X0016015Y0029645D02*
Y0029065D01*
X0016006Y0029645D02*
Y0029069D01*
X0015997Y0029645D02*
Y0029073D01*
X0015988Y0029645D02*
Y0029076D01*
X0015979Y0029645D02*
Y0029080D01*
X0015970Y0029645D02*
Y0029084D01*
X0015961Y0029645D02*
Y0029088D01*
X0015952Y0029645D02*
Y0029091D01*
X0015943Y0029645D02*
Y0029095D01*
X0015934Y0029645D02*
Y0029099D01*
X0015925Y0029645D02*
Y0029103D01*
X0015916Y0029645D02*
Y0029108D01*
X0015907Y0029645D02*
Y0029116D01*
X0015898Y0029645D02*
Y0029124D01*
X0015889Y0029645D02*
Y0029131D01*
X0015880Y0029645D02*
Y0029139D01*
X0015871Y0029645D02*
Y0029147D01*
X0015862Y0029645D02*
Y0029155D01*
X0015853Y0029645D02*
Y0029162D01*
X0015844Y0029645D02*
Y0029171D01*
X0015835Y0029645D02*
Y0029180D01*
X0015826Y0029645D02*
Y0029189D01*
X0015817Y0029645D02*
Y0029198D01*
X0015808Y0029645D02*
Y0029207D01*
X0015799Y0029645D02*
Y0029216D01*
X0015790Y0029645D02*
Y0029230D01*
X0015781Y0029645D02*
Y0029243D01*
X0015772Y0029645D02*
Y0029257D01*
X0015763Y0029645D02*
Y0029270D01*
X0015754Y0029645D02*
Y0029284D01*
X0015745Y0029645D02*
Y0029297D01*
X0015736Y0029645D02*
Y0029311D01*
X0015727Y0029645D02*
Y0029324D01*
X0015718Y0029645D02*
Y0029339D01*
X0015709Y0029645D02*
Y0029357D01*
X0015700Y0029645D02*
Y0029375D01*
X0015691Y0029645D02*
Y0029393D01*
X0015682Y0029645D02*
Y0029423D01*
X0015673Y0029645D02*
Y0029454D01*
X0015664Y0029645D02*
Y0029495D01*
X0017487Y0030006D02*
X0017424D01*
X0017514Y0029997D02*
X0017407D01*
X0017527Y0029988D02*
X0017392D01*
X0017536Y0029979D02*
X0017377D01*
X0017545Y0029970D02*
X0017365D01*
X0017550Y0029961D02*
X0017357D01*
X0017550Y0029952D02*
X0017349D01*
X0017550Y0029943D02*
X0017341D01*
X0017550Y0029934D02*
X0017332D01*
X0017550Y0029925D02*
X0017324D01*
X0017550Y0029916D02*
X0017316D01*
X0017550Y0029907D02*
X0017308D01*
X0017550Y0029898D02*
X0017300D01*
X0017550Y0029889D02*
X0017291D01*
X0017550Y0029880D02*
X0017283D01*
X0017550Y0029871D02*
X0017275D01*
X0017550Y0029862D02*
X0017267D01*
X0017550Y0029853D02*
X0017258D01*
X0017550Y0029844D02*
X0017250D01*
X0017550Y0029835D02*
X0017242D01*
X0017550Y0029826D02*
X0017234D01*
X0017550Y0029817D02*
X0017226D01*
X0017550Y0029808D02*
X0017217D01*
X0017550Y0029799D02*
X0017209D01*
X0017550Y0029790D02*
X0017201D01*
X0017550Y0029781D02*
X0017193D01*
X0017550Y0029772D02*
X0017184D01*
X0017550Y0029763D02*
X0017176D01*
X0017550Y0029754D02*
X0017168D01*
X0017550Y0029745D02*
X0017160D01*
X0017550Y0029736D02*
X0017152D01*
X0017550Y0029727D02*
X0017143D01*
X0017550Y0029718D02*
X0017135D01*
X0017550Y0029709D02*
X0017127D01*
X0017550Y0029700D02*
X0017119D01*
X0017550Y0029691D02*
X0017111D01*
X0017550Y0029682D02*
X0017102D01*
X0017550Y0029673D02*
X0017094D01*
X0017550Y0029664D02*
X0017086D01*
X0017550Y0029655D02*
X0017078D01*
X0017550Y0029646D02*
X0017069D01*
X0016023Y0029637D02*
X0015660D01*
X0016027Y0029628D02*
X0015660D01*
X0016030Y0029619D02*
X0015660D01*
X0016034Y0029610D02*
X0015660D01*
X0016037Y0029601D02*
X0015660D01*
X0016042Y0029592D02*
X0015660D01*
X0016048Y0029583D02*
X0015660D01*
X0016054Y0029574D02*
X0015660D01*
X0016060Y0029565D02*
X0015660D01*
X0016066Y0029556D02*
X0015660D01*
X0016072Y0029547D02*
X0015660D01*
X0016078Y0029538D02*
X0015660D01*
X0016085Y0029529D02*
X0015660D01*
X0016092Y0029520D02*
X0015660D01*
X0016099Y0029511D02*
X0015661D01*
X0016106Y0029502D02*
X0015662D01*
X0016113Y0029493D02*
X0015664D01*
X0016121Y0029484D02*
X0015666D01*
X0016130Y0029475D02*
X0015668D01*
X0016139Y0029466D02*
X0015670D01*
X0016148Y0029457D02*
X0015672D01*
X0016157Y0029448D02*
X0015675D01*
X0016170Y0029439D02*
X0015677D01*
X0016185Y0029430D02*
X0015680D01*
X0016200Y0029421D02*
X0015682D01*
X0016214Y0029412D02*
X0015685D01*
X0016228Y0029403D02*
X0015688D01*
X0016241Y0029394D02*
X0015690D01*
X0016255Y0029385D02*
X0015695D01*
X0016268Y0029376D02*
X0015699D01*
X0016282Y0029367D02*
X0015704D01*
X0016295Y0029358D02*
X0015708D01*
X0016316Y0029349D02*
X0015713D01*
X0016340Y0029340D02*
X0015717D01*
X0016364Y0029331D02*
X0015723D01*
X0016395Y0029322D02*
X0015729D01*
X0016440Y0029313D02*
X0015735D01*
X0017550Y0029304D02*
X0015741D01*
X0017550Y0029295D02*
X0015747D01*
X0017550Y0029286D02*
X0015753D01*
X0017550Y0029277D02*
X0015759D01*
X0017550Y0029268D02*
X0015765D01*
X0017550Y0029259D02*
X0015771D01*
X0017550Y0029250D02*
X0015777D01*
X0017550Y0029241D02*
X0015783D01*
X0017550Y0029232D02*
X0015789D01*
X0017550Y0029223D02*
X0015795D01*
X0017550Y0029214D02*
X0015801D01*
X0017550Y0029205D02*
X0015810D01*
X0017550Y0029196D02*
X0015819D01*
X0017550Y0029187D02*
X0015828D01*
X0017550Y0029178D02*
X0015837D01*
X0017550Y0029169D02*
X0015846D01*
X0017550Y0029160D02*
X0015856D01*
X0017550Y0029151D02*
X0015866D01*
X0017550Y0029142D02*
X0015877D01*
X0017550Y0029133D02*
X0015887D01*
X0017550Y0029124D02*
X0015898D01*
X0017550Y0029115D02*
X0015908D01*
X0017550Y0029106D02*
X0015919D01*
X0017550Y0029097D02*
X0015939D01*
X0017550Y0029088D02*
X0015960D01*
X0017550Y0029079D02*
X0015982D01*
X0017550Y0029070D02*
X0016004D01*
X0017550Y0029061D02*
X0016025D01*
X0017550Y0029052D02*
X0016047D01*
X0017550Y0029043D02*
X0016068D01*
X0017550Y0029034D02*
X0016090D01*
X0017550Y0029025D02*
X0016111D01*
X0017550Y0029016D02*
X0016133D01*
X0017550Y0029007D02*
X0016154D01*
X0017550Y0028998D02*
X0016176D01*
X0017550Y0028989D02*
X0016197D01*
X0017550Y0028980D02*
X0016219D01*
X0017550Y0028971D02*
X0016240D01*
X0017550Y0028962D02*
X0016262D01*
X0017550Y0028953D02*
X0016283D01*
X0017550Y0028944D02*
X0016305D01*
X0017550Y0028935D02*
X0016326D01*
X0017550Y0028926D02*
X0016348D01*
X0017550Y0028917D02*
X0016369D01*
X0017550Y0028908D02*
X0016391D01*
X0017550Y0028899D02*
X0016412D01*
X0017550Y0028890D02*
X0016434D01*
X0017550Y0028881D02*
X0016455D01*
X0017550Y0028872D02*
X0016477D01*
X0017550Y0028863D02*
X0016498D01*
X0017550Y0028854D02*
X0016520D01*
X0017550Y0028845D02*
X0016541D01*
X0017550Y0028836D02*
X0016563D01*
X0017550Y0028827D02*
X0016584D01*
X0017550Y0028818D02*
X0016606D01*
X0017550Y0028809D02*
X0016627D01*
X0017550Y0028800D02*
X0016649D01*
X0017550Y0028791D02*
X0016670D01*
X0017550Y0028782D02*
X0016692D01*
X0017550Y0028773D02*
X0016714D01*
X0017550Y0028764D02*
X0016735D01*
X0017550Y0028755D02*
X0016757D01*
X0017550Y0028746D02*
X0016778D01*
X0017550Y0028737D02*
X0016800D01*
X0017550Y0028728D02*
X0016821D01*
X0017550Y0028719D02*
X0016843D01*
X0017550Y0028710D02*
X0016864D01*
X0017550Y0028701D02*
X0016886D01*
X0017550Y0028692D02*
X0016907D01*
X0017550Y0028683D02*
X0016929D01*
X0017550Y0028674D02*
X0016950D01*
X0017550Y0028665D02*
X0016972D01*
X0017550Y0028656D02*
X0016993D01*
X0017550Y0028647D02*
X0017015D01*
X0017550Y0028638D02*
X0017036D01*
X0017550Y0028629D02*
X0017058D01*
X0017550Y0028620D02*
X0017079D01*
X0017550Y0028611D02*
X0017101D01*
X0017550Y0028602D02*
X0017122D01*
X0017550Y0028593D02*
X0017144D01*
X0017550Y0028584D02*
X0017165D01*
X0017550Y0028575D02*
X0017187D01*
X0017550Y0028566D02*
X0017208D01*
X0017550Y0028557D02*
X0017230D01*
X0017550Y0028548D02*
X0017251D01*
X0017550Y0028539D02*
X0017273D01*
X0017550Y0028530D02*
X0017294D01*
X0017550Y0028521D02*
X0017316D01*
X0017550Y0028512D02*
X0017337D01*
X0017550Y0028503D02*
X0017359D01*
X0017550Y0028494D02*
X0017381D01*
X0017547Y0028485D02*
X0017402D01*
X0017544Y0028476D02*
X0017424D01*
X0017541Y0028467D02*
X0017445D01*
X0017533Y0028458D02*
X0017464D01*
X0016020Y0029645D02*
X0015660D01*
X0016010Y0029675D02*
X0016020Y0029645D01*
X0015990Y0029735D02*
X0016010Y0029675D01*
X0015980Y0029795D02*
X0015990Y0029735D01*
X0015980Y0032685D02*
Y0029795D01*
X0015960Y0032705D02*
X0015980Y0032685D01*
X0015940Y0032715D02*
X0015960Y0032705D01*
X0015690Y0032815D02*
X0015940Y0032715D01*
X0015690Y0032815D02*
X0015680D01*
X0015660Y0032805D01*
Y0029645D01*
X0016015Y0029660D02*
Y0029645D01*
X0016006Y0029687D02*
Y0029645D01*
X0015997Y0029714D02*
Y0029645D01*
X0015988Y0029747D02*
Y0029645D01*
X0015979Y0032686D02*
Y0029645D01*
X0015970Y0032695D02*
Y0029645D01*
X0015961Y0032704D02*
Y0029645D01*
X0015952Y0032709D02*
Y0029645D01*
X0015943Y0032713D02*
Y0029645D01*
X0015934Y0032717D02*
Y0029645D01*
X0015925Y0032721D02*
Y0029645D01*
X0015916Y0032724D02*
Y0029645D01*
X0015907Y0032728D02*
Y0029645D01*
X0015898Y0032732D02*
Y0029645D01*
X0015889Y0032735D02*
Y0029645D01*
X0015880Y0032739D02*
Y0029645D01*
X0015871Y0032742D02*
Y0029645D01*
X0015862Y0032746D02*
Y0029645D01*
X0015853Y0032750D02*
Y0029645D01*
X0015844Y0032753D02*
Y0029645D01*
X0015835Y0032757D02*
Y0029645D01*
X0015826Y0032760D02*
Y0029645D01*
X0015817Y0032764D02*
Y0029645D01*
X0015808Y0032768D02*
Y0029645D01*
X0015799Y0032771D02*
Y0029645D01*
X0015790Y0032775D02*
Y0029645D01*
X0015781Y0032778D02*
Y0029645D01*
X0015772Y0032782D02*
Y0029645D01*
X0015763Y0032786D02*
Y0029645D01*
X0015754Y0032789D02*
Y0029645D01*
X0015745Y0032793D02*
Y0029645D01*
X0015736Y0032796D02*
Y0029645D01*
X0015727Y0032800D02*
Y0029645D01*
X0015718Y0032804D02*
Y0029645D01*
X0015709Y0032807D02*
Y0029645D01*
X0015700Y0032811D02*
Y0029645D01*
X0015691Y0032815D02*
Y0029645D01*
X0015682Y0032815D02*
Y0029645D01*
X0015673Y0032811D02*
Y0029645D01*
X0015707Y0032808D02*
X0015666D01*
X0015730Y0032799D02*
X0015660D01*
X0015752Y0032790D02*
X0015660D01*
X0015775Y0032781D02*
X0015660D01*
X0015797Y0032772D02*
X0015660D01*
X0015820Y0032763D02*
X0015660D01*
X0015842Y0032754D02*
X0015660D01*
X0015865Y0032745D02*
X0015660D01*
X0015887Y0032736D02*
X0015660D01*
X0015910Y0032727D02*
X0015660D01*
X0015932Y0032718D02*
X0015660D01*
X0015952Y0032709D02*
X0015660D01*
X0015965Y0032700D02*
X0015660D01*
X0015974Y0032691D02*
X0015660D01*
X0015980Y0032682D02*
X0015660D01*
X0015980Y0032673D02*
X0015660D01*
X0015980Y0032664D02*
X0015660D01*
X0015980Y0032655D02*
X0015660D01*
X0015980Y0032646D02*
X0015660D01*
X0015980Y0032637D02*
X0015660D01*
X0015980Y0032628D02*
X0015660D01*
X0015980Y0032619D02*
X0015660D01*
X0015980Y0032610D02*
X0015660D01*
X0015980Y0032601D02*
X0015660D01*
X0015980Y0032592D02*
X0015660D01*
X0015980Y0032583D02*
X0015660D01*
X0015980Y0032574D02*
X0015660D01*
X0015980Y0032565D02*
X0015660D01*
X0015980Y0032556D02*
X0015660D01*
X0015980Y0032547D02*
X0015660D01*
X0015980Y0032538D02*
X0015660D01*
X0015980Y0032529D02*
X0015660D01*
X0015980Y0032520D02*
X0015660D01*
X0015980Y0032511D02*
X0015660D01*
X0015980Y0032502D02*
X0015660D01*
X0015980Y0032493D02*
X0015660D01*
X0015980Y0032484D02*
X0015660D01*
X0015980Y0032475D02*
X0015660D01*
X0015980Y0032466D02*
X0015660D01*
X0015980Y0032457D02*
X0015660D01*
X0015980Y0032448D02*
X0015660D01*
X0015980Y0032439D02*
X0015660D01*
X0015980Y0032430D02*
X0015660D01*
X0015980Y0032421D02*
X0015660D01*
X0015980Y0032412D02*
X0015660D01*
X0015980Y0032403D02*
X0015660D01*
X0015980Y0032394D02*
X0015660D01*
X0015980Y0032385D02*
X0015660D01*
X0015980Y0032376D02*
X0015660D01*
X0015980Y0032367D02*
X0015660D01*
X0015980Y0032358D02*
X0015660D01*
X0015980Y0032349D02*
X0015660D01*
X0015980Y0032340D02*
X0015660D01*
X0015980Y0032331D02*
X0015660D01*
X0015980Y0032322D02*
X0015660D01*
X0015980Y0032313D02*
X0015660D01*
X0015980Y0032304D02*
X0015660D01*
X0015980Y0032295D02*
X0015660D01*
X0015980Y0032286D02*
X0015660D01*
X0015980Y0032277D02*
X0015660D01*
X0015980Y0032268D02*
X0015660D01*
X0015980Y0032259D02*
X0015660D01*
X0015980Y0032250D02*
X0015660D01*
X0015980Y0032241D02*
X0015660D01*
X0015980Y0032232D02*
X0015660D01*
X0015980Y0032223D02*
X0015660D01*
X0015980Y0032214D02*
X0015660D01*
X0015980Y0032205D02*
X0015660D01*
X0015980Y0032196D02*
X0015660D01*
X0015980Y0032187D02*
X0015660D01*
X0015980Y0032178D02*
X0015660D01*
X0015980Y0032169D02*
X0015660D01*
X0015980Y0032160D02*
X0015660D01*
X0015980Y0032151D02*
X0015660D01*
X0015980Y0032142D02*
X0015660D01*
X0015980Y0032133D02*
X0015660D01*
X0015980Y0032124D02*
X0015660D01*
X0015980Y0032115D02*
X0015660D01*
X0015980Y0032106D02*
X0015660D01*
X0015980Y0032097D02*
X0015660D01*
X0015980Y0032088D02*
X0015660D01*
X0015980Y0032079D02*
X0015660D01*
X0015980Y0032070D02*
X0015660D01*
X0015980Y0032061D02*
X0015660D01*
X0015980Y0032052D02*
X0015660D01*
X0015980Y0032043D02*
X0015660D01*
X0015980Y0032034D02*
X0015660D01*
X0015980Y0032025D02*
X0015660D01*
X0015980Y0032016D02*
X0015660D01*
X0015980Y0032007D02*
X0015660D01*
X0015980Y0031998D02*
X0015660D01*
X0015980Y0031989D02*
X0015660D01*
X0015980Y0031980D02*
X0015660D01*
X0015980Y0031971D02*
X0015660D01*
X0015980Y0031962D02*
X0015660D01*
X0015980Y0031953D02*
X0015660D01*
X0015980Y0031944D02*
X0015660D01*
X0015980Y0031935D02*
X0015660D01*
X0015980Y0031926D02*
X0015660D01*
X0015980Y0031917D02*
X0015660D01*
X0015980Y0031908D02*
X0015660D01*
X0015980Y0031899D02*
X0015660D01*
X0015980Y0031890D02*
X0015660D01*
X0015980Y0031881D02*
X0015660D01*
X0015980Y0031872D02*
X0015660D01*
X0015980Y0031863D02*
X0015660D01*
X0015980Y0031854D02*
X0015660D01*
X0015980Y0031845D02*
X0015660D01*
X0015980Y0031836D02*
X0015660D01*
X0015980Y0031827D02*
X0015660D01*
X0015980Y0031818D02*
X0015660D01*
X0015980Y0031809D02*
X0015660D01*
X0015980Y0031800D02*
X0015660D01*
X0015980Y0031791D02*
X0015660D01*
X0015980Y0031782D02*
X0015660D01*
X0015980Y0031773D02*
X0015660D01*
X0015980Y0031764D02*
X0015660D01*
X0015980Y0031755D02*
X0015660D01*
X0015980Y0031746D02*
X0015660D01*
X0015980Y0031737D02*
X0015660D01*
X0015980Y0031728D02*
X0015660D01*
X0015980Y0031719D02*
X0015660D01*
X0015980Y0031710D02*
X0015660D01*
X0015980Y0031701D02*
X0015660D01*
X0015980Y0031692D02*
X0015660D01*
X0015980Y0031683D02*
X0015660D01*
X0015980Y0031674D02*
X0015660D01*
X0015980Y0031665D02*
X0015660D01*
X0015980Y0031656D02*
X0015660D01*
X0015980Y0031647D02*
X0015660D01*
X0015980Y0031638D02*
X0015660D01*
X0015980Y0031629D02*
X0015660D01*
X0015980Y0031620D02*
X0015660D01*
X0015980Y0031611D02*
X0015660D01*
X0015980Y0031602D02*
X0015660D01*
X0015980Y0031593D02*
X0015660D01*
X0015980Y0031584D02*
X0015660D01*
X0015980Y0031575D02*
X0015660D01*
X0015980Y0031566D02*
X0015660D01*
X0015980Y0031557D02*
X0015660D01*
X0015980Y0031548D02*
X0015660D01*
X0015980Y0031539D02*
X0015660D01*
X0015980Y0031530D02*
X0015660D01*
X0015980Y0031521D02*
X0015660D01*
X0015980Y0031512D02*
X0015660D01*
X0015980Y0031503D02*
X0015660D01*
X0015980Y0031494D02*
X0015660D01*
X0015980Y0031485D02*
X0015660D01*
X0015980Y0031476D02*
X0015660D01*
X0015980Y0031467D02*
X0015660D01*
X0015980Y0031458D02*
X0015660D01*
X0015980Y0031449D02*
X0015660D01*
X0015980Y0031440D02*
X0015660D01*
X0015980Y0031431D02*
X0015660D01*
X0015980Y0031422D02*
X0015660D01*
X0015980Y0031413D02*
X0015660D01*
X0015980Y0031404D02*
X0015660D01*
X0015980Y0031395D02*
X0015660D01*
X0015980Y0031386D02*
X0015660D01*
X0015980Y0031377D02*
X0015660D01*
X0015980Y0031368D02*
X0015660D01*
X0015980Y0031359D02*
X0015660D01*
X0015980Y0031350D02*
X0015660D01*
X0015980Y0031341D02*
X0015660D01*
X0015980Y0031332D02*
X0015660D01*
X0015980Y0031323D02*
X0015660D01*
X0015980Y0031314D02*
X0015660D01*
X0015980Y0031305D02*
X0015660D01*
X0015980Y0031296D02*
X0015660D01*
X0015980Y0031287D02*
X0015660D01*
X0015980Y0031278D02*
X0015660D01*
X0015980Y0031269D02*
X0015660D01*
X0015980Y0031260D02*
X0015660D01*
X0015980Y0031251D02*
X0015660D01*
X0015980Y0031242D02*
X0015660D01*
X0015980Y0031233D02*
X0015660D01*
X0015980Y0031224D02*
X0015660D01*
X0015980Y0031215D02*
X0015660D01*
X0015980Y0031206D02*
X0015660D01*
X0015980Y0031197D02*
X0015660D01*
X0015980Y0031188D02*
X0015660D01*
X0015980Y0031179D02*
X0015660D01*
X0015980Y0031170D02*
X0015660D01*
X0015980Y0031161D02*
X0015660D01*
X0015980Y0031152D02*
X0015660D01*
X0015980Y0031143D02*
X0015660D01*
X0015980Y0031134D02*
X0015660D01*
X0015980Y0031125D02*
X0015660D01*
X0015980Y0031116D02*
X0015660D01*
X0015980Y0031107D02*
X0015660D01*
X0015980Y0031098D02*
X0015660D01*
X0015980Y0031089D02*
X0015660D01*
X0015980Y0031080D02*
X0015660D01*
X0015980Y0031071D02*
X0015660D01*
X0015980Y0031062D02*
X0015660D01*
X0015980Y0031053D02*
X0015660D01*
X0015980Y0031044D02*
X0015660D01*
X0015980Y0031035D02*
X0015660D01*
X0015980Y0031026D02*
X0015660D01*
X0015980Y0031017D02*
X0015660D01*
X0015980Y0031008D02*
X0015660D01*
X0015980Y0030999D02*
X0015660D01*
X0015980Y0030990D02*
X0015660D01*
X0015980Y0030981D02*
X0015660D01*
X0015980Y0030972D02*
X0015660D01*
X0015980Y0030963D02*
X0015660D01*
X0015980Y0030954D02*
X0015660D01*
X0015980Y0030945D02*
X0015660D01*
X0015980Y0030936D02*
X0015660D01*
X0015980Y0030927D02*
X0015660D01*
X0015980Y0030918D02*
X0015660D01*
X0015980Y0030909D02*
X0015660D01*
X0015980Y0030900D02*
X0015660D01*
X0015980Y0030891D02*
X0015660D01*
X0015980Y0030882D02*
X0015660D01*
X0015980Y0030873D02*
X0015660D01*
X0015980Y0030864D02*
X0015660D01*
X0015980Y0030855D02*
X0015660D01*
X0015980Y0030846D02*
X0015660D01*
X0015980Y0030837D02*
X0015660D01*
X0015980Y0030828D02*
X0015660D01*
X0015980Y0030819D02*
X0015660D01*
X0015980Y0030810D02*
X0015660D01*
X0015980Y0030801D02*
X0015660D01*
X0015980Y0030792D02*
X0015660D01*
X0015980Y0030783D02*
X0015660D01*
X0015980Y0030774D02*
X0015660D01*
X0015980Y0030765D02*
X0015660D01*
X0015980Y0030756D02*
X0015660D01*
X0015980Y0030747D02*
X0015660D01*
X0015980Y0030738D02*
X0015660D01*
X0015980Y0030729D02*
X0015660D01*
X0015980Y0030720D02*
X0015660D01*
X0015980Y0030711D02*
X0015660D01*
X0015980Y0030702D02*
X0015660D01*
X0015980Y0030693D02*
X0015660D01*
X0015980Y0030684D02*
X0015660D01*
X0015980Y0030675D02*
X0015660D01*
X0015980Y0030666D02*
X0015660D01*
X0015980Y0030657D02*
X0015660D01*
X0015980Y0030648D02*
X0015660D01*
X0015980Y0030639D02*
X0015660D01*
X0015980Y0030630D02*
X0015660D01*
X0015980Y0030621D02*
X0015660D01*
X0015980Y0030612D02*
X0015660D01*
X0015980Y0030603D02*
X0015660D01*
X0015980Y0030594D02*
X0015660D01*
X0015980Y0030585D02*
X0015660D01*
X0015980Y0030576D02*
X0015660D01*
X0015980Y0030567D02*
X0015660D01*
X0015980Y0030558D02*
X0015660D01*
X0015980Y0030549D02*
X0015660D01*
X0015980Y0030540D02*
X0015660D01*
X0015980Y0030531D02*
X0015660D01*
X0015980Y0030522D02*
X0015660D01*
X0015980Y0030513D02*
X0015660D01*
X0015980Y0030504D02*
X0015660D01*
X0015980Y0030495D02*
X0015660D01*
X0015980Y0030486D02*
X0015660D01*
X0015980Y0030477D02*
X0015660D01*
X0015980Y0030468D02*
X0015660D01*
X0015980Y0030459D02*
X0015660D01*
X0015980Y0030450D02*
X0015660D01*
X0015980Y0030441D02*
X0015660D01*
X0015980Y0030432D02*
X0015660D01*
X0015980Y0030423D02*
X0015660D01*
X0015980Y0030414D02*
X0015660D01*
X0015980Y0030405D02*
X0015660D01*
X0015980Y0030396D02*
X0015660D01*
X0015980Y0030387D02*
X0015660D01*
X0015980Y0030378D02*
X0015660D01*
X0015980Y0030369D02*
X0015660D01*
X0015980Y0030360D02*
X0015660D01*
X0015980Y0030351D02*
X0015660D01*
X0015980Y0030342D02*
X0015660D01*
X0015980Y0030333D02*
X0015660D01*
X0015980Y0030324D02*
X0015660D01*
X0015980Y0030315D02*
X0015660D01*
X0015980Y0030306D02*
X0015660D01*
X0015980Y0030297D02*
X0015660D01*
X0015980Y0030288D02*
X0015660D01*
X0015980Y0030279D02*
X0015660D01*
X0015980Y0030270D02*
X0015660D01*
X0015980Y0030261D02*
X0015660D01*
X0015980Y0030252D02*
X0015660D01*
X0015980Y0030243D02*
X0015660D01*
X0015980Y0030234D02*
X0015660D01*
X0015980Y0030225D02*
X0015660D01*
X0015980Y0030216D02*
X0015660D01*
X0015980Y0030207D02*
X0015660D01*
X0015980Y0030198D02*
X0015660D01*
X0015980Y0030189D02*
X0015660D01*
X0015980Y0030180D02*
X0015660D01*
X0015980Y0030171D02*
X0015660D01*
X0015980Y0030162D02*
X0015660D01*
X0015980Y0030153D02*
X0015660D01*
X0015980Y0030144D02*
X0015660D01*
X0015980Y0030135D02*
X0015660D01*
X0015980Y0030126D02*
X0015660D01*
X0015980Y0030117D02*
X0015660D01*
X0015980Y0030108D02*
X0015660D01*
X0015980Y0030099D02*
X0015660D01*
X0015980Y0030090D02*
X0015660D01*
X0015980Y0030081D02*
X0015660D01*
X0015980Y0030072D02*
X0015660D01*
X0015980Y0030063D02*
X0015660D01*
X0015980Y0030054D02*
X0015660D01*
X0015980Y0030045D02*
X0015660D01*
X0015980Y0030036D02*
X0015660D01*
X0015980Y0030027D02*
X0015660D01*
X0015980Y0030018D02*
X0015660D01*
X0015980Y0030009D02*
X0015660D01*
X0015980Y0030000D02*
X0015660D01*
X0015980Y0029991D02*
X0015660D01*
X0015980Y0029982D02*
X0015660D01*
X0015980Y0029973D02*
X0015660D01*
X0015980Y0029964D02*
X0015660D01*
X0015980Y0029955D02*
X0015660D01*
X0015980Y0029946D02*
X0015660D01*
X0015980Y0029937D02*
X0015660D01*
X0015980Y0029928D02*
X0015660D01*
X0015980Y0029919D02*
X0015660D01*
X0015980Y0029910D02*
X0015660D01*
X0015980Y0029901D02*
X0015660D01*
X0015980Y0029892D02*
X0015660D01*
X0015980Y0029883D02*
X0015660D01*
X0015980Y0029874D02*
X0015660D01*
X0015980Y0029865D02*
X0015660D01*
X0015980Y0029856D02*
X0015660D01*
X0015980Y0029847D02*
X0015660D01*
X0015980Y0029838D02*
X0015660D01*
X0015980Y0029829D02*
X0015660D01*
X0015980Y0029820D02*
X0015660D01*
X0015980Y0029811D02*
X0015660D01*
X0015980Y0029802D02*
X0015660D01*
X0015980Y0029793D02*
X0015660D01*
X0015982Y0029784D02*
X0015660D01*
X0015983Y0029775D02*
X0015660D01*
X0015985Y0029766D02*
X0015660D01*
X0015986Y0029757D02*
X0015660D01*
X0015988Y0029748D02*
X0015660D01*
X0015989Y0029739D02*
X0015660D01*
X0015992Y0029730D02*
X0015660D01*
X0015995Y0029721D02*
X0015660D01*
X0015998Y0029712D02*
X0015660D01*
X0016001Y0029703D02*
X0015660D01*
X0016004Y0029694D02*
X0015660D01*
X0016007Y0029685D02*
X0015660D01*
X0016010Y0029676D02*
X0015660D01*
X0016013Y0029667D02*
X0015660D01*
X0016016Y0029658D02*
X0015660D01*
X0017970Y0030451D02*
X0017506D01*
X0017970Y0030442D02*
X0017570D01*
X0017970Y0030433D02*
X0017600D01*
X0017970Y0030424D02*
X0017630D01*
X0017970Y0030415D02*
X0017660D01*
X0017970Y0030406D02*
X0017680D01*
X0017970Y0030397D02*
X0017700D01*
X0017970Y0030388D02*
X0017721D01*
X0017970Y0030379D02*
X0017741D01*
X0017970Y0030370D02*
X0017756D01*
X0017970Y0030361D02*
X0017766D01*
X0017970Y0030352D02*
X0017777D01*
X0017970Y0030343D02*
X0017787D01*
X0017970Y0030334D02*
X0017798D01*
X0017970Y0030325D02*
X0017808D01*
X0017970Y0030316D02*
X0017819D01*
X0017970Y0030307D02*
X0017828D01*
X0017970Y0030298D02*
X0017837D01*
X0017970Y0030289D02*
X0017846D01*
X0017970Y0030280D02*
X0017855D01*
X0017970Y0030271D02*
X0017864D01*
X0017970Y0030262D02*
X0017873D01*
X0017970Y0030253D02*
X0017881D01*
X0017970Y0030244D02*
X0017888D01*
X0017970Y0030235D02*
X0017894D01*
X0017970Y0030226D02*
X0017901D01*
X0017970Y0030217D02*
X0017907D01*
X0017970Y0030208D02*
X0017913D01*
X0017970Y0030199D02*
X0017920D01*
X0017970Y0030190D02*
X0017926D01*
X0017970Y0030181D02*
X0017933D01*
X0017970Y0030172D02*
X0017939D01*
X0017970Y0030163D02*
X0017945D01*
X0017970Y0030154D02*
X0017951D01*
X0017970Y0030145D02*
X0017957D01*
X0016670Y0029865D02*
X0016590Y0029775D01*
X0016720Y0029925D02*
X0016670Y0029865D01*
X0016850Y0030065D02*
X0016720Y0029925D01*
X0017090Y0030305D02*
X0016850Y0030065D01*
X0017170Y0030365D02*
X0017090Y0030305D01*
X0017270Y0030425D02*
X0017170Y0030365D01*
X0017390Y0030455D02*
X0017270Y0030425D01*
X0017470Y0030455D02*
X0017390D01*
X0017470D02*
X0017560Y0030445D01*
X0017660Y0030415D01*
X0017750Y0030375D01*
X0017820Y0030315D01*
X0017880Y0030255D01*
X0017930Y0030185D01*
X0017970Y0030125D01*
Y0030765D02*
Y0030125D01*
X0017950Y0030785D02*
X0017970Y0030765D01*
X0017930Y0030795D02*
X0017950Y0030785D01*
X0016450Y0031415D02*
X0017930Y0030795D01*
X0016450Y0031415D02*
Y0031405D01*
X0016430D01*
X0016420Y0031375D01*
Y0029835D01*
X0016430Y0029805D01*
X0016450Y0029775D01*
X0016490Y0029755D01*
X0016520Y0029745D01*
X0016570Y0029755D02*
X0016520Y0029745D01*
X0016590Y0029775D02*
X0016570Y0029755D01*
X0016474Y0031405D02*
X0016450D01*
X0017963Y0030772D02*
Y0030135D01*
X0017954Y0030781D02*
Y0030149D01*
X0017945Y0030787D02*
Y0030162D01*
X0017936Y0030792D02*
Y0030176D01*
X0017927Y0030796D02*
Y0030189D01*
X0017918Y0030800D02*
Y0030202D01*
X0017909Y0030804D02*
Y0030214D01*
X0017900Y0030807D02*
Y0030227D01*
X0017891Y0030811D02*
Y0030239D01*
X0017882Y0030815D02*
Y0030252D01*
X0017873Y0030819D02*
Y0030262D01*
X0017864Y0030822D02*
Y0030271D01*
X0017855Y0030826D02*
Y0030280D01*
X0017846Y0030830D02*
Y0030289D01*
X0017837Y0030834D02*
Y0030298D01*
X0017828Y0030838D02*
Y0030307D01*
X0017819Y0030841D02*
Y0030316D01*
X0017810Y0030845D02*
Y0030323D01*
X0017801Y0030849D02*
Y0030331D01*
X0017792Y0030853D02*
Y0030339D01*
X0017783Y0030856D02*
Y0030347D01*
X0017774Y0030860D02*
Y0030354D01*
X0017765Y0030864D02*
Y0030362D01*
X0017756Y0030868D02*
Y0030370D01*
X0017747Y0030871D02*
Y0030376D01*
X0017738Y0030875D02*
Y0030380D01*
X0017729Y0030879D02*
Y0030384D01*
X0017720Y0030883D02*
Y0030388D01*
X0017711Y0030887D02*
Y0030392D01*
X0017702Y0030890D02*
Y0030396D01*
X0017693Y0030894D02*
Y0030400D01*
X0017684Y0030898D02*
Y0030404D01*
X0017675Y0030902D02*
Y0030408D01*
X0017666Y0030905D02*
Y0030412D01*
X0017657Y0030909D02*
Y0030416D01*
X0017648Y0030913D02*
Y0030418D01*
X0017639Y0030917D02*
Y0030421D01*
X0017630Y0030921D02*
Y0030424D01*
X0017621Y0030924D02*
Y0030427D01*
X0017612Y0030928D02*
Y0030429D01*
X0017603Y0030932D02*
Y0030432D01*
X0017594Y0030936D02*
Y0030435D01*
X0017585Y0030939D02*
Y0030437D01*
X0017576Y0030943D02*
Y0030440D01*
X0017567Y0030947D02*
Y0030443D01*
X0017558Y0030951D02*
Y0030445D01*
X0017549Y0030954D02*
Y0030446D01*
X0017540Y0030958D02*
Y0030447D01*
X0017531Y0030962D02*
Y0030448D01*
X0017522Y0030966D02*
Y0030449D01*
X0017513Y0030970D02*
Y0030450D01*
X0017504Y0030973D02*
Y0030451D01*
X0017495Y0030977D02*
Y0030452D01*
X0017486Y0030981D02*
Y0030453D01*
X0017477Y0030985D02*
Y0030454D01*
X0017468Y0030988D02*
Y0030455D01*
X0017459Y0030992D02*
Y0030455D01*
X0017450Y0030996D02*
Y0030455D01*
X0017441Y0031000D02*
Y0030455D01*
X0017432Y0031003D02*
Y0030455D01*
X0017423Y0031007D02*
Y0030455D01*
X0017414Y0031011D02*
Y0030455D01*
X0017405Y0031015D02*
Y0030455D01*
X0017396Y0031019D02*
Y0030455D01*
X0017387Y0031022D02*
Y0030454D01*
X0017378Y0031026D02*
Y0030452D01*
X0017369Y0031030D02*
Y0030450D01*
X0017360Y0031034D02*
Y0030447D01*
X0017351Y0031037D02*
Y0030445D01*
X0017342Y0031041D02*
Y0030443D01*
X0017333Y0031045D02*
Y0030441D01*
X0017324Y0031049D02*
Y0030438D01*
X0017315Y0031052D02*
Y0030436D01*
X0017306Y0031056D02*
Y0030434D01*
X0017297Y0031060D02*
Y0030432D01*
X0017288Y0031064D02*
Y0030429D01*
X0017279Y0031068D02*
Y0030427D01*
X0017270Y0031071D02*
Y0030425D01*
X0017261Y0031075D02*
Y0030419D01*
X0017252Y0031079D02*
Y0030414D01*
X0017243Y0031083D02*
Y0030409D01*
X0017234Y0031086D02*
Y0030403D01*
X0017225Y0031090D02*
Y0030398D01*
X0017216Y0031094D02*
Y0030392D01*
X0017207Y0031098D02*
Y0030387D01*
X0017198Y0031101D02*
Y0030382D01*
X0017189Y0031105D02*
Y0030376D01*
X0017180Y0031109D02*
Y0030371D01*
X0017171Y0031113D02*
Y0030366D01*
X0017162Y0031117D02*
Y0030359D01*
X0017153Y0031120D02*
Y0030352D01*
X0017144Y0031124D02*
Y0030345D01*
X0017135Y0031128D02*
Y0030339D01*
X0017126Y0031132D02*
Y0030332D01*
X0017117Y0031135D02*
Y0030325D01*
X0017108Y0031139D02*
Y0030318D01*
X0017099Y0031143D02*
Y0030312D01*
X0017090Y0031147D02*
Y0030305D01*
X0017081Y0031150D02*
Y0030296D01*
X0017072Y0031154D02*
Y0030287D01*
X0017063Y0031158D02*
Y0030278D01*
X0017054Y0031162D02*
Y0030269D01*
X0017045Y0031166D02*
Y0030260D01*
X0017036Y0031169D02*
Y0030251D01*
X0017027Y0031173D02*
Y0030242D01*
X0017018Y0031177D02*
Y0030233D01*
X0017009Y0031181D02*
Y0030224D01*
X0017000Y0031184D02*
Y0030215D01*
X0016991Y0031188D02*
Y0030206D01*
X0016982Y0031192D02*
Y0030197D01*
X0016973Y0031196D02*
Y0030188D01*
X0016964Y0031200D02*
Y0030179D01*
X0016955Y0031203D02*
Y0030170D01*
X0016946Y0031207D02*
Y0030161D01*
X0016937Y0031211D02*
Y0030152D01*
X0016928Y0031215D02*
Y0030143D01*
X0016919Y0031218D02*
Y0030134D01*
X0016910Y0031222D02*
Y0030125D01*
X0016901Y0031226D02*
Y0030116D01*
X0016892Y0031230D02*
Y0030107D01*
X0016883Y0031233D02*
Y0030098D01*
X0016874Y0031237D02*
Y0030089D01*
X0016865Y0031241D02*
Y0030080D01*
X0016856Y0031245D02*
Y0030071D01*
X0016847Y0031249D02*
Y0030062D01*
X0016838Y0031252D02*
Y0030052D01*
X0016829Y0031256D02*
Y0030042D01*
X0016820Y0031260D02*
Y0030033D01*
X0016811Y0031264D02*
Y0030023D01*
X0016802Y0031267D02*
Y0030013D01*
X0016793Y0031271D02*
Y0030003D01*
X0016784Y0031275D02*
Y0029994D01*
X0016775Y0031279D02*
Y0029984D01*
X0016766Y0031282D02*
Y0029974D01*
X0016757Y0031286D02*
Y0029965D01*
X0016748Y0031290D02*
Y0029955D01*
X0016739Y0031294D02*
Y0029945D01*
X0016730Y0031298D02*
Y0029936D01*
X0016721Y0031301D02*
Y0029926D01*
X0016712Y0031305D02*
Y0029915D01*
X0016703Y0031309D02*
Y0029904D01*
X0016694Y0031313D02*
Y0029894D01*
X0016685Y0031316D02*
Y0029883D01*
X0016676Y0031320D02*
Y0029872D01*
X0016667Y0031324D02*
Y0029861D01*
X0016658Y0031328D02*
Y0029851D01*
X0016649Y0031331D02*
Y0029841D01*
X0016640Y0031335D02*
Y0029831D01*
X0016631Y0031339D02*
Y0029821D01*
X0016622Y0031343D02*
Y0029811D01*
X0016613Y0031347D02*
Y0029801D01*
X0016604Y0031350D02*
Y0029791D01*
X0016595Y0031354D02*
Y0029780D01*
X0016586Y0031358D02*
Y0029771D01*
X0016577Y0031362D02*
Y0029762D01*
X0016568Y0031365D02*
Y0029754D01*
X0016559Y0031369D02*
Y0029753D01*
X0016550Y0031373D02*
Y0029751D01*
X0016541Y0031377D02*
Y0029749D01*
X0016532Y0031380D02*
Y0029747D01*
X0016523Y0031384D02*
Y0029745D01*
X0016514Y0031388D02*
Y0029747D01*
X0016505Y0031392D02*
Y0029750D01*
X0016496Y0031396D02*
Y0029753D01*
X0016487Y0031399D02*
Y0029756D01*
X0016478Y0031403D02*
Y0029761D01*
X0016469Y0031407D02*
Y0029765D01*
X0016460Y0031411D02*
Y0029770D01*
X0016451Y0031414D02*
Y0029774D01*
X0016442Y0031405D02*
Y0029787D01*
X0016433Y0031405D02*
Y0029800D01*
X0016424Y0031387D02*
Y0029823D01*
X0016540Y0029749D02*
X0016508D01*
X0016495Y0031396D02*
X0016427D01*
X0016517Y0031387D02*
X0016424D01*
X0016538Y0031378D02*
X0016421D01*
X0016560Y0031369D02*
X0016420D01*
X0016581Y0031360D02*
X0016420D01*
X0016603Y0031351D02*
X0016420D01*
X0016624Y0031342D02*
X0016420D01*
X0016646Y0031333D02*
X0016420D01*
X0016667Y0031324D02*
X0016420D01*
X0016689Y0031315D02*
X0016420D01*
X0016710Y0031306D02*
X0016420D01*
X0016732Y0031297D02*
X0016420D01*
X0016753Y0031288D02*
X0016420D01*
X0016774Y0031279D02*
X0016420D01*
X0016796Y0031270D02*
X0016420D01*
X0016817Y0031261D02*
X0016420D01*
X0016839Y0031252D02*
X0016420D01*
X0016860Y0031243D02*
X0016420D01*
X0016882Y0031234D02*
X0016420D01*
X0016903Y0031225D02*
X0016420D01*
X0016925Y0031216D02*
X0016420D01*
X0016946Y0031207D02*
X0016420D01*
X0016968Y0031198D02*
X0016420D01*
X0016989Y0031189D02*
X0016420D01*
X0017011Y0031180D02*
X0016420D01*
X0017032Y0031171D02*
X0016420D01*
X0017054Y0031162D02*
X0016420D01*
X0017075Y0031153D02*
X0016420D01*
X0017097Y0031144D02*
X0016420D01*
X0017118Y0031135D02*
X0016420D01*
X0017140Y0031126D02*
X0016420D01*
X0017161Y0031117D02*
X0016420D01*
X0017183Y0031108D02*
X0016420D01*
X0017204Y0031099D02*
X0016420D01*
X0017226Y0031090D02*
X0016420D01*
X0017247Y0031081D02*
X0016420D01*
X0017269Y0031072D02*
X0016420D01*
X0017290Y0031063D02*
X0016420D01*
X0017312Y0031054D02*
X0016420D01*
X0017333Y0031045D02*
X0016420D01*
X0017355Y0031036D02*
X0016420D01*
X0017376Y0031027D02*
X0016420D01*
X0017398Y0031018D02*
X0016420D01*
X0017419Y0031009D02*
X0016420D01*
X0017440Y0031000D02*
X0016420D01*
X0017462Y0030991D02*
X0016420D01*
X0017483Y0030982D02*
X0016420D01*
X0017505Y0030973D02*
X0016420D01*
X0017526Y0030964D02*
X0016420D01*
X0017548Y0030955D02*
X0016420D01*
X0017569Y0030946D02*
X0016420D01*
X0017591Y0030937D02*
X0016420D01*
X0017612Y0030928D02*
X0016420D01*
X0017634Y0030919D02*
X0016420D01*
X0017655Y0030910D02*
X0016420D01*
X0017677Y0030901D02*
X0016420D01*
X0017698Y0030892D02*
X0016420D01*
X0017720Y0030883D02*
X0016420D01*
X0017741Y0030874D02*
X0016420D01*
X0017763Y0030865D02*
X0016420D01*
X0017784Y0030856D02*
X0016420D01*
X0017806Y0030847D02*
X0016420D01*
X0017827Y0030838D02*
X0016420D01*
X0017849Y0030829D02*
X0016420D01*
X0017870Y0030820D02*
X0016420D01*
X0017892Y0030811D02*
X0016420D01*
X0017913Y0030802D02*
X0016420D01*
X0017934Y0030793D02*
X0016420D01*
X0017951Y0030784D02*
X0016420D01*
X0017960Y0030775D02*
X0016420D01*
X0017970Y0030766D02*
X0016420D01*
X0017970Y0030757D02*
X0016420D01*
X0017970Y0030748D02*
X0016420D01*
X0017970Y0030739D02*
X0016420D01*
X0017970Y0030730D02*
X0016420D01*
X0017970Y0030721D02*
X0016420D01*
X0017970Y0030712D02*
X0016420D01*
X0017970Y0030703D02*
X0016420D01*
X0017970Y0030694D02*
X0016420D01*
X0017970Y0030685D02*
X0016420D01*
X0017970Y0030676D02*
X0016420D01*
X0017970Y0030667D02*
X0016420D01*
X0017970Y0030658D02*
X0016420D01*
X0017970Y0030649D02*
X0016420D01*
X0017970Y0030640D02*
X0016420D01*
X0017970Y0030631D02*
X0016420D01*
X0017970Y0030622D02*
X0016420D01*
X0017970Y0030613D02*
X0016420D01*
X0017970Y0030604D02*
X0016420D01*
X0017970Y0030595D02*
X0016420D01*
X0017970Y0030586D02*
X0016420D01*
X0017970Y0030577D02*
X0016420D01*
X0017970Y0030568D02*
X0016420D01*
X0017970Y0030559D02*
X0016420D01*
X0017970Y0030550D02*
X0016420D01*
X0017970Y0030541D02*
X0016420D01*
X0017970Y0030532D02*
X0016420D01*
X0017970Y0030523D02*
X0016420D01*
X0017970Y0030514D02*
X0016420D01*
X0017970Y0030505D02*
X0016420D01*
X0017970Y0030496D02*
X0016420D01*
X0017970Y0030487D02*
X0016420D01*
X0017970Y0030478D02*
X0016420D01*
X0017970Y0030469D02*
X0016420D01*
X0017970Y0030460D02*
X0016420D01*
X0017374Y0030451D02*
X0016420D01*
X0017338Y0030442D02*
X0016420D01*
X0017302Y0030433D02*
X0016420D01*
X0017268Y0030424D02*
X0016420D01*
X0017253Y0030415D02*
X0016420D01*
X0017238Y0030406D02*
X0016420D01*
X0017223Y0030397D02*
X0016420D01*
X0017208Y0030388D02*
X0016420D01*
X0017193Y0030379D02*
X0016420D01*
X0017178Y0030370D02*
X0016420D01*
X0017165Y0030361D02*
X0016420D01*
X0017153Y0030352D02*
X0016420D01*
X0017141Y0030343D02*
X0016420D01*
X0017129Y0030334D02*
X0016420D01*
X0017117Y0030325D02*
X0016420D01*
X0017105Y0030316D02*
X0016420D01*
X0017093Y0030307D02*
X0016420D01*
X0017083Y0030298D02*
X0016420D01*
X0017074Y0030289D02*
X0016420D01*
X0017065Y0030280D02*
X0016420D01*
X0017056Y0030271D02*
X0016420D01*
X0017047Y0030262D02*
X0016420D01*
X0017038Y0030253D02*
X0016420D01*
X0017029Y0030244D02*
X0016420D01*
X0017020Y0030235D02*
X0016420D01*
X0017011Y0030226D02*
X0016420D01*
X0017002Y0030217D02*
X0016420D01*
X0016993Y0030208D02*
X0016420D01*
X0016984Y0030199D02*
X0016420D01*
X0016975Y0030190D02*
X0016420D01*
X0016966Y0030181D02*
X0016420D01*
X0016957Y0030172D02*
X0016420D01*
X0016948Y0030163D02*
X0016420D01*
X0016939Y0030154D02*
X0016420D01*
X0016930Y0030145D02*
X0016420D01*
X0016921Y0030136D02*
X0016420D01*
X0016912Y0030127D02*
X0016420D01*
X0016903Y0030118D02*
X0016420D01*
X0016894Y0030109D02*
X0016420D01*
X0016885Y0030100D02*
X0016420D01*
X0016876Y0030091D02*
X0016420D01*
X0016867Y0030082D02*
X0016420D01*
X0016858Y0030073D02*
X0016420D01*
X0016849Y0030064D02*
X0016420D01*
X0016841Y0030055D02*
X0016420D01*
X0016832Y0030046D02*
X0016420D01*
X0016824Y0030037D02*
X0016420D01*
X0016815Y0030028D02*
X0016420D01*
X0016807Y0030019D02*
X0016420D01*
X0016799Y0030010D02*
X0016420D01*
X0016790Y0030001D02*
X0016420D01*
X0016782Y0029992D02*
X0016420D01*
X0016774Y0029983D02*
X0016420D01*
X0016765Y0029974D02*
X0016420D01*
X0016757Y0029965D02*
X0016420D01*
X0016749Y0029956D02*
X0016420D01*
X0016740Y0029947D02*
X0016420D01*
X0016732Y0029938D02*
X0016420D01*
X0016724Y0029929D02*
X0016420D01*
X0016716Y0029920D02*
X0016420D01*
X0016708Y0029911D02*
X0016420D01*
X0016701Y0029902D02*
X0016420D01*
X0016693Y0029893D02*
X0016420D01*
X0016686Y0029884D02*
X0016420D01*
X0016678Y0029875D02*
X0016420D01*
X0016671Y0029866D02*
X0016420D01*
X0016663Y0029857D02*
X0016420D01*
X0016655Y0029848D02*
X0016420D01*
X0016647Y0029839D02*
X0016420D01*
X0016639Y0029830D02*
X0016422D01*
X0016631Y0029821D02*
X0016425D01*
X0016623Y0029812D02*
X0016428D01*
X0016615Y0029803D02*
X0016431D01*
X0016607Y0029794D02*
X0016437D01*
X0016599Y0029785D02*
X0016443D01*
X0016591Y0029776D02*
X0016449D01*
X0016582Y0029767D02*
X0016466D01*
X0016573Y0029758D02*
X0016484D01*
X0017948Y0031249D02*
X0017908D01*
X0016410Y0031925D02*
Y0031905D01*
X0016420Y0031885D01*
X0016440Y0031865D01*
X0016470Y0031845D01*
X0017890Y0031255D01*
X0017920Y0031245D01*
X0017940D02*
X0017920D01*
X0017960Y0031255D02*
X0017940Y0031245D01*
X0017970Y0031265D02*
X0017960Y0031255D01*
X0017970Y0031515D02*
Y0031265D01*
X0017960Y0031585D02*
X0017970Y0031515D01*
X0017940Y0031665D02*
X0017960Y0031585D01*
X0017910Y0031745D02*
X0017940Y0031665D01*
X0017860Y0031825D02*
X0017910Y0031745D01*
X0017810Y0031885D02*
X0017860Y0031825D01*
X0017760Y0031935D02*
X0017810Y0031885D01*
X0017710Y0031975D02*
X0017760Y0031935D01*
X0017660Y0032005D02*
X0017710Y0031975D01*
X0017620Y0032025D02*
X0017660Y0032005D01*
X0016480Y0032495D02*
X0017620Y0032025D01*
X0016460Y0032505D02*
X0016480Y0032495D01*
X0016460Y0032505D02*
X0016430D01*
X0016410Y0032485D01*
Y0031925D01*
X0017962Y0031571D02*
Y0031257D01*
X0017953Y0031613D02*
Y0031251D01*
X0017944Y0031649D02*
Y0031247D01*
X0017935Y0031678D02*
Y0031245D01*
X0017926Y0031702D02*
Y0031245D01*
X0017917Y0031726D02*
Y0031246D01*
X0017908Y0031748D02*
Y0031249D01*
X0017899Y0031762D02*
Y0031252D01*
X0017890Y0031777D02*
Y0031255D01*
X0017881Y0031791D02*
Y0031259D01*
X0017872Y0031806D02*
Y0031262D01*
X0017863Y0031820D02*
Y0031266D01*
X0017854Y0031832D02*
Y0031270D01*
X0017845Y0031843D02*
Y0031274D01*
X0017836Y0031854D02*
Y0031277D01*
X0017827Y0031864D02*
Y0031281D01*
X0017818Y0031875D02*
Y0031285D01*
X0017809Y0031886D02*
Y0031288D01*
X0017800Y0031895D02*
Y0031292D01*
X0017791Y0031904D02*
Y0031296D01*
X0017782Y0031913D02*
Y0031300D01*
X0017773Y0031922D02*
Y0031303D01*
X0017764Y0031931D02*
Y0031307D01*
X0017755Y0031939D02*
Y0031311D01*
X0017746Y0031946D02*
Y0031315D01*
X0017737Y0031953D02*
Y0031318D01*
X0017728Y0031960D02*
Y0031322D01*
X0017719Y0031968D02*
Y0031326D01*
X0017710Y0031975D02*
Y0031330D01*
X0017701Y0031980D02*
Y0031333D01*
X0017692Y0031986D02*
Y0031337D01*
X0017683Y0031991D02*
Y0031341D01*
X0017674Y0031996D02*
Y0031345D01*
X0017665Y0032002D02*
Y0031348D01*
X0017656Y0032007D02*
Y0031352D01*
X0017647Y0032011D02*
Y0031356D01*
X0017638Y0032016D02*
Y0031360D01*
X0017629Y0032020D02*
Y0031363D01*
X0017620Y0032025D02*
Y0031367D01*
X0017611Y0032029D02*
Y0031371D01*
X0017602Y0032032D02*
Y0031374D01*
X0017593Y0032036D02*
Y0031378D01*
X0017584Y0032040D02*
Y0031382D01*
X0017575Y0032043D02*
Y0031386D01*
X0017566Y0032047D02*
Y0031389D01*
X0017557Y0032051D02*
Y0031393D01*
X0017548Y0032055D02*
Y0031397D01*
X0017539Y0032058D02*
Y0031401D01*
X0017530Y0032062D02*
Y0031404D01*
X0017521Y0032066D02*
Y0031408D01*
X0017512Y0032069D02*
Y0031412D01*
X0017503Y0032073D02*
Y0031416D01*
X0017494Y0032077D02*
Y0031419D01*
X0017485Y0032080D02*
Y0031423D01*
X0017476Y0032084D02*
Y0031427D01*
X0017467Y0032088D02*
Y0031431D01*
X0017458Y0032092D02*
Y0031434D01*
X0017449Y0032095D02*
Y0031438D01*
X0017440Y0032099D02*
Y0031442D01*
X0017431Y0032103D02*
Y0031446D01*
X0017422Y0032106D02*
Y0031449D01*
X0017413Y0032110D02*
Y0031453D01*
X0017404Y0032114D02*
Y0031457D01*
X0017395Y0032118D02*
Y0031461D01*
X0017386Y0032121D02*
Y0031464D01*
X0017377Y0032125D02*
Y0031468D01*
X0017368Y0032129D02*
Y0031472D01*
X0017359Y0032132D02*
Y0031475D01*
X0017350Y0032136D02*
Y0031479D01*
X0017341Y0032140D02*
Y0031483D01*
X0017332Y0032144D02*
Y0031487D01*
X0017323Y0032147D02*
Y0031490D01*
X0017314Y0032151D02*
Y0031494D01*
X0017305Y0032155D02*
Y0031498D01*
X0017296Y0032158D02*
Y0031502D01*
X0017287Y0032162D02*
Y0031505D01*
X0017278Y0032166D02*
Y0031509D01*
X0017269Y0032170D02*
Y0031513D01*
X0017260Y0032173D02*
Y0031517D01*
X0017251Y0032177D02*
Y0031520D01*
X0017242Y0032181D02*
Y0031524D01*
X0017233Y0032184D02*
Y0031528D01*
X0017224Y0032188D02*
Y0031532D01*
X0017215Y0032192D02*
Y0031535D01*
X0017206Y0032196D02*
Y0031539D01*
X0017197Y0032199D02*
Y0031543D01*
X0017188Y0032203D02*
Y0031547D01*
X0017179Y0032207D02*
Y0031550D01*
X0017170Y0032210D02*
Y0031554D01*
X0017161Y0032214D02*
Y0031558D01*
X0017152Y0032218D02*
Y0031561D01*
X0017143Y0032221D02*
Y0031565D01*
X0017134Y0032225D02*
Y0031569D01*
X0017125Y0032229D02*
Y0031573D01*
X0017116Y0032233D02*
Y0031576D01*
X0017107Y0032236D02*
Y0031580D01*
X0017098Y0032240D02*
Y0031584D01*
X0017089Y0032244D02*
Y0031588D01*
X0017080Y0032247D02*
Y0031591D01*
X0017071Y0032251D02*
Y0031595D01*
X0017062Y0032255D02*
Y0031599D01*
X0017053Y0032259D02*
Y0031603D01*
X0017044Y0032262D02*
Y0031606D01*
X0017035Y0032266D02*
Y0031610D01*
X0017026Y0032270D02*
Y0031614D01*
X0017017Y0032273D02*
Y0031618D01*
X0017008Y0032277D02*
Y0031621D01*
X0016999Y0032281D02*
Y0031625D01*
X0016990Y0032285D02*
Y0031629D01*
X0016981Y0032288D02*
Y0031633D01*
X0016972Y0032292D02*
Y0031636D01*
X0016963Y0032296D02*
Y0031640D01*
X0016954Y0032299D02*
Y0031644D01*
X0016945Y0032303D02*
Y0031647D01*
X0016936Y0032307D02*
Y0031651D01*
X0016927Y0032311D02*
Y0031655D01*
X0016918Y0032314D02*
Y0031659D01*
X0016909Y0032318D02*
Y0031662D01*
X0016900Y0032322D02*
Y0031666D01*
X0016891Y0032325D02*
Y0031670D01*
X0016882Y0032329D02*
Y0031674D01*
X0016873Y0032333D02*
Y0031677D01*
X0016864Y0032337D02*
Y0031681D01*
X0016855Y0032340D02*
Y0031685D01*
X0016846Y0032344D02*
Y0031689D01*
X0016837Y0032348D02*
Y0031692D01*
X0016828Y0032351D02*
Y0031696D01*
X0016819Y0032355D02*
Y0031700D01*
X0016810Y0032359D02*
Y0031704D01*
X0016801Y0032362D02*
Y0031707D01*
X0016792Y0032366D02*
Y0031711D01*
X0016783Y0032370D02*
Y0031715D01*
X0016774Y0032374D02*
Y0031719D01*
X0016765Y0032377D02*
Y0031722D01*
X0016756Y0032381D02*
Y0031726D01*
X0016747Y0032385D02*
Y0031730D01*
X0016738Y0032388D02*
Y0031733D01*
X0016729Y0032392D02*
Y0031737D01*
X0016720Y0032396D02*
Y0031741D01*
X0016711Y0032400D02*
Y0031745D01*
X0016702Y0032403D02*
Y0031748D01*
X0016693Y0032407D02*
Y0031752D01*
X0016684Y0032411D02*
Y0031756D01*
X0016675Y0032414D02*
Y0031760D01*
X0016666Y0032418D02*
Y0031763D01*
X0016657Y0032422D02*
Y0031767D01*
X0016648Y0032426D02*
Y0031771D01*
X0016639Y0032429D02*
Y0031775D01*
X0016630Y0032433D02*
Y0031778D01*
X0016621Y0032437D02*
Y0031782D01*
X0016612Y0032440D02*
Y0031786D01*
X0016603Y0032444D02*
Y0031790D01*
X0016594Y0032448D02*
Y0031793D01*
X0016585Y0032452D02*
Y0031797D01*
X0016576Y0032455D02*
Y0031801D01*
X0016567Y0032459D02*
Y0031805D01*
X0016558Y0032463D02*
Y0031808D01*
X0016549Y0032466D02*
Y0031812D01*
X0016540Y0032470D02*
Y0031816D01*
X0016531Y0032474D02*
Y0031819D01*
X0016522Y0032478D02*
Y0031823D01*
X0016513Y0032481D02*
Y0031827D01*
X0016504Y0032485D02*
Y0031831D01*
X0016495Y0032489D02*
Y0031834D01*
X0016486Y0032492D02*
Y0031838D01*
X0016477Y0032496D02*
Y0031842D01*
X0016468Y0032501D02*
Y0031846D01*
X0016459Y0032505D02*
Y0031852D01*
X0016450Y0032505D02*
Y0031858D01*
X0016441Y0032505D02*
Y0031864D01*
X0016432Y0032505D02*
Y0031873D01*
X0016423Y0032498D02*
Y0031882D01*
X0016414Y0032489D02*
Y0031897D01*
X0016470Y0032500D02*
X0016425D01*
X0016490Y0032491D02*
X0016416D01*
X0016511Y0032482D02*
X0016410D01*
X0016533Y0032473D02*
X0016410D01*
X0016555Y0032464D02*
X0016410D01*
X0016577Y0032455D02*
X0016410D01*
X0016599Y0032446D02*
X0016410D01*
X0016621Y0032437D02*
X0016410D01*
X0016642Y0032428D02*
X0016410D01*
X0016664Y0032419D02*
X0016410D01*
X0016686Y0032410D02*
X0016410D01*
X0016708Y0032401D02*
X0016410D01*
X0016730Y0032392D02*
X0016410D01*
X0016751Y0032383D02*
X0016410D01*
X0016773Y0032374D02*
X0016410D01*
X0016795Y0032365D02*
X0016410D01*
X0016817Y0032356D02*
X0016410D01*
X0016839Y0032347D02*
X0016410D01*
X0016861Y0032338D02*
X0016410D01*
X0016882Y0032329D02*
X0016410D01*
X0016904Y0032320D02*
X0016410D01*
X0016926Y0032311D02*
X0016410D01*
X0016948Y0032302D02*
X0016410D01*
X0016970Y0032293D02*
X0016410D01*
X0016992Y0032284D02*
X0016410D01*
X0017013Y0032275D02*
X0016410D01*
X0017035Y0032266D02*
X0016410D01*
X0017057Y0032257D02*
X0016410D01*
X0017079Y0032248D02*
X0016410D01*
X0017101Y0032239D02*
X0016410D01*
X0017123Y0032230D02*
X0016410D01*
X0017144Y0032221D02*
X0016410D01*
X0017166Y0032212D02*
X0016410D01*
X0017188Y0032203D02*
X0016410D01*
X0017210Y0032194D02*
X0016410D01*
X0017232Y0032185D02*
X0016410D01*
X0017254Y0032176D02*
X0016410D01*
X0017275Y0032167D02*
X0016410D01*
X0017297Y0032158D02*
X0016410D01*
X0017319Y0032149D02*
X0016410D01*
X0017341Y0032140D02*
X0016410D01*
X0017363Y0032131D02*
X0016410D01*
X0017385Y0032122D02*
X0016410D01*
X0017406Y0032113D02*
X0016410D01*
X0017428Y0032104D02*
X0016410D01*
X0017450Y0032095D02*
X0016410D01*
X0017472Y0032086D02*
X0016410D01*
X0017494Y0032077D02*
X0016410D01*
X0017516Y0032068D02*
X0016410D01*
X0017537Y0032059D02*
X0016410D01*
X0017559Y0032050D02*
X0016410D01*
X0017581Y0032041D02*
X0016410D01*
X0017603Y0032032D02*
X0016410D01*
X0017624Y0032023D02*
X0016410D01*
X0017642Y0032014D02*
X0016410D01*
X0017660Y0032005D02*
X0016410D01*
X0017675Y0031996D02*
X0016410D01*
X0017690Y0031987D02*
X0016410D01*
X0017705Y0031978D02*
X0016410D01*
X0017717Y0031969D02*
X0016410D01*
X0017729Y0031960D02*
X0016410D01*
X0017740Y0031951D02*
X0016410D01*
X0017751Y0031942D02*
X0016410D01*
X0017762Y0031933D02*
X0016410D01*
X0017771Y0031924D02*
X0016410D01*
X0017780Y0031915D02*
X0016410D01*
X0017789Y0031906D02*
X0016410D01*
X0017798Y0031897D02*
X0016414D01*
X0017807Y0031888D02*
X0016418D01*
X0017815Y0031879D02*
X0016426D01*
X0017822Y0031870D02*
X0016435D01*
X0017830Y0031861D02*
X0016446D01*
X0017837Y0031852D02*
X0016459D01*
X0017845Y0031843D02*
X0016475D01*
X0017852Y0031834D02*
X0016496D01*
X0017860Y0031825D02*
X0016518D01*
X0017865Y0031816D02*
X0016540D01*
X0017871Y0031807D02*
X0016561D01*
X0017877Y0031798D02*
X0016583D01*
X0017882Y0031789D02*
X0016605D01*
X0017888Y0031780D02*
X0016626D01*
X0017894Y0031771D02*
X0016648D01*
X0017899Y0031762D02*
X0016670D01*
X0017905Y0031753D02*
X0016691D01*
X0017910Y0031744D02*
X0016713D01*
X0017914Y0031735D02*
X0016735D01*
X0017917Y0031726D02*
X0016756D01*
X0017920Y0031717D02*
X0016778D01*
X0017924Y0031708D02*
X0016800D01*
X0017927Y0031699D02*
X0016821D01*
X0017930Y0031690D02*
X0016843D01*
X0017934Y0031681D02*
X0016865D01*
X0017937Y0031672D02*
X0016886D01*
X0017940Y0031663D02*
X0016908D01*
X0017943Y0031654D02*
X0016930D01*
X0017945Y0031645D02*
X0016951D01*
X0017947Y0031636D02*
X0016973D01*
X0017949Y0031627D02*
X0016995D01*
X0017952Y0031618D02*
X0017016D01*
X0017954Y0031609D02*
X0017038D01*
X0017956Y0031600D02*
X0017059D01*
X0017958Y0031591D02*
X0017081D01*
X0017960Y0031582D02*
X0017103D01*
X0017962Y0031573D02*
X0017124D01*
X0017963Y0031564D02*
X0017146D01*
X0017964Y0031555D02*
X0017168D01*
X0017965Y0031546D02*
X0017189D01*
X0017967Y0031537D02*
X0017211D01*
X0017968Y0031528D02*
X0017233D01*
X0017969Y0031519D02*
X0017254D01*
X0017970Y0031510D02*
X0017276D01*
X0017970Y0031501D02*
X0017298D01*
X0017970Y0031492D02*
X0017319D01*
X0017970Y0031483D02*
X0017341D01*
X0017970Y0031474D02*
X0017363D01*
X0017970Y0031465D02*
X0017384D01*
X0017970Y0031456D02*
X0017406D01*
X0017970Y0031447D02*
X0017428D01*
X0017970Y0031438D02*
X0017449D01*
X0017970Y0031429D02*
X0017471D01*
X0017970Y0031420D02*
X0017493D01*
X0017970Y0031411D02*
X0017514D01*
X0017970Y0031402D02*
X0017536D01*
X0017970Y0031393D02*
X0017558D01*
X0017970Y0031384D02*
X0017579D01*
X0017970Y0031375D02*
X0017601D01*
X0017970Y0031366D02*
X0017623D01*
X0017970Y0031357D02*
X0017644D01*
X0017970Y0031348D02*
X0017666D01*
X0017970Y0031339D02*
X0017688D01*
X0017970Y0031330D02*
X0017709D01*
X0017970Y0031321D02*
X0017731D01*
X0017970Y0031312D02*
X0017753D01*
X0017970Y0031303D02*
X0017774D01*
X0017970Y0031294D02*
X0017796D01*
X0017970Y0031285D02*
X0017818D01*
X0017970Y0031276D02*
X0017839D01*
X0017970Y0031267D02*
X0017861D01*
X0017963Y0031258D02*
X0017883D01*
X0015030Y0023080D02*
X0014290D01*
Y0023950D01*
X0015030D01*
Y0023080D01*
G54D28*
G01X0011150Y0030515D02*
Y0019805D01*
X0012705D01*
Y0030515D01*
X0011150D01*
X0010130Y0028090D02*
Y0022170D01*
X0011050D01*
Y0028090D01*
X0010130D01*
G01X0016748Y0025627D02*
G03X0016763Y0025642I0000000J0000015D01*
G01X0016733D02*
G03X0016748Y0025627I0000015J0000000D01*
Y0025656D02*
G03X0016734Y0025642I0000000J0000014D01*
G01X0016762D02*
G03X0016748Y0025656I0000014J0000000D01*
G54D30*
G01X0021973Y0031939D02*
X0021902D01*
X0021937D02*
Y0032206D01*
X0021902Y0032162D01*
X0021729Y0032206D02*
Y0031984D01*
X0021711Y0031939D01*
X0021604D01*
X0021586Y0031984D01*
Y0032206D01*
X0012409Y0017936D02*
Y0017865D01*
Y0017901D02*
X0012142D01*
X0012187Y0017865D01*
X0012276Y0017550D02*
Y0017656D01*
X0012231Y0017692D01*
X0012187D01*
X0012142Y0017656D01*
Y0017550D01*
X0012409D01*
X0012320Y0017288D02*
X0012364D01*
X0012409Y0017305D01*
Y0017377D01*
X0012364Y0017394D01*
X0012142D01*
Y0017412D02*
Y0017341D01*
X0015019Y0024026D02*
X0014948D01*
X0014984D02*
Y0024293D01*
X0014948Y0024248D01*
X0014704Y0024026D02*
Y0024159D01*
X0014775Y0024293D02*
X0014722Y0024159D01*
X0014686D01*
X0014633Y0024293D01*
X0024906Y0025601D02*
X0024835D01*
X0024871D02*
Y0025868D01*
X0024835Y0025823D01*
X0024538Y0025690D02*
Y0025645D01*
X0024555Y0025601D01*
X0024627D01*
X0024644Y0025645D01*
Y0025868D01*
X0024662D02*
X0024591D01*
X0016640Y0025092D02*
X0016498D01*
X0016640Y0025270D01*
Y0025315D01*
X0016622Y0025359D01*
X0016516D01*
X0016498Y0025315D01*
X0016360Y0025359D02*
Y0025137D01*
X0016342Y0025092D01*
X0016236D01*
X0016218Y0025137D01*
Y0025359D01*
X0024234Y0016352D02*
X0024092D01*
X0024163Y0016529D01*
X0024199D01*
Y0016263D01*
X0023954Y0016529D02*
Y0016263D01*
X0023919Y0016307D01*
X0023848Y0016485D01*
X0023812Y0016529D01*
Y0016263D01*
X0023674Y0016307D02*
X0023656Y0016263D01*
X0023550D01*
X0023532Y0016307D01*
Y0016485D01*
X0023550Y0016529D01*
X0023656D01*
X0023674Y0016485D01*
X0007104Y0033437D02*
X0007033D01*
X0007069D02*
Y0033703D01*
X0007033Y0033659D01*
X0006860Y0033703D02*
Y0033437D01*
X0006824Y0033481D01*
X0006753Y0033659D01*
X0006718Y0033703D01*
Y0033437D01*
X0006580Y0033481D02*
X0006562Y0033437D01*
X0006455D01*
X0006438Y0033481D01*
Y0033659D01*
X0006455Y0033703D01*
X0006562D01*
X0006580Y0033659D01*
X0019044Y0033383D02*
X0018901D01*
X0019044Y0033561D01*
Y0033605D01*
X0019026Y0033650D01*
X0018919D01*
X0018901Y0033605D01*
X0018764Y0033650D02*
Y0033383D01*
X0018728Y0033428D01*
X0018657Y0033605D01*
X0018621Y0033650D01*
Y0033383D01*
X0018484Y0033428D02*
X0018466Y0033383D01*
X0018359D01*
X0018341Y0033428D01*
Y0033605D01*
X0018359Y0033650D01*
X0018466D01*
X0018484Y0033605D01*
X0015015Y0016252D02*
X0015050Y0016208D01*
X0015121D01*
X0015157Y0016252D01*
Y0016297D01*
X0015086Y0016386D01*
X0015157Y0016474D01*
X0015015D01*
X0014877D02*
Y0016208D01*
X0014841Y0016252D01*
X0014770Y0016430D01*
X0014735Y0016474D01*
Y0016208D01*
X0014597Y0016252D02*
X0014579Y0016208D01*
X0014472D01*
X0014455Y0016252D01*
Y0016430D01*
X0014472Y0016474D01*
X0014579D01*
X0014597Y0016430D01*
X0025250Y0020725D02*
Y0025225D01*
X0022750D01*
Y0020725D01*
X0025250D01*
X0013715Y0017080D02*
X0012715D01*
Y0019080D01*
X0013715D01*
Y0017080D01*
G54D31*
G01X0022145Y0031730D02*
Y0029730D01*
X0021395D01*
Y0031730D01*
X0022145D01*
X0021395Y0031480D02*
X0022145D01*
X0006085Y0034956D02*
Y0033956D01*
X0016185D01*
Y0034956D01*
X0015635D01*
X0014635D01*
X0013635D01*
X0012635D01*
X0011635D01*
X0009635D01*
X0007635D01*
X0006085D01*
X0016679D02*
Y0033956D01*
X0024779D01*
Y0034956D01*
X0024229D01*
X0023229D01*
X0022229D01*
X0021229D01*
X0020229D01*
X0018229D01*
X0016679D01*
X0017777Y0014958D02*
Y0015958D01*
X0009677D01*
Y0014958D01*
X0010227D01*
X0011227D01*
X0012227D01*
X0013227D01*
X0014227D01*
X0016227D01*
X0017777D01*
X0024784D02*
Y0015958D01*
X0018684D01*
Y0014958D01*
X0019234D01*
X0020234D01*
X0021234D01*
X0022234D01*
X0023234D01*
X0024784D01*
G54D44*
G01X0014398Y0027312D02*
X0014348D01*
X0014407Y0027178D02*
X0014373D01*
X0014365Y0027212D01*
Y0027378D01*
X0014260Y0027312D02*
X0014252Y0027278D01*
X0014218Y0027212D01*
X0014210Y0027178D01*
X0014260D02*
X0014252Y0027212D01*
X0014218Y0027278D01*
X0014210Y0027312D01*
X0014113Y0027178D02*
X0014063D01*
X0014055Y0027212D01*
Y0027278D01*
X0014063Y0027312D01*
X0014113D01*
X0014122Y0027278D01*
Y0027245D01*
X0014055D01*
X0013967Y0027112D02*
X0013900D01*
X0013803Y0027312D02*
X0013753D01*
X0013745Y0027278D01*
X0013753Y0027245D01*
X0013803D01*
X0013812Y0027212D01*
X0013803Y0027178D01*
X0013753D01*
X0013598Y0027112D02*
Y0027312D01*
X0013648D01*
X0013657Y0027278D01*
Y0027212D01*
X0013648Y0027178D01*
X0013598D01*
X0013477D02*
Y0027278D01*
X0013510Y0027178D02*
Y0027278D01*
X0013502Y0027312D01*
X0013485D01*
X0013477Y0027278D01*
X0013468Y0027312D01*
X0013452D01*
X0013443Y0027278D01*
Y0027178D01*
X0013347Y0027312D02*
X0013297D01*
X0013288Y0027278D01*
X0013297Y0027245D01*
X0013347D01*
X0013355Y0027212D01*
X0013347Y0027178D01*
X0013297D01*
X0013200Y0027378D02*
Y0027312D01*
X0013167Y0027178D01*
X0013133Y0027312D01*
Y0027378D01*
X0020178Y0022430D02*
Y0022364D01*
X0020044Y0022430D01*
X0020011D01*
X0019978Y0022422D01*
Y0022372D01*
X0020011Y0022364D01*
X0020178Y0022275D02*
Y0022209D01*
X0020044Y0022275D01*
X0020011D01*
X0019978Y0022267D01*
Y0022217D01*
X0020011Y0022209D01*
X0020078Y0022095D02*
X0020178Y0022120D01*
X0020078Y0022054D02*
Y0022104D01*
X0020044Y0022120D01*
X0020011D01*
X0019978Y0022104D01*
Y0022054D01*
X0020178D01*
X0015389Y0024894D02*
X0015356D01*
X0015373D02*
Y0025094D01*
X0015356Y0025060D01*
X0015251Y0024894D02*
X0015184D01*
X0015251Y0025027D01*
Y0025060D01*
X0015243Y0025094D01*
X0015193D01*
X0015184Y0025060D01*
X0015071Y0024994D02*
X0015096Y0024894D01*
X0015029Y0024994D02*
X0015079D01*
X0015096Y0025027D01*
Y0025060D01*
X0015079Y0025094D01*
X0015029D01*
Y0024894D01*
X0013841Y0025715D02*
X0013775D01*
X0013841Y0025848D01*
Y0025881D01*
X0013833Y0025915D01*
X0013783D01*
X0013775Y0025881D01*
X0013686Y0025715D02*
X0013653D01*
X0013670D02*
Y0025915D01*
X0013653Y0025881D01*
X0013548Y0025748D02*
X0013540Y0025715D01*
X0013490D01*
X0013481Y0025748D01*
Y0025881D01*
X0013490Y0025915D01*
X0013540D01*
X0013548Y0025881D01*
X0016030Y0026983D02*
X0015964D01*
X0016030Y0027116D01*
Y0027149D01*
X0016022Y0027183D01*
X0015972D01*
X0015964Y0027149D01*
X0015875Y0026983D02*
X0015817D01*
Y0027183D01*
X0018658Y0021598D02*
X0018666Y0021564D01*
X0018716D01*
X0018724Y0021598D01*
Y0021664D01*
X0018708Y0021698D01*
X0018658D01*
Y0021764D01*
X0018724D01*
X0018503Y0021598D02*
X0018519Y0021564D01*
X0018553D01*
X0018569Y0021598D01*
Y0021631D01*
X0018536Y0021698D01*
X0018569Y0021764D01*
X0018503D01*
X0018414Y0021598D02*
X0018406Y0021564D01*
X0018356D01*
X0018348Y0021598D01*
Y0021731D01*
X0018356Y0021764D01*
X0018406D01*
X0018414Y0021731D01*
X0014094Y0026147D02*
X0014077Y0026180D01*
X0014069Y0026214D01*
Y0026280D01*
X0014077Y0026314D01*
X0014094Y0026347D01*
X0014110D01*
X0014127Y0026314D01*
X0014135Y0026280D01*
Y0026214D01*
X0014127Y0026180D01*
X0014110Y0026147D01*
X0014094D01*
X0013980D02*
X0013914D01*
X0013980Y0026280D01*
Y0026314D01*
X0013972Y0026347D01*
X0013922D01*
X0013914Y0026314D01*
X0013800Y0026247D02*
X0013825Y0026147D01*
X0013759Y0026247D02*
X0013809D01*
X0013825Y0026280D01*
Y0026314D01*
X0013809Y0026347D01*
X0013759D01*
Y0026147D01*
X0016709Y0027894D02*
X0016743Y0027910D01*
Y0027944D01*
X0016709Y0027960D01*
X0016676D01*
X0016609Y0027927D01*
X0016543Y0027960D01*
Y0027894D01*
X0016709Y0027739D02*
X0016743Y0027755D01*
Y0027789D01*
X0016709Y0027805D01*
X0016676D01*
X0016609Y0027772D01*
X0016543Y0027805D01*
Y0027739D01*
X0016709Y0027650D02*
X0016743Y0027642D01*
Y0027592D01*
X0016709Y0027584D01*
X0016576D01*
X0016543Y0027592D01*
Y0027642D01*
X0016576Y0027650D01*
X0018579Y0022712D02*
X0018629Y0022912D01*
X0018562D01*
X0018474Y0022712D02*
X0018415D01*
Y0022912D01*
X0019889Y0022857D02*
X0019939Y0023057D01*
X0019872D01*
X0019784Y0022857D02*
X0019750D01*
X0019767D02*
Y0023057D01*
X0019750Y0023024D01*
X0019620Y0022957D02*
X0019645Y0022857D01*
X0019579Y0022957D02*
X0019629D01*
X0019645Y0022990D01*
Y0023024D01*
X0019629Y0023057D01*
X0019579D01*
Y0022857D01*
X0014084Y0025219D02*
X0014018D01*
X0014084Y0025353D01*
Y0025386D01*
X0014076Y0025419D01*
X0014026D01*
X0014018Y0025386D01*
X0013863Y0025253D02*
X0013879Y0025219D01*
X0013913D01*
X0013929Y0025253D01*
Y0025286D01*
X0013896Y0025353D01*
X0013929Y0025419D01*
X0013863D01*
X0013774Y0025253D02*
X0013766Y0025219D01*
X0013716D01*
X0013708Y0025253D01*
Y0025386D01*
X0013716Y0025419D01*
X0013766D01*
X0013774Y0025386D01*
X0017913Y0027920D02*
Y0027870D01*
X0017879Y0027862D01*
X0017846D01*
X0017813Y0027870D01*
Y0027920D01*
X0017846Y0027929D01*
X0017879D01*
X0018013Y0027895D01*
Y0027774D02*
Y0027740D01*
Y0027757D02*
X0017813D01*
X0017846Y0027740D01*
X0017913Y0027610D02*
X0018013Y0027635D01*
X0017913Y0027569D02*
Y0027619D01*
X0017879Y0027635D01*
X0017846D01*
X0017813Y0027619D01*
Y0027569D01*
X0018013D01*
X0019544Y0021634D02*
X0019477D01*
X0019510Y0021768D01*
X0019527D01*
Y0021568D01*
X0019322Y0021601D02*
X0019339Y0021568D01*
X0019372D01*
X0019389Y0021601D01*
Y0021634D01*
X0019355Y0021701D01*
X0019389Y0021768D01*
X0019322D01*
X0019234Y0021601D02*
X0019225Y0021568D01*
X0019175D01*
X0019167Y0021601D01*
Y0021734D01*
X0019175Y0021768D01*
X0019225D01*
X0019234Y0021734D01*
X0019229Y0020872D02*
X0019179D01*
X0019170Y0020905D01*
Y0020939D01*
X0019179Y0020972D01*
X0019229D01*
X0019237Y0020939D01*
Y0020905D01*
X0019204Y0020772D01*
X0019082D02*
X0019024D01*
Y0020972D01*
X0016767Y0022318D02*
X0016800Y0022326D01*
Y0022376D01*
X0016767Y0022384D01*
X0016700D01*
X0016667Y0022368D01*
Y0022318D01*
X0016600D01*
Y0022384D01*
X0016800Y0022229D02*
Y0022163D01*
X0016667Y0022229D01*
X0016634D01*
X0016600Y0022221D01*
Y0022171D01*
X0016634Y0022163D01*
X0016767Y0022074D02*
X0016800Y0022066D01*
Y0022016D01*
X0016767Y0022008D01*
X0016634D01*
X0016600Y0022016D01*
Y0022066D01*
X0016634Y0022074D01*
X0015120Y0019159D02*
Y0019093D01*
X0014987Y0019159D01*
X0014954D01*
X0014920Y0019151D01*
Y0019101D01*
X0014954Y0019093D01*
X0015087Y0019004D02*
X0015120Y0018996D01*
Y0018946D01*
X0015087Y0018938D01*
X0014954D01*
X0014920Y0018946D01*
Y0018996D01*
X0014954Y0019004D01*
X0021185Y0025711D02*
X0021202Y0025678D01*
X0021235D01*
X0021252Y0025711D01*
Y0025744D01*
X0021219Y0025811D01*
X0021252Y0025878D01*
X0021185D01*
X0021097Y0025678D02*
X0021064D01*
X0021080D02*
Y0025878D01*
X0021064Y0025844D01*
X0020959Y0025711D02*
X0020950Y0025678D01*
X0020900D01*
X0020892Y0025711D01*
Y0025844D01*
X0020900Y0025878D01*
X0020950D01*
X0020959Y0025844D01*
X0019305Y0026338D02*
X0019105Y0026388D01*
Y0026321D01*
X0019272Y0026233D02*
X0019305Y0026225D01*
Y0026175D01*
X0019272Y0026166D01*
X0019139D01*
X0019105Y0026175D01*
Y0026225D01*
X0019139Y0026233D01*
X0023085Y0032517D02*
X0023019D01*
X0023085Y0032650D01*
Y0032684D01*
X0023077Y0032717D01*
X0023027D01*
X0023019Y0032684D01*
X0022905Y0032617D02*
X0022930Y0032517D01*
X0022864Y0032617D02*
X0022914D01*
X0022930Y0032650D01*
Y0032684D01*
X0022914Y0032717D01*
X0022864D01*
Y0032517D01*
X0022330Y0024560D02*
X0022347Y0024527D01*
X0022380D01*
X0022397Y0024560D01*
Y0024594D01*
X0022364Y0024660D01*
X0022397Y0024727D01*
X0022330D01*
X0022242Y0024527D02*
X0022184D01*
Y0024727D01*
X0015513Y0022784D02*
X0015496Y0022818D01*
X0015488Y0022851D01*
Y0022918D01*
X0015496Y0022951D01*
X0015513Y0022984D01*
X0015529D01*
X0015546Y0022951D01*
X0015554Y0022918D01*
Y0022851D01*
X0015546Y0022818D01*
X0015529Y0022784D01*
X0015513D01*
X0015333Y0022818D02*
X0015349Y0022784D01*
X0015383D01*
X0015399Y0022818D01*
Y0022851D01*
X0015366Y0022918D01*
X0015399Y0022984D01*
X0015333D01*
X0015244Y0022818D02*
X0015236Y0022784D01*
X0015186D01*
X0015178Y0022818D01*
Y0022951D01*
X0015186Y0022984D01*
X0015236D01*
X0015244Y0022951D01*
X0017205Y0027926D02*
Y0027893D01*
Y0027909D02*
X0017005D01*
X0017039Y0027893D01*
X0017205Y0027788D02*
Y0027754D01*
Y0027771D02*
X0017005D01*
X0017039Y0027754D01*
X0017172Y0027649D02*
X0017205Y0027641D01*
Y0027591D01*
X0017172Y0027583D01*
X0017039D01*
X0017005Y0027591D01*
Y0027641D01*
X0017039Y0027649D01*
X0017657Y0021953D02*
X0017665Y0021986D01*
Y0022019D01*
X0017657Y0022053D01*
X0017607D01*
X0017599Y0022019D01*
Y0021986D01*
X0017607Y0021953D01*
X0017657D01*
X0017665Y0021919D01*
Y0021886D01*
X0017657Y0021853D01*
X0017607D01*
X0017599Y0021886D01*
Y0021919D01*
X0017607Y0021953D01*
X0017510Y0021853D02*
X0017452D01*
Y0022053D01*
X0021285Y0020596D02*
Y0020546D01*
X0021252Y0020538D01*
X0021219D01*
X0021185Y0020546D01*
Y0020596D01*
X0021219Y0020604D01*
X0021252D01*
X0021385Y0020571D01*
Y0020449D02*
Y0020383D01*
X0021252Y0020449D01*
X0021219D01*
X0021185Y0020441D01*
Y0020391D01*
X0021219Y0020383D01*
X0021352Y0020294D02*
X0021385Y0020286D01*
Y0020236D01*
X0021352Y0020228D01*
X0021219D01*
X0021185Y0020236D01*
Y0020286D01*
X0021219Y0020294D01*
X0014525Y0026572D02*
X0014492D01*
X0014509D02*
Y0026772D01*
X0014492Y0026739D01*
X0014387Y0026572D02*
X0014329D01*
Y0026772D01*
X0015463Y0023998D02*
X0015471Y0023964D01*
X0015521D01*
X0015529Y0023998D01*
Y0024064D01*
X0015513Y0024098D01*
X0015463D01*
Y0024164D01*
X0015529D01*
X0015374Y0023998D02*
X0015366Y0023964D01*
X0015316D01*
X0015308Y0023998D01*
Y0024131D01*
X0015316Y0024164D01*
X0015366D01*
X0015374Y0024131D01*
X0014555Y0019153D02*
Y0019119D01*
Y0019136D02*
X0014355D01*
X0014389Y0019119D01*
X0014522Y0019014D02*
X0014555Y0019006D01*
Y0018956D01*
X0014522Y0018948D01*
X0014389D01*
X0014355Y0018956D01*
Y0019006D01*
X0014389Y0019014D01*
X0019590Y0026370D02*
X0019557Y0026378D01*
X0019524D01*
X0019490Y0026370D01*
Y0026320D01*
X0019524Y0026311D01*
X0019557D01*
X0019590Y0026320D01*
Y0026370D01*
X0019624Y0026378D01*
X0019657D01*
X0019690Y0026370D01*
Y0026320D01*
X0019657Y0026311D01*
X0019624D01*
X0019590Y0026320D01*
X0019657Y0026223D02*
X0019690Y0026215D01*
Y0026165D01*
X0019657Y0026156D01*
X0019524D01*
X0019490Y0026165D01*
Y0026215D01*
X0019524Y0026223D01*
X0021703Y0025010D02*
X0021636D01*
X0021669Y0025144D01*
X0021686D01*
Y0024944D01*
X0021548D02*
X0021489D01*
Y0025144D01*
X0017610Y0027901D02*
X0017577Y0027884D01*
X0017544Y0027876D01*
X0017477D01*
X0017444Y0027884D01*
X0017410Y0027901D01*
Y0027918D01*
X0017444Y0027934D01*
X0017477Y0027943D01*
X0017544D01*
X0017577Y0027934D01*
X0017610Y0027918D01*
Y0027901D01*
Y0027788D02*
Y0027754D01*
Y0027771D02*
X0017410D01*
X0017444Y0027754D01*
X0017577Y0027649D02*
X0017610Y0027641D01*
Y0027591D01*
X0017577Y0027583D01*
X0017444D01*
X0017410Y0027591D01*
Y0027641D01*
X0017444Y0027649D01*
X0019684Y0031809D02*
X0019651D01*
X0019668D02*
Y0032009D01*
X0019651Y0031975D01*
X0019521Y0031909D02*
X0019546Y0031809D01*
X0019479Y0031909D02*
X0019529D01*
X0019546Y0031942D01*
Y0031975D01*
X0019529Y0032009D01*
X0019479D01*
Y0031809D01*
X0020722Y0025146D02*
X0020755Y0025154D01*
Y0025204D01*
X0020722Y0025213D01*
X0020655D01*
X0020622Y0025196D01*
Y0025146D01*
X0020555D01*
Y0025213D01*
X0020755Y0025058D02*
Y0025024D01*
Y0025041D02*
X0020555D01*
X0020589Y0025024D01*
X0020722Y0024919D02*
X0020755Y0024911D01*
Y0024861D01*
X0020722Y0024853D01*
X0020589D01*
X0020555Y0024861D01*
Y0024911D01*
X0020589Y0024919D01*
X0019810Y0020571D02*
X0019777Y0020579D01*
X0019744D01*
X0019710Y0020571D01*
Y0020521D01*
X0019744Y0020513D01*
X0019777D01*
X0019810Y0020521D01*
Y0020571D01*
X0019844Y0020579D01*
X0019877D01*
X0019910Y0020571D01*
Y0020521D01*
X0019877Y0020513D01*
X0019844D01*
X0019810Y0020521D01*
X0019910Y0020424D02*
Y0020358D01*
X0019777Y0020424D01*
X0019744D01*
X0019710Y0020416D01*
Y0020366D01*
X0019744Y0020358D01*
X0019877Y0020269D02*
X0019910Y0020261D01*
Y0020211D01*
X0019877Y0020203D01*
X0019744D01*
X0019710Y0020211D01*
Y0020261D01*
X0019744Y0020269D01*
X0024247Y0030001D02*
X0024264Y0029968D01*
X0024297D01*
X0024314Y0030001D01*
Y0030034D01*
X0024280Y0030101D01*
X0024314Y0030168D01*
X0024247D01*
X0024134Y0030068D02*
X0024159Y0029968D01*
X0024092Y0030068D02*
X0024142D01*
X0024159Y0030101D01*
Y0030134D01*
X0024142Y0030168D01*
X0024092D01*
Y0029968D01*
X0015548Y0023194D02*
X0015514D01*
X0015531D02*
Y0023394D01*
X0015514Y0023361D01*
X0015343Y0023228D02*
X0015359Y0023194D01*
X0015393D01*
X0015409Y0023228D01*
Y0023261D01*
X0015376Y0023328D01*
X0015409Y0023394D01*
X0015343D01*
X0015254Y0023228D02*
X0015246Y0023194D01*
X0015196D01*
X0015188Y0023228D01*
Y0023361D01*
X0015196Y0023394D01*
X0015246D01*
X0015254Y0023361D01*
X0019894Y0023265D02*
X0019910Y0023232D01*
X0019944D01*
X0019960Y0023265D01*
Y0023299D01*
X0019927Y0023365D01*
X0019960Y0023432D01*
X0019894D01*
X0019805Y0023232D02*
X0019739D01*
X0019805Y0023365D01*
Y0023399D01*
X0019797Y0023432D01*
X0019747D01*
X0019739Y0023399D01*
X0019650Y0023265D02*
X0019642Y0023232D01*
X0019592D01*
X0019584Y0023265D01*
Y0023399D01*
X0019592Y0023432D01*
X0019642D01*
X0019650Y0023399D01*
X0017169Y0021439D02*
X0017219Y0021639D01*
X0017153D01*
X0017064Y0021439D02*
X0016998D01*
X0017064Y0021573D01*
Y0021606D01*
X0017056Y0021639D01*
X0017006D01*
X0016998Y0021606D01*
X0016909Y0021473D02*
X0016901Y0021439D01*
X0016851D01*
X0016843Y0021473D01*
Y0021606D01*
X0016851Y0021639D01*
X0016901D01*
X0016909Y0021606D01*
X0020059Y0023777D02*
X0020109Y0023977D01*
X0020042D01*
X0019954Y0023777D02*
X0019920D01*
X0019937D02*
Y0023977D01*
X0019920Y0023944D01*
X0019815Y0023810D02*
X0019807Y0023777D01*
X0019757D01*
X0019749Y0023810D01*
Y0023944D01*
X0019757Y0023977D01*
X0019807D01*
X0019815Y0023944D01*
X0019180Y0023937D02*
X0019114D01*
X0019180Y0024070D01*
Y0024104D01*
X0019172Y0024137D01*
X0019122D01*
X0019114Y0024104D01*
X0019025Y0023937D02*
X0018959D01*
X0019025Y0024070D01*
Y0024104D01*
X0019017Y0024137D01*
X0018967D01*
X0018959Y0024104D01*
X0018870Y0023970D02*
X0018862Y0023937D01*
X0018812D01*
X0018804Y0023970D01*
Y0024104D01*
X0018812Y0024137D01*
X0018862D01*
X0018870Y0024104D01*
X0014818Y0022404D02*
X0014801Y0022438D01*
X0014793Y0022471D01*
Y0022538D01*
X0014801Y0022571D01*
X0014818Y0022604D01*
X0014834D01*
X0014851Y0022571D01*
X0014859Y0022538D01*
Y0022471D01*
X0014851Y0022438D01*
X0014834Y0022404D01*
X0014818D01*
X0014704D02*
X0014638D01*
X0014704Y0022538D01*
Y0022571D01*
X0014696Y0022604D01*
X0014646D01*
X0014638Y0022571D01*
X0014549Y0022438D02*
X0014541Y0022404D01*
X0014491D01*
X0014483Y0022438D01*
Y0022571D01*
X0014491Y0022604D01*
X0014541D01*
X0014549Y0022571D01*
X0022459Y0023688D02*
X0022509D01*
X0022517Y0023654D01*
Y0023621D01*
X0022509Y0023588D01*
X0022459D01*
X0022450Y0023621D01*
Y0023654D01*
X0022484Y0023788D01*
X0022362Y0023588D02*
X0022329D01*
X0022345D02*
Y0023788D01*
X0022329Y0023754D01*
X0022224Y0023621D02*
X0022215Y0023588D01*
X0022165D01*
X0022157Y0023621D01*
Y0023754D01*
X0022165Y0023788D01*
X0022215D01*
X0022224Y0023754D01*
X0020094Y0024899D02*
X0020027D01*
X0020060Y0025032D01*
X0020077D01*
Y0024832D01*
X0019939D02*
X0019905D01*
X0019922D02*
Y0025032D01*
X0019905Y0024999D01*
X0019800Y0024865D02*
X0019792Y0024832D01*
X0019742D01*
X0019734Y0024865D01*
Y0024999D01*
X0019742Y0025032D01*
X0019792D01*
X0019800Y0024999D01*
X0020740Y0020414D02*
X0020674D01*
X0020707Y0020547D01*
X0020724D01*
Y0020347D01*
X0020585D02*
X0020519D01*
X0020585Y0020480D01*
Y0020514D01*
X0020577Y0020547D01*
X0020527D01*
X0020519Y0020514D01*
X0020430Y0020380D02*
X0020422Y0020347D01*
X0020372D01*
X0020364Y0020380D01*
Y0020514D01*
X0020372Y0020547D01*
X0020422D01*
X0020430Y0020514D01*
X0014094Y0024129D02*
X0014044D01*
X0014036Y0024163D01*
Y0024196D01*
X0014044Y0024229D01*
X0014094D01*
X0014103Y0024196D01*
Y0024163D01*
X0014069Y0024029D01*
X0013948D02*
X0013914D01*
X0013931D02*
Y0024229D01*
X0013914Y0024196D01*
X0013809Y0024063D02*
X0013801Y0024029D01*
X0013751D01*
X0013743Y0024063D01*
Y0024196D01*
X0013751Y0024229D01*
X0013801D01*
X0013809Y0024196D01*
X0018367Y0023662D02*
X0018417D01*
X0018425Y0023629D01*
Y0023595D01*
X0018417Y0023562D01*
X0018367D01*
X0018359Y0023595D01*
Y0023629D01*
X0018392Y0023762D01*
X0018270Y0023562D02*
X0018204D01*
X0018270Y0023695D01*
Y0023729D01*
X0018262Y0023762D01*
X0018212D01*
X0018204Y0023729D01*
X0018115Y0023595D02*
X0018107Y0023562D01*
X0018057D01*
X0018049Y0023595D01*
Y0023729D01*
X0018057Y0023762D01*
X0018107D01*
X0018115Y0023729D01*
X0022530Y0024187D02*
X0022539Y0024220D01*
Y0024254D01*
X0022530Y0024287D01*
X0022480D01*
X0022472Y0024254D01*
Y0024220D01*
X0022480Y0024187D01*
X0022530D01*
X0022539Y0024154D01*
Y0024120D01*
X0022530Y0024087D01*
X0022480D01*
X0022472Y0024120D01*
Y0024154D01*
X0022480Y0024187D01*
X0022384Y0024087D02*
X0022350D01*
X0022367D02*
Y0024287D01*
X0022350Y0024254D01*
X0022245Y0024120D02*
X0022237Y0024087D01*
X0022187D01*
X0022179Y0024120D01*
Y0024254D01*
X0022187Y0024287D01*
X0022237D01*
X0022245Y0024254D01*
X0022512Y0022198D02*
X0022479D01*
X0022495D02*
Y0022398D01*
X0022479Y0022364D01*
X0022374Y0022198D02*
X0022307D01*
X0022374Y0022331D01*
Y0022364D01*
X0022365Y0022398D01*
X0022315D01*
X0022307Y0022364D01*
X0022219Y0022231D02*
X0022210Y0022198D01*
X0022160D01*
X0022152Y0022231D01*
Y0022364D01*
X0022160Y0022398D01*
X0022210D01*
X0022219Y0022364D01*
X0015486Y0023679D02*
X0015536D01*
X0015544Y0023646D01*
Y0023613D01*
X0015536Y0023579D01*
X0015486D01*
X0015478Y0023613D01*
Y0023646D01*
X0015511Y0023779D01*
X0015389Y0023613D02*
X0015381Y0023579D01*
X0015331D01*
X0015323Y0023613D01*
Y0023746D01*
X0015331Y0023779D01*
X0015381D01*
X0015389Y0023746D01*
X0020699Y0021537D02*
X0020682Y0021570D01*
X0020674Y0021604D01*
Y0021670D01*
X0020682Y0021704D01*
X0020699Y0021737D01*
X0020715D01*
X0020732Y0021704D01*
X0020740Y0021670D01*
Y0021604D01*
X0020732Y0021570D01*
X0020715Y0021537D01*
X0020699D01*
X0020585D02*
X0020552D01*
X0020569D02*
Y0021737D01*
X0020552Y0021704D01*
X0020447Y0021537D02*
X0020389D01*
Y0021737D01*
X0013964Y0022477D02*
X0014014D01*
X0014022Y0022444D01*
Y0022410D01*
X0014014Y0022377D01*
X0013964D01*
X0013955Y0022410D01*
Y0022444D01*
X0013989Y0022577D01*
X0013867Y0022377D02*
X0013809D01*
Y0022577D01*
X0021141Y0022947D02*
X0021149Y0022914D01*
X0021199D01*
X0021208Y0022947D01*
Y0023014D01*
X0021191Y0023047D01*
X0021141D01*
Y0023114D01*
X0021208D01*
X0021053Y0022914D02*
X0020994D01*
Y0023114D01*
X0024037Y0031872D02*
X0023987D01*
X0023979Y0031905D01*
Y0031939D01*
X0023987Y0031972D01*
X0024037D01*
X0024045Y0031939D01*
Y0031905D01*
X0024012Y0031772D01*
X0023890Y0031805D02*
X0023882Y0031772D01*
X0023832D01*
X0023824Y0031805D01*
Y0031939D01*
X0023832Y0031972D01*
X0023882D01*
X0023890Y0031939D01*
X0016285Y0022187D02*
X0016294Y0022220D01*
Y0022254D01*
X0016285Y0022287D01*
X0016235D01*
X0016227Y0022254D01*
Y0022220D01*
X0016235Y0022187D01*
X0016285D01*
X0016294Y0022154D01*
Y0022120D01*
X0016285Y0022087D01*
X0016235D01*
X0016227Y0022120D01*
Y0022154D01*
X0016235Y0022187D01*
X0016139Y0022087D02*
X0016105D01*
X0016122D02*
Y0022287D01*
X0016105Y0022254D01*
X0015975Y0022187D02*
X0016000Y0022087D01*
X0015934Y0022187D02*
X0015984D01*
X0016000Y0022220D01*
Y0022254D01*
X0015984Y0022287D01*
X0015934D01*
Y0022087D01*
X0019580Y0022590D02*
Y0021850D01*
X0019900D01*
Y0022590D01*
X0019580D01*
X0015045Y0025910D02*
Y0025170D01*
X0015365D01*
Y0025910D01*
X0015045D01*
X0014965Y0026415D02*
X0014225D01*
Y0026095D01*
X0014965D01*
Y0026415D01*
X0016490Y0027345D02*
Y0026605D01*
X0016810D01*
Y0027345D01*
X0016490D01*
X0018305Y0021830D02*
X0019045D01*
Y0022150D01*
X0018305D01*
Y0021830D01*
X0019495Y0023115D02*
X0018755D01*
Y0022795D01*
X0019495D01*
Y0023115D01*
X0016370Y0022665D02*
X0015630D01*
Y0022345D01*
X0016370D01*
Y0022665D01*
X0020920Y0021415D02*
X0020180D01*
Y0021095D01*
X0020920D01*
Y0021415D01*
X0014140Y0022990D02*
X0013400D01*
Y0022670D01*
X0014140D01*
Y0022990D01*
X0020920Y0023935D02*
Y0023195D01*
X0021240D01*
Y0023935D01*
X0020920D01*
X0024315Y0031640D02*
X0023575D01*
Y0031320D01*
X0024315D01*
Y0031640D01*
X0019515Y0021415D02*
X0018775D01*
Y0021095D01*
X0019515D01*
Y0021415D01*
X0016845Y0022495D02*
Y0023235D01*
X0016525D01*
Y0022495D01*
X0016845D01*
X0015160Y0018000D02*
Y0018740D01*
X0014840D01*
Y0018000D01*
X0015160D01*
X0021240Y0024845D02*
Y0025585D01*
X0020920D01*
Y0024845D01*
X0021240D01*
X0019432Y0025992D02*
Y0025252D01*
X0019752D01*
Y0025992D01*
X0019432D01*
X0023330Y0032380D02*
X0022590D01*
Y0032060D01*
X0023330D01*
Y0032380D01*
X0022045Y0024755D02*
X0021305D01*
Y0024435D01*
X0022045D01*
Y0024755D01*
X0015630Y0022750D02*
X0016370D01*
Y0023070D01*
X0015630D01*
Y0022750D01*
X0017265Y0026615D02*
Y0027355D01*
X0016945D01*
Y0026615D01*
X0017265D01*
X0018050Y0021850D02*
Y0022590D01*
X0017730D01*
Y0021850D01*
X0018050D01*
X0021445Y0020675D02*
Y0021415D01*
X0021125D01*
Y0020675D01*
X0021445D01*
X0015385Y0026810D02*
X0014645D01*
Y0026490D01*
X0015385D01*
Y0026810D01*
X0015630Y0023895D02*
X0016370D01*
Y0024215D01*
X0015630D01*
Y0023895D01*
X0019047Y0025992D02*
Y0025252D01*
X0019367D01*
Y0025992D01*
X0019047D01*
X0020920Y0024755D02*
Y0024015D01*
X0021240D01*
Y0024755D01*
X0020920D01*
X0017655Y0026615D02*
Y0027355D01*
X0017335D01*
Y0026615D01*
X0017655D01*
X0017210Y0022495D02*
Y0023235D01*
X0016890D01*
Y0022495D01*
X0017210D01*
X0019420Y0031640D02*
Y0030900D01*
X0019740D01*
Y0031640D01*
X0019420D01*
X0020825Y0024015D02*
Y0024755D01*
X0020505D01*
Y0024015D01*
X0020825D01*
X0019985Y0020675D02*
Y0021415D01*
X0019665D01*
Y0020675D01*
X0019985D01*
X0023970Y0029900D02*
Y0030640D01*
X0023650D01*
Y0029900D01*
X0023970D01*
X0015630Y0023130D02*
X0016370D01*
Y0023450D01*
X0015630D01*
Y0023130D01*
X0019495Y0023500D02*
X0018755D01*
Y0023180D01*
X0019495D01*
Y0023500D01*
X0017575Y0022495D02*
Y0023235D01*
X0017255D01*
Y0022495D01*
X0017575D01*
X0017305Y0021400D02*
X0018045D01*
Y0021720D01*
X0017305D01*
Y0021400D01*
X0020210Y0024335D02*
X0019470D01*
Y0024015D01*
X0020210D01*
Y0024335D01*
X0019495Y0023885D02*
X0018755D01*
Y0023565D01*
X0019495D01*
Y0023885D01*
X0014290Y0022670D02*
X0015030D01*
Y0022990D01*
X0014290D01*
Y0022670D01*
X0022045Y0023085D02*
Y0023825D01*
X0021725D01*
Y0023085D01*
X0022045D01*
X0020210Y0024755D02*
X0019470D01*
Y0024435D01*
X0020210D01*
Y0024755D01*
X0020920Y0020975D02*
X0020180D01*
Y0020655D01*
X0020920D01*
Y0020975D01*
X0013400Y0023620D02*
X0014140D01*
Y0023940D01*
X0013400D01*
Y0023620D01*
X0018605Y0023495D02*
X0017865D01*
Y0023175D01*
X0018605D01*
Y0023495D01*
X0022045Y0024335D02*
X0021305D01*
Y0024015D01*
X0022045D01*
Y0024335D01*
Y0022165D02*
Y0022905D01*
X0021725D01*
Y0022165D01*
X0022045D01*
X0015630Y0023525D02*
X0016370D01*
Y0023845D01*
X0015630D01*
Y0023525D01*
X0017745Y0027360D02*
Y0026620D01*
X0018065D01*
Y0027360D01*
X0017745D01*
X0014225Y0025170D02*
X0014965D01*
Y0025490D01*
X0014225D01*
Y0025170D01*
X0019500Y0021850D02*
Y0022590D01*
X0019180D01*
Y0021850D01*
X0019500D01*
G54D45*
G01X0017142Y0022318D02*
X0017175Y0022334D01*
Y0022368D01*
X0017142Y0022384D01*
X0017109D01*
X0017042Y0022351D01*
X0016975Y0022384D01*
Y0022318D01*
X0017142Y0022249D02*
X0017175Y0022241D01*
Y0022191D01*
X0017142Y0022183D01*
X0017009D01*
X0016975Y0022191D01*
Y0022241D01*
X0017009Y0022249D01*
X0017464Y0022389D02*
Y0022323D01*
X0017330Y0022356D01*
Y0022373D01*
X0017530D01*
X0017497Y0022254D02*
X0017530Y0022246D01*
Y0022196D01*
X0017497Y0022188D01*
X0017364D01*
X0017330Y0022196D01*
Y0022246D01*
X0017364Y0022254D01*
X0018898Y0016212D02*
X0018864D01*
X0018881D02*
Y0016412D01*
X0018864Y0016379D01*
X0016137Y0033501D02*
X0016104D01*
X0016121D02*
Y0033701D01*
X0016104Y0033668D01*
X0024286Y0033536D02*
X0024253D01*
X0024270D02*
Y0033736D01*
X0024253Y0033702D01*
X0010216Y0016195D02*
X0010183D01*
X0010199D02*
Y0016395D01*
X0010183Y0016362D01*
X0019090Y0022644D02*
Y0022215D01*
X0018161D01*
Y0022644D01*
X0019090D01*
X0014060Y0025575D02*
Y0026004D01*
X0014989D01*
Y0025575D01*
X0014060D01*
X0015681Y0025636D02*
Y0026874D01*
X0016211D01*
Y0025636D01*
X0015681D01*
X0014240Y0018765D02*
X0014669D01*
Y0017836D01*
X0014240D01*
Y0018765D01*
G54D46*
G01X0021800Y0024900D02*
X0021390D01*
X0021295Y0024805D01*
G54D47*
G01X0024470Y0017635D02*
Y0017575D01*
Y0017835D02*
Y0017775D01*
Y0018105D02*
Y0018085D01*
X0024480Y0017725D02*
Y0017665D01*
Y0017995D02*
Y0017925D01*
Y0018245D02*
Y0018175D01*
Y0018515D02*
Y0018455D01*
Y0018805D02*
Y0018635D01*
Y0019465D02*
Y0019385D01*
X0024490Y0017385D02*
Y0017315D01*
Y0017635D02*
Y0017575D01*
Y0017835D02*
Y0017775D01*
Y0018105D02*
Y0018075D01*
Y0018315D02*
Y0018255D01*
Y0018585D02*
Y0018555D01*
Y0018915D02*
Y0018855D01*
Y0019465D02*
Y0019385D01*
X0024500Y0017375D02*
Y0017305D01*
Y0017625D02*
Y0017575D01*
Y0017825D02*
Y0017775D01*
Y0018095D02*
Y0018075D01*
Y0018515D02*
Y0018455D01*
Y0018705D02*
Y0018635D01*
Y0019025D02*
Y0018975D01*
X0024510Y0016955D02*
Y0016865D01*
Y0017525D02*
Y0017475D01*
Y0017725D02*
Y0017675D01*
Y0017955D02*
Y0017895D01*
Y0018305D02*
Y0018255D01*
Y0018515D02*
Y0018455D01*
Y0018705D02*
Y0018635D01*
Y0019045D02*
Y0018975D01*
X0024520Y0016955D02*
Y0016865D01*
Y0017525D02*
Y0017475D01*
Y0017725D02*
Y0017675D01*
Y0017945D02*
Y0017885D01*
Y0018205D02*
Y0018185D01*
Y0018405D02*
Y0018355D01*
Y0018575D02*
Y0018555D01*
Y0018925D02*
Y0018855D01*
Y0019465D02*
Y0019385D01*
X0024530Y0017435D02*
Y0017285D01*
Y0017625D02*
Y0017565D01*
Y0017825D02*
Y0017765D01*
Y0018095D02*
Y0018065D01*
Y0018295D02*
Y0018245D01*
Y0018505D02*
Y0018445D01*
Y0018815D02*
Y0018635D01*
Y0019465D02*
Y0019385D01*
X0024540Y0017435D02*
Y0017275D01*
Y0017815D02*
Y0017685D01*
Y0018095D02*
Y0018065D01*
Y0018495D02*
Y0018355D01*
Y0018815D02*
Y0018635D01*
Y0019465D02*
Y0019385D01*
X0024550Y0017435D02*
Y0017275D01*
Y0017815D02*
Y0017685D01*
Y0018085D02*
Y0018065D01*
Y0018495D02*
Y0018365D01*
Y0018815D02*
Y0018635D01*
Y0019465D02*
Y0019385D01*
X0024560Y0017435D02*
Y0017275D01*
Y0017805D02*
Y0017705D01*
Y0018085D02*
Y0018065D01*
Y0018485D02*
Y0018375D01*
Y0018815D02*
Y0018635D01*
Y0019465D02*
Y0019385D01*
X0024570Y0017435D02*
Y0017265D01*
Y0017775D02*
Y0017725D01*
Y0018085D02*
Y0018055D01*
Y0018455D02*
Y0018405D01*
Y0018815D02*
Y0018635D01*
Y0019465D02*
Y0019385D01*
X0024580Y0019465D02*
Y0019385D01*
X0024590Y0019465D02*
Y0019385D01*
X0024600Y0019465D02*
Y0019385D01*
X0024610Y0019465D02*
Y0019385D01*
X0024620Y0019465D02*
Y0019385D01*
X0024630Y0019465D02*
Y0019385D01*
X0024640Y0019465D02*
Y0019385D01*
X0024650Y0019465D02*
Y0019385D01*
X0024660Y0019465D02*
Y0019385D01*
X0024670Y0019465D02*
Y0019385D01*
X0024690Y0019465D02*
Y0019385D01*
X0024700Y0019465D02*
Y0019385D01*
X0024710Y0019465D02*
Y0019385D01*
X0024720Y0019465D02*
Y0019385D01*
X0024730Y0019465D02*
Y0019385D01*
X0024740Y0019465D02*
Y0019385D01*
X0024750Y0019465D02*
Y0019385D01*
X0024790Y0019465D02*
Y0016865D01*
X0024810Y0019465D02*
Y0016865D01*
X0024730Y0016955D02*
Y0016865D01*
X0024740Y0016955D02*
Y0016865D01*
X0024750Y0016955D02*
Y0016865D01*
X0024800Y0019465D02*
Y0016865D01*
X0023020Y0019465D02*
Y0016865D01*
X0023030Y0019465D02*
Y0016865D01*
X0023040Y0019465D02*
Y0016865D01*
X0023050Y0016955D02*
Y0016865D01*
Y0019465D02*
Y0019385D01*
X0023080Y0019465D02*
Y0019385D01*
X0023090Y0016955D02*
Y0016865D01*
Y0019465D02*
Y0019385D01*
X0023100Y0016955D02*
Y0016865D01*
Y0019465D02*
Y0019385D01*
X0023110Y0016955D02*
Y0016865D01*
Y0019465D02*
Y0019385D01*
X0023120Y0016955D02*
Y0016865D01*
X0023130Y0019465D02*
Y0019385D01*
X0023140Y0016955D02*
Y0016865D01*
Y0019465D02*
Y0019385D01*
X0023150Y0016955D02*
Y0016865D01*
Y0019465D02*
Y0019385D01*
X0023160Y0016955D02*
Y0016865D01*
Y0019465D02*
Y0019385D01*
X0023170Y0016955D02*
Y0016865D01*
Y0019465D02*
Y0019385D01*
X0023180Y0016955D02*
Y0016865D01*
Y0019465D02*
Y0019385D01*
X0023190Y0016955D02*
Y0016865D01*
Y0019465D02*
Y0019385D01*
X0023200Y0016955D02*
Y0016865D01*
Y0019465D02*
Y0019385D01*
X0023210Y0016955D02*
Y0016865D01*
Y0019465D02*
Y0019385D01*
X0023220Y0016955D02*
Y0016865D01*
Y0019465D02*
Y0019385D01*
X0023230Y0016955D02*
Y0016865D01*
Y0019465D02*
Y0019385D01*
X0023240Y0016955D02*
Y0016865D01*
Y0019465D02*
Y0019385D01*
X0023250Y0016955D02*
Y0016865D01*
Y0019465D02*
Y0019385D01*
X0023260Y0016955D02*
Y0016865D01*
Y0019465D02*
Y0019385D01*
X0023270Y0016955D02*
Y0016865D01*
Y0018985D02*
Y0018835D01*
Y0019465D02*
Y0019385D01*
X0023280Y0016955D02*
Y0016865D01*
Y0017585D02*
Y0017255D01*
Y0018345D02*
Y0018185D01*
Y0018625D02*
Y0018465D01*
Y0019025D02*
Y0018795D01*
Y0019465D02*
Y0019385D01*
X0023290Y0016955D02*
Y0016865D01*
Y0017615D02*
Y0017255D01*
Y0018345D02*
Y0018185D01*
Y0018625D02*
Y0018465D01*
Y0019045D02*
Y0018775D01*
Y0019465D02*
Y0019385D01*
X0023300Y0016955D02*
Y0016865D01*
Y0017635D02*
Y0017255D01*
Y0018345D02*
Y0018185D01*
Y0018625D02*
Y0018465D01*
Y0019065D02*
Y0018755D01*
Y0019465D02*
Y0019385D01*
X0023310Y0016955D02*
Y0016865D01*
Y0017645D02*
Y0017255D01*
Y0018345D02*
Y0018185D01*
Y0018625D02*
Y0018465D01*
Y0019075D02*
Y0018745D01*
Y0019465D02*
Y0019385D01*
X0023320Y0016955D02*
Y0016865D01*
Y0017655D02*
Y0017255D01*
Y0018345D02*
Y0018185D01*
Y0018625D02*
Y0018465D01*
Y0019085D02*
Y0018735D01*
Y0019465D02*
Y0019385D01*
X0023330Y0016955D02*
Y0016865D01*
Y0017665D02*
Y0017255D01*
Y0018345D02*
Y0018185D01*
Y0018625D02*
Y0018465D01*
Y0019095D02*
Y0018725D01*
Y0019465D02*
Y0019385D01*
X0023340Y0016955D02*
Y0016865D01*
Y0017665D02*
Y0017255D01*
Y0018345D02*
Y0018185D01*
Y0018625D02*
Y0018465D01*
Y0019095D02*
Y0018725D01*
Y0019465D02*
Y0019385D01*
X0023350Y0016955D02*
Y0016865D01*
Y0017675D02*
Y0017255D01*
Y0018345D02*
Y0018185D01*
Y0018625D02*
Y0018465D01*
Y0019105D02*
Y0018715D01*
Y0019465D02*
Y0019385D01*
X0023360Y0016955D02*
Y0016865D01*
Y0017675D02*
Y0017255D01*
Y0018345D02*
Y0018185D01*
Y0018625D02*
Y0018465D01*
Y0018885D02*
Y0018715D01*
Y0019105D02*
Y0018925D01*
Y0019465D02*
Y0019385D01*
X0023370Y0016955D02*
Y0016865D01*
Y0017685D02*
Y0017255D01*
Y0018345D02*
Y0018185D01*
Y0018625D02*
Y0018465D01*
Y0018875D02*
Y0018705D01*
Y0019105D02*
Y0018935D01*
Y0019465D02*
Y0019385D01*
X0023380Y0016955D02*
Y0016865D01*
Y0017685D02*
Y0017255D01*
Y0018345D02*
Y0018185D01*
Y0018625D02*
Y0018465D01*
Y0018865D02*
Y0018705D01*
Y0019115D02*
Y0018945D01*
Y0019465D02*
Y0019385D01*
X0023390Y0016955D02*
Y0016865D01*
Y0017415D02*
Y0017255D01*
Y0017685D02*
Y0017495D01*
Y0017985D02*
Y0017865D01*
Y0018345D02*
Y0018185D01*
Y0018625D02*
Y0018465D01*
Y0018865D02*
Y0018705D01*
Y0019115D02*
Y0018945D01*
Y0019465D02*
Y0019385D01*
X0023400Y0016955D02*
Y0016865D01*
Y0017415D02*
Y0017255D01*
Y0017685D02*
Y0017515D01*
Y0018015D02*
Y0017835D01*
Y0018345D02*
Y0018185D01*
Y0018625D02*
Y0018465D01*
Y0018875D02*
Y0018705D01*
Y0019115D02*
Y0018955D01*
Y0019465D02*
Y0019385D01*
X0023410Y0016955D02*
Y0016865D01*
Y0017415D02*
Y0017255D01*
Y0017685D02*
Y0017525D01*
Y0018045D02*
Y0017815D01*
Y0018345D02*
Y0018185D01*
Y0018625D02*
Y0018465D01*
Y0018895D02*
Y0018705D01*
Y0019085D02*
Y0018955D01*
Y0019465D02*
Y0019385D01*
X0023420Y0016955D02*
Y0016865D01*
Y0017415D02*
Y0017255D01*
Y0017685D02*
Y0017525D01*
Y0018055D02*
Y0017795D01*
Y0018345D02*
Y0018185D01*
Y0018625D02*
Y0018465D01*
Y0018935D02*
Y0018705D01*
Y0019465D02*
Y0019385D01*
X0023430Y0016955D02*
Y0016865D01*
Y0017415D02*
Y0017255D01*
Y0017685D02*
Y0017525D01*
Y0018065D02*
Y0017785D01*
Y0018345D02*
Y0018185D01*
Y0018625D02*
Y0018465D01*
Y0018975D02*
Y0018705D01*
Y0019465D02*
Y0019385D01*
X0023440Y0016955D02*
Y0016865D01*
Y0017415D02*
Y0017255D01*
Y0017685D02*
Y0017515D01*
Y0018075D02*
Y0017775D01*
Y0018625D02*
Y0018185D01*
Y0019005D02*
Y0018715D01*
Y0019465D02*
Y0019385D01*
X0023450Y0016955D02*
Y0016865D01*
Y0017415D02*
Y0017255D01*
Y0017675D02*
Y0017485D01*
Y0018085D02*
Y0017765D01*
Y0018625D02*
Y0018185D01*
Y0019035D02*
Y0018715D01*
Y0019465D02*
Y0019385D01*
X0023460Y0016955D02*
Y0016865D01*
Y0017675D02*
Y0017255D01*
Y0018095D02*
Y0017755D01*
Y0018625D02*
Y0018185D01*
Y0019055D02*
Y0018725D01*
Y0019465D02*
Y0019385D01*
X0023470Y0016955D02*
Y0016865D01*
Y0017675D02*
Y0017255D01*
Y0018105D02*
Y0017745D01*
Y0018625D02*
Y0018185D01*
Y0019065D02*
Y0018725D01*
Y0019465D02*
Y0019385D01*
X0023480Y0016955D02*
Y0016865D01*
Y0017665D02*
Y0017255D01*
Y0017915D02*
Y0017745D01*
Y0018105D02*
Y0017935D01*
Y0018625D02*
Y0018185D01*
Y0019085D02*
Y0018735D01*
Y0019465D02*
Y0019385D01*
X0023490Y0016955D02*
Y0016865D01*
Y0017655D02*
Y0017255D01*
Y0017895D02*
Y0017735D01*
Y0018115D02*
Y0017955D01*
X0024760Y0019465D02*
Y0016865D01*
X0024770Y0019465D02*
Y0016865D01*
X0024780Y0019465D02*
Y0016865D01*
X0023500Y0016955D02*
Y0016865D01*
Y0017645D02*
Y0017255D01*
Y0017885D02*
Y0017735D01*
X0024820Y0019465D02*
Y0016865D01*
X0024830Y0019465D02*
Y0016865D01*
X0024840Y0019465D02*
Y0016865D01*
X0024850Y0019465D02*
Y0016865D01*
X0024860Y0019465D02*
Y0016865D01*
X0022970Y0019465D02*
Y0016865D01*
X0022980Y0019465D02*
Y0016865D01*
X0022990Y0019465D02*
Y0016865D01*
X0023000Y0019465D02*
Y0016865D01*
X0023010Y0019465D02*
Y0016865D01*
X0023060Y0016955D02*
Y0016865D01*
Y0019465D02*
Y0019385D01*
X0023070Y0016955D02*
Y0016865D01*
Y0019465D02*
Y0019385D01*
X0023080Y0016955D02*
Y0016865D01*
X0023530Y0017875D02*
Y0017725D01*
Y0018125D02*
Y0017975D01*
Y0018625D02*
Y0018185D01*
Y0019115D02*
Y0018835D01*
Y0019465D02*
Y0019385D01*
X0023540Y0016955D02*
Y0016865D01*
Y0017595D02*
Y0017255D01*
Y0017875D02*
Y0017725D01*
X0023120Y0019465D02*
Y0019385D01*
X0023130Y0016955D02*
Y0016865D01*
X0023540Y0019115D02*
Y0018865D01*
Y0019465D02*
Y0019385D01*
X0023550Y0016955D02*
Y0016865D01*
Y0017615D02*
Y0017255D01*
Y0017875D02*
Y0017725D01*
Y0018125D02*
Y0017975D01*
Y0018625D02*
Y0018185D01*
Y0019125D02*
Y0018915D01*
Y0019465D02*
Y0019385D01*
X0023560Y0016955D02*
Y0016865D01*
Y0017415D02*
Y0017255D01*
Y0017625D02*
Y0017435D01*
Y0017875D02*
Y0017725D01*
Y0018125D02*
Y0017975D01*
Y0018345D02*
Y0018185D01*
Y0018625D02*
Y0018465D01*
Y0019125D02*
Y0018935D01*
Y0019465D02*
Y0019385D01*
X0023570Y0016955D02*
Y0016865D01*
Y0017415D02*
Y0017255D01*
Y0017625D02*
Y0017455D01*
Y0017875D02*
Y0017725D01*
Y0018125D02*
Y0017975D01*
Y0018345D02*
Y0018185D01*
Y0018625D02*
Y0018465D01*
Y0018845D02*
Y0018705D01*
Y0019125D02*
Y0018955D01*
Y0019465D02*
Y0019385D01*
X0023580Y0016955D02*
Y0016865D01*
Y0017415D02*
Y0017255D01*
Y0017635D02*
Y0017455D01*
Y0017875D02*
Y0017725D01*
Y0018125D02*
Y0017975D01*
Y0018345D02*
Y0018185D01*
Y0018625D02*
Y0018465D01*
Y0018845D02*
Y0018685D01*
Y0019125D02*
Y0018965D01*
Y0019465D02*
Y0019385D01*
X0023590Y0016955D02*
Y0016865D01*
Y0017415D02*
Y0017255D01*
Y0017645D02*
Y0017465D01*
Y0017875D02*
Y0017725D01*
Y0018125D02*
Y0017975D01*
Y0018345D02*
Y0018185D01*
Y0018625D02*
Y0018465D01*
Y0018855D02*
Y0018685D01*
Y0019125D02*
Y0018965D01*
Y0019465D02*
Y0019385D01*
X0023600Y0016955D02*
Y0016865D01*
Y0017415D02*
Y0017255D01*
Y0017655D02*
Y0017475D01*
Y0017875D02*
Y0017725D01*
Y0018125D02*
Y0017975D01*
Y0018345D02*
Y0018185D01*
Y0018625D02*
Y0018465D01*
Y0018855D02*
Y0018685D01*
Y0019125D02*
Y0018965D01*
Y0019465D02*
Y0019385D01*
X0023610Y0016955D02*
Y0016865D01*
Y0017415D02*
Y0017255D01*
Y0017655D02*
Y0017475D01*
Y0017885D02*
Y0017725D01*
Y0018125D02*
Y0017965D01*
Y0018345D02*
Y0018185D01*
Y0018625D02*
Y0018465D01*
Y0018865D02*
Y0018685D01*
Y0019125D02*
Y0018955D01*
Y0019465D02*
Y0019385D01*
X0023620Y0016955D02*
Y0016865D01*
Y0017415D02*
Y0017255D01*
Y0017665D02*
Y0017485D01*
Y0017885D02*
Y0017735D01*
Y0018115D02*
Y0017965D01*
Y0018345D02*
Y0018185D01*
Y0018625D02*
Y0018465D01*
Y0018875D02*
Y0018695D01*
Y0019125D02*
Y0018955D01*
Y0019465D02*
Y0019385D01*
X0023630Y0016955D02*
Y0016865D01*
Y0017415D02*
Y0017255D01*
Y0017665D02*
Y0017485D01*
Y0017885D02*
Y0017735D01*
Y0018115D02*
Y0017965D01*
Y0018345D02*
Y0018185D01*
Y0018625D02*
Y0018465D01*
Y0018895D02*
Y0018695D01*
Y0019115D02*
Y0018935D01*
Y0019465D02*
Y0019385D01*
X0023640Y0016955D02*
Y0016865D01*
Y0017415D02*
Y0017255D01*
Y0017675D02*
Y0017495D01*
Y0017895D02*
Y0017735D01*
Y0018115D02*
Y0017955D01*
Y0018345D02*
Y0018185D01*
Y0018625D02*
Y0018465D01*
Y0019115D02*
Y0018695D01*
Y0019465D02*
Y0019385D01*
X0023650Y0016955D02*
Y0016865D01*
Y0017415D02*
Y0017255D01*
Y0018105D02*
Y0017935D01*
Y0018345D02*
Y0018185D01*
Y0018625D02*
Y0018465D01*
Y0019105D02*
Y0018705D01*
Y0019465D02*
Y0019385D01*
X0023660Y0016955D02*
Y0016865D01*
Y0017415D02*
Y0017255D01*
Y0017685D02*
Y0017505D01*
Y0018105D02*
Y0017745D01*
Y0018345D02*
Y0018185D01*
Y0018625D02*
Y0018465D01*
Y0019105D02*
Y0018705D01*
Y0019465D02*
Y0019385D01*
X0023670Y0016955D02*
Y0016865D01*
Y0017415D02*
Y0017255D01*
Y0017695D02*
Y0017515D01*
Y0018095D02*
Y0017755D01*
Y0018345D02*
Y0018185D01*
Y0018625D02*
Y0018465D01*
Y0019095D02*
Y0018715D01*
Y0019465D02*
Y0019385D01*
X0023680Y0016955D02*
Y0016865D01*
Y0017415D02*
Y0017255D01*
Y0017695D02*
Y0017515D01*
Y0018085D02*
Y0017765D01*
Y0018345D02*
Y0018185D01*
Y0018625D02*
Y0018465D01*
Y0019085D02*
Y0018725D01*
Y0019465D02*
Y0019385D01*
X0023690Y0016955D02*
Y0016865D01*
Y0017415D02*
Y0017255D01*
Y0017705D02*
Y0017525D01*
X0023700Y0019065D02*
Y0018735D01*
Y0019465D02*
Y0019385D01*
X0023710Y0016955D02*
Y0016865D01*
Y0018625D02*
Y0018465D01*
Y0019465D02*
Y0019385D01*
X0023720Y0016955D02*
Y0016865D01*
Y0017415D02*
Y0017255D01*
Y0017725D02*
Y0017545D01*
Y0018345D02*
Y0018185D01*
Y0019035D02*
Y0018765D01*
Y0019465D02*
Y0019385D01*
X0023730Y0016955D02*
Y0016865D01*
Y0017415D02*
Y0017255D01*
Y0017715D02*
Y0017545D01*
Y0018015D02*
Y0017835D01*
Y0018345D02*
Y0018185D01*
Y0018625D02*
Y0018465D01*
Y0019015D02*
Y0018795D01*
Y0019465D02*
Y0019385D01*
X0023740Y0016955D02*
Y0016865D01*
Y0017985D02*
Y0017865D01*
Y0018985D02*
Y0018825D01*
Y0019465D02*
Y0019385D01*
X0023750Y0016955D02*
Y0016865D01*
Y0019465D02*
Y0019385D01*
X0023760Y0016955D02*
Y0016865D01*
Y0019465D02*
Y0019385D01*
X0023770Y0016955D02*
Y0016865D01*
X0023490Y0018625D02*
Y0018185D01*
Y0019095D02*
Y0018745D01*
Y0019465D02*
Y0019385D01*
X0023790Y0016955D02*
Y0016865D01*
Y0019465D02*
Y0019385D01*
X0023800Y0016955D02*
Y0016865D01*
X0023500Y0018115D02*
Y0017965D01*
Y0018625D02*
Y0018185D01*
Y0019095D02*
Y0018765D01*
Y0019465D02*
Y0019385D01*
X0023510Y0016955D02*
Y0016865D01*
Y0017635D02*
Y0017255D01*
Y0017885D02*
Y0017735D01*
Y0018115D02*
Y0017965D01*
Y0018625D02*
Y0018185D01*
Y0019105D02*
Y0018785D01*
Y0019465D02*
Y0019385D01*
X0023520Y0016955D02*
Y0016865D01*
Y0017625D02*
Y0017255D01*
Y0017885D02*
Y0017725D01*
Y0018125D02*
Y0017965D01*
Y0018625D02*
Y0018185D01*
Y0019115D02*
Y0018805D01*
Y0019465D02*
Y0019385D01*
X0023530Y0016955D02*
Y0016865D01*
Y0017605D02*
Y0017255D01*
X0023900Y0019465D02*
Y0019385D01*
X0023910Y0016955D02*
Y0016865D01*
Y0019465D02*
Y0019385D01*
X0023920Y0016955D02*
Y0016865D01*
Y0019465D02*
Y0019385D01*
X0023930Y0016955D02*
Y0016865D01*
Y0019465D02*
Y0019385D01*
X0023940Y0016955D02*
Y0016865D01*
X0023540Y0018125D02*
Y0017975D01*
Y0018625D02*
Y0018185D01*
X0023950Y0019465D02*
Y0019385D01*
X0023960Y0016955D02*
Y0016865D01*
Y0019465D02*
Y0019385D01*
X0023970Y0016955D02*
Y0016865D01*
Y0019465D02*
Y0019385D01*
X0023980Y0016955D02*
Y0016865D01*
X0023984Y0017230D02*
Y0017150D01*
Y0017490D02*
Y0017400D01*
Y0018099D02*
Y0017939D01*
Y0018248D02*
Y0018168D01*
Y0018468D02*
Y0018388D01*
Y0018692D02*
Y0018592D01*
X0023988Y0018872D02*
Y0018802D01*
Y0019032D02*
Y0018962D01*
Y0019282D02*
Y0019062D01*
X0023980Y0019465D02*
Y0019385D01*
X0023990Y0016955D02*
Y0016865D01*
X0023994Y0017260D02*
Y0017120D01*
Y0017510D02*
Y0017380D01*
Y0018109D02*
Y0017939D01*
Y0018248D02*
Y0018168D01*
Y0018468D02*
Y0018388D01*
Y0018702D02*
Y0018582D01*
X0023998Y0018882D02*
Y0018802D01*
Y0019032D02*
Y0018962D01*
X0024000Y0016955D02*
Y0016865D01*
X0024004Y0018118D02*
Y0017939D01*
Y0018248D02*
Y0018168D01*
Y0018468D02*
Y0018388D01*
Y0018702D02*
Y0018582D01*
X0024008Y0018892D02*
Y0018802D01*
Y0019032D02*
Y0018962D01*
Y0019282D02*
Y0019062D01*
X0024000Y0019465D02*
Y0019385D01*
X0024010Y0016955D02*
Y0016865D01*
X0024014Y0017280D02*
Y0017100D01*
Y0017540D02*
Y0017350D01*
Y0018128D02*
Y0017939D01*
Y0018248D02*
Y0018168D01*
Y0018468D02*
Y0018388D01*
Y0018702D02*
Y0018582D01*
X0024018Y0018892D02*
Y0018802D01*
Y0019032D02*
Y0018962D01*
Y0019282D02*
Y0019062D01*
X0024010Y0019465D02*
Y0019385D01*
X0024020Y0016955D02*
Y0016865D01*
X0024024Y0017280D02*
Y0017090D01*
Y0017550D02*
Y0017340D01*
Y0018128D02*
Y0017939D01*
Y0018248D02*
Y0018168D01*
Y0018468D02*
Y0018388D01*
Y0018712D02*
Y0018572D01*
X0024028Y0018902D02*
Y0018802D01*
Y0019032D02*
Y0018962D01*
Y0019282D02*
Y0019062D01*
X0024020Y0019465D02*
Y0019385D01*
X0024030Y0016955D02*
Y0016865D01*
X0024034Y0017170D02*
Y0017090D01*
Y0017290D02*
Y0017200D01*
Y0017430D02*
Y0017340D01*
Y0017550D02*
Y0017460D01*
Y0018019D02*
Y0017939D01*
Y0018138D02*
Y0018049D01*
Y0018248D02*
Y0018168D01*
Y0018468D02*
Y0018388D01*
Y0018712D02*
Y0018572D01*
X0024038Y0018912D02*
Y0018802D01*
Y0019032D02*
Y0018962D01*
Y0019212D02*
Y0019132D01*
X0024030Y0019465D02*
Y0019385D01*
X0024040Y0016955D02*
Y0016865D01*
X0024044Y0017160D02*
Y0017080D01*
Y0017290D02*
Y0017210D01*
Y0017410D02*
Y0017330D01*
Y0017560D02*
Y0017480D01*
Y0018019D02*
Y0017939D01*
Y0018138D02*
Y0018059D01*
Y0018248D02*
Y0018168D01*
Y0018468D02*
Y0018388D01*
Y0018712D02*
Y0018572D01*
X0024048Y0018912D02*
Y0018802D01*
Y0019032D02*
Y0018962D01*
Y0019212D02*
Y0019132D01*
X0024040Y0019465D02*
Y0019385D01*
X0024050Y0016955D02*
Y0016865D01*
X0024054Y0017150D02*
Y0017080D01*
Y0017290D02*
Y0017220D01*
Y0017400D02*
Y0017330D01*
Y0017560D02*
Y0017490D01*
Y0018019D02*
Y0017939D01*
Y0018138D02*
Y0018059D01*
Y0018248D02*
Y0018168D01*
Y0018468D02*
Y0018388D01*
Y0018722D02*
Y0018562D01*
X0024058Y0018922D02*
Y0018802D01*
X0023650Y0017675D02*
Y0017495D01*
Y0017915D02*
Y0017745D01*
X0024050Y0019465D02*
Y0019385D01*
X0024060Y0016955D02*
Y0016865D01*
X0024064Y0017150D02*
Y0017080D01*
Y0017250D02*
Y0017220D01*
Y0017400D02*
Y0017330D01*
Y0017560D02*
Y0017490D01*
Y0018019D02*
Y0017939D01*
Y0018138D02*
Y0018059D01*
Y0018248D02*
Y0018168D01*
Y0018468D02*
Y0018388D01*
Y0018632D02*
Y0018562D01*
X0024068Y0018932D02*
Y0018802D01*
Y0019212D02*
Y0019132D01*
X0024060Y0019465D02*
Y0019385D01*
X0024070Y0016955D02*
Y0016865D01*
X0024074Y0017150D02*
Y0017070D01*
Y0017400D02*
Y0017320D01*
Y0017570D02*
Y0017490D01*
Y0018019D02*
Y0017939D01*
Y0018128D02*
Y0018049D01*
Y0018248D02*
Y0018168D01*
Y0018468D02*
Y0018388D01*
Y0018632D02*
Y0018562D01*
Y0018722D02*
Y0018652D01*
X0024078Y0018942D02*
Y0018802D01*
Y0019032D02*
Y0018962D01*
Y0019212D02*
Y0019132D01*
X0024070Y0019465D02*
Y0019385D01*
X0024080Y0016955D02*
Y0016865D01*
X0024084Y0017150D02*
Y0017070D01*
X0023690Y0018075D02*
Y0017775D01*
Y0018345D02*
Y0018185D01*
Y0018625D02*
Y0018465D01*
Y0019085D02*
Y0018735D01*
Y0019465D02*
Y0019385D01*
X0023700Y0016955D02*
Y0016865D01*
Y0017415D02*
Y0017255D01*
Y0017705D02*
Y0017525D01*
Y0018065D02*
Y0017785D01*
Y0018345D02*
Y0018185D01*
Y0018625D02*
Y0018465D01*
X0023710Y0017415D02*
Y0017255D01*
Y0017715D02*
Y0017535D01*
Y0018055D02*
Y0017795D01*
Y0018345D02*
Y0018185D01*
X0024094Y0018622D02*
Y0018552D01*
X0023710Y0019055D02*
Y0018755D01*
X0024098Y0018872D02*
Y0018802D01*
Y0018952D02*
Y0018882D01*
Y0019032D02*
Y0018962D01*
Y0019212D02*
Y0019132D01*
X0023720Y0018035D02*
Y0017815D01*
Y0018625D02*
Y0018465D01*
X0024104Y0017570D02*
Y0017490D01*
Y0018118D02*
Y0017939D01*
Y0018248D02*
Y0018168D01*
Y0018468D02*
Y0018388D01*
Y0018622D02*
Y0018552D01*
Y0018732D02*
Y0018662D01*
X0024108Y0018872D02*
Y0018802D01*
Y0019032D02*
Y0018892D01*
Y0019212D02*
Y0019132D01*
X0024100Y0019465D02*
Y0019385D01*
X0024110Y0016955D02*
Y0016865D01*
X0024114Y0017150D02*
Y0017070D01*
Y0017250D02*
Y0017220D01*
Y0017400D02*
Y0017320D01*
Y0017570D02*
Y0017490D01*
Y0018109D02*
Y0017939D01*
Y0018248D02*
Y0018168D01*
Y0018468D02*
Y0018388D01*
X0023770Y0019465D02*
Y0019385D01*
X0023780Y0016955D02*
Y0016865D01*
Y0019465D02*
Y0019385D01*
X0024118Y0019212D02*
Y0019132D01*
X0024110Y0019465D02*
Y0019385D01*
X0024120Y0016955D02*
Y0016865D01*
X0023800Y0019465D02*
Y0019385D01*
X0023810Y0016955D02*
Y0016865D01*
Y0019465D02*
Y0019385D01*
X0023820Y0016955D02*
Y0016865D01*
Y0019465D02*
Y0019385D01*
X0023830Y0016955D02*
Y0016865D01*
Y0019465D02*
Y0019385D01*
X0023840Y0016955D02*
Y0016865D01*
Y0019465D02*
Y0019385D01*
X0023850Y0016955D02*
Y0016865D01*
Y0019465D02*
Y0019385D01*
X0023860Y0016955D02*
Y0016865D01*
Y0019465D02*
Y0019385D01*
X0023870Y0016955D02*
Y0016865D01*
Y0019465D02*
Y0019385D01*
X0023880Y0016955D02*
Y0016865D01*
Y0019465D02*
Y0019385D01*
X0023890Y0016955D02*
Y0016865D01*
Y0019465D02*
Y0019385D01*
X0023900Y0016955D02*
Y0016865D01*
X0024134Y0018742D02*
Y0018542D01*
X0024138Y0018872D02*
Y0018802D01*
Y0019032D02*
Y0018912D01*
Y0019212D02*
Y0019132D01*
X0024130Y0019465D02*
Y0019385D01*
X0024140Y0016955D02*
Y0016865D01*
X0024144Y0017160D02*
Y0017080D01*
Y0017290D02*
Y0017210D01*
X0023940Y0019465D02*
Y0019385D01*
X0023950Y0016955D02*
Y0016865D01*
X0024144Y0018019D02*
Y0017939D01*
Y0018248D02*
Y0018168D01*
Y0018468D02*
Y0018388D01*
Y0018752D02*
Y0018532D01*
X0024148Y0018872D02*
Y0018802D01*
Y0019032D02*
Y0018922D01*
Y0019212D02*
Y0019132D01*
X0024140Y0019465D02*
Y0019385D01*
X0024150Y0016955D02*
Y0016865D01*
X0024154Y0017170D02*
Y0017090D01*
Y0017290D02*
Y0017200D01*
Y0017430D02*
Y0017340D01*
Y0017550D02*
Y0017470D01*
Y0018019D02*
Y0017939D01*
Y0018348D02*
Y0018168D01*
Y0018468D02*
Y0018388D01*
Y0018752D02*
Y0018532D01*
X0024158Y0018872D02*
Y0018802D01*
X0024164Y0017280D02*
Y0017090D01*
X0023998Y0019282D02*
Y0019062D01*
X0023990Y0019465D02*
Y0019385D01*
X0024004Y0017270D02*
Y0017110D01*
Y0017530D02*
Y0017360D01*
X0024168Y0019212D02*
Y0019132D01*
X0024204Y0017490D02*
Y0017400D01*
Y0018019D02*
Y0017939D01*
Y0018468D02*
Y0018388D01*
Y0018592D02*
Y0018512D01*
Y0018772D02*
Y0018692D01*
X0024208Y0018872D02*
Y0018802D01*
Y0019032D02*
Y0018962D01*
Y0019212D02*
Y0019132D01*
X0024210Y0016955D02*
Y0016865D01*
X0024220Y0016955D02*
Y0016865D01*
Y0019465D02*
Y0019385D01*
X0024230Y0016955D02*
Y0016865D01*
Y0019465D02*
Y0019385D01*
X0024240Y0016955D02*
Y0016865D01*
Y0019465D02*
Y0019385D01*
X0024250Y0016955D02*
Y0016865D01*
X0024280Y0016955D02*
Y0016865D01*
Y0019465D02*
Y0019385D01*
X0024290Y0016955D02*
Y0016865D01*
X0024058Y0019032D02*
Y0018962D01*
Y0019212D02*
Y0019132D01*
X0024360Y0016955D02*
Y0016865D01*
Y0017375D02*
Y0017325D01*
X0024064Y0018722D02*
Y0018652D01*
X0024360Y0017775D02*
Y0017725D01*
X0024068Y0019032D02*
Y0018962D01*
X0024360Y0018135D02*
Y0018105D01*
Y0018245D02*
Y0018205D01*
Y0018505D02*
Y0018375D01*
Y0018615D02*
Y0018585D01*
Y0018815D02*
Y0018635D01*
Y0018975D02*
Y0018925D01*
Y0019465D02*
Y0019385D01*
X0024370Y0016955D02*
Y0016865D01*
Y0017405D02*
Y0017295D01*
Y0017595D02*
Y0017505D01*
Y0017795D02*
Y0017705D01*
Y0018005D02*
Y0017895D01*
Y0018125D02*
Y0018105D01*
Y0018275D02*
Y0018175D01*
Y0018505D02*
Y0018375D01*
Y0019005D02*
Y0018895D01*
X0024084Y0017400D02*
Y0017320D01*
Y0017570D02*
Y0017490D01*
Y0018128D02*
Y0017939D01*
Y0018248D02*
Y0018168D01*
Y0018468D02*
Y0018388D01*
Y0018632D02*
Y0018552D01*
Y0018732D02*
Y0018652D01*
X0024088Y0018942D02*
Y0018802D01*
Y0019032D02*
Y0018962D01*
Y0019212D02*
Y0019132D01*
X0024080Y0019465D02*
Y0019385D01*
X0024090Y0016955D02*
Y0016865D01*
X0024094Y0017150D02*
Y0017070D01*
Y0017400D02*
Y0017320D01*
Y0017570D02*
Y0017490D01*
Y0018128D02*
Y0017939D01*
Y0018248D02*
Y0018168D01*
Y0018468D02*
Y0018388D01*
X0024390Y0018125D02*
Y0018095D01*
X0024094Y0018732D02*
Y0018662D01*
X0024390Y0018505D02*
Y0018375D01*
Y0018605D02*
Y0018575D01*
Y0018815D02*
Y0018635D01*
Y0019025D02*
Y0018865D01*
X0024090Y0019465D02*
Y0019385D01*
X0024100Y0016955D02*
Y0016865D01*
X0024104Y0017150D02*
Y0017070D01*
Y0017400D02*
Y0017320D01*
X0024400Y0017535D02*
Y0017475D01*
Y0017625D02*
Y0017565D01*
Y0017735D02*
Y0017675D01*
Y0017825D02*
Y0017765D01*
Y0017935D02*
Y0017875D01*
Y0018025D02*
Y0017965D01*
Y0018125D02*
Y0018095D01*
Y0018215D02*
Y0018155D01*
Y0018305D02*
Y0018245D01*
Y0018505D02*
Y0018375D01*
Y0018605D02*
Y0018575D01*
Y0018815D02*
Y0018635D01*
Y0019035D02*
Y0018865D01*
Y0019465D02*
Y0019385D01*
X0024410Y0016955D02*
Y0016865D01*
Y0017325D02*
Y0017265D01*
Y0017435D02*
Y0017375D01*
Y0017525D02*
Y0017475D01*
X0024114Y0018742D02*
Y0018542D01*
X0024118Y0018872D02*
Y0018802D01*
Y0019032D02*
Y0018892D01*
X0024410Y0017925D02*
Y0017865D01*
Y0018035D02*
Y0017975D01*
Y0018115D02*
Y0018095D01*
X0024124Y0017150D02*
Y0017080D01*
Y0017280D02*
Y0017220D01*
Y0017400D02*
Y0017330D01*
Y0017560D02*
Y0017490D01*
Y0018089D02*
Y0017939D01*
Y0018248D02*
Y0018168D01*
Y0018468D02*
Y0018388D01*
Y0018742D02*
Y0018542D01*
X0024128Y0018872D02*
Y0018802D01*
Y0019032D02*
Y0018902D01*
Y0019212D02*
Y0019132D01*
X0024120Y0019465D02*
Y0019385D01*
X0024130Y0016955D02*
Y0016865D01*
X0024134Y0017150D02*
Y0017080D01*
Y0017300D02*
Y0017220D01*
Y0017400D02*
Y0017330D01*
Y0017560D02*
Y0017490D01*
Y0018019D02*
Y0017939D01*
Y0018248D02*
Y0018168D01*
Y0018468D02*
Y0018388D01*
X0024420Y0018415D02*
Y0018365D01*
Y0018595D02*
Y0018575D01*
Y0018705D02*
Y0018635D01*
Y0018925D02*
Y0018855D01*
Y0019035D02*
Y0018975D01*
Y0019465D02*
Y0019385D01*
X0024430Y0016955D02*
Y0016865D01*
Y0017435D02*
Y0017375D01*
X0024144Y0017410D02*
Y0017330D01*
Y0017560D02*
Y0017480D01*
X0024430Y0017825D02*
Y0017775D01*
Y0018115D02*
Y0018095D01*
Y0018305D02*
Y0018255D01*
Y0018465D02*
Y0018435D01*
Y0018705D02*
Y0018635D01*
Y0018985D02*
Y0018975D01*
X0024440Y0016955D02*
Y0016865D01*
Y0017525D02*
Y0017465D01*
Y0017725D02*
Y0017665D01*
X0024158Y0019032D02*
Y0018922D01*
Y0019212D02*
Y0019132D01*
X0024150Y0019465D02*
Y0019385D01*
X0024160Y0016955D02*
Y0016865D01*
X0024164Y0017550D02*
Y0017340D01*
Y0018019D02*
Y0017939D01*
Y0018348D02*
Y0018168D01*
Y0018468D02*
Y0018388D01*
Y0018752D02*
Y0018532D01*
X0024168Y0018872D02*
Y0018802D01*
Y0019032D02*
Y0018932D01*
X0024160Y0019465D02*
Y0019385D01*
X0024170Y0016955D02*
Y0016865D01*
X0024174Y0017280D02*
Y0017100D01*
Y0017540D02*
Y0017350D01*
Y0018019D02*
Y0017939D01*
Y0018348D02*
Y0018168D01*
Y0018468D02*
Y0018388D01*
Y0018602D02*
Y0018522D01*
Y0018762D02*
Y0018682D01*
X0024178Y0018872D02*
Y0018802D01*
Y0019032D02*
Y0018942D01*
Y0019212D02*
Y0019132D01*
X0024170Y0019465D02*
Y0019385D01*
X0024180Y0016955D02*
Y0016865D01*
X0024184Y0017270D02*
Y0017110D01*
Y0017530D02*
Y0017360D01*
Y0018019D02*
Y0017939D01*
Y0018348D02*
Y0018168D01*
Y0018468D02*
Y0018388D01*
Y0018602D02*
Y0018522D01*
Y0018762D02*
Y0018682D01*
X0024188Y0018872D02*
Y0018802D01*
Y0019032D02*
Y0018942D01*
Y0019212D02*
Y0019132D01*
X0024180Y0019465D02*
Y0019385D01*
X0024190Y0016955D02*
Y0016865D01*
X0024194Y0017260D02*
Y0017120D01*
Y0017520D02*
Y0017380D01*
Y0018019D02*
Y0017939D01*
Y0018348D02*
Y0018168D01*
Y0018468D02*
Y0018388D01*
Y0018602D02*
Y0018522D01*
Y0018762D02*
Y0018682D01*
X0024198Y0018872D02*
Y0018802D01*
Y0019032D02*
Y0018952D01*
Y0019212D02*
Y0019132D01*
X0024190Y0019465D02*
Y0019385D01*
X0024200Y0016955D02*
Y0016865D01*
X0024204Y0017230D02*
Y0017140D01*
X0024470Y0018915D02*
Y0018845D01*
Y0019465D02*
Y0019385D01*
X0024204Y0018348D02*
Y0018168D01*
X0024480Y0017395D02*
Y0017325D01*
Y0017525D02*
Y0017465D01*
Y0017635D02*
Y0017575D01*
Y0017835D02*
Y0017775D01*
X0024200Y0019465D02*
Y0019385D01*
X0024210Y0019465D02*
Y0019385D01*
X0024480Y0018585D02*
Y0018555D01*
Y0018915D02*
Y0018845D01*
X0024490Y0016955D02*
Y0016865D01*
X0024250Y0019465D02*
Y0019385D01*
X0024260Y0016955D02*
Y0016865D01*
Y0019465D02*
Y0019385D01*
X0024270Y0016955D02*
Y0016865D01*
Y0019465D02*
Y0019385D01*
X0024490Y0018225D02*
Y0018195D01*
X0024290Y0019465D02*
Y0019385D01*
X0024300Y0016955D02*
Y0016865D01*
Y0019465D02*
Y0019385D01*
X0024310Y0016955D02*
Y0016865D01*
Y0019465D02*
Y0019385D01*
X0024320Y0016955D02*
Y0016865D01*
Y0019465D02*
Y0019385D01*
X0024330Y0016955D02*
Y0016865D01*
Y0019465D02*
Y0019385D01*
X0024340Y0016955D02*
Y0016865D01*
Y0019465D02*
Y0019385D01*
X0024350Y0016955D02*
Y0016865D01*
Y0019465D02*
Y0019385D01*
X0024500Y0018305D02*
Y0018255D01*
X0024360Y0017575D02*
Y0017525D01*
X0024500Y0018575D02*
Y0018555D01*
X0024360Y0017975D02*
Y0017925D01*
X0024500Y0018915D02*
Y0018855D01*
Y0019465D02*
Y0019385D01*
X0024510Y0017355D02*
Y0017295D01*
Y0017625D02*
Y0017575D01*
Y0017825D02*
Y0017775D01*
Y0018095D02*
Y0018075D01*
Y0018405D02*
Y0018395D01*
Y0018575D02*
Y0018555D01*
X0024370Y0018605D02*
Y0018585D01*
Y0018815D02*
Y0018635D01*
Y0019465D02*
Y0019385D01*
X0024380Y0016955D02*
Y0016865D01*
Y0017415D02*
Y0017285D01*
Y0017615D02*
Y0017485D01*
Y0017815D02*
Y0017685D01*
Y0018015D02*
Y0017885D01*
Y0018125D02*
Y0018105D01*
Y0018285D02*
Y0018165D01*
Y0018505D02*
Y0018375D01*
Y0018605D02*
Y0018585D01*
Y0018815D02*
Y0018635D01*
Y0019015D02*
Y0018875D01*
Y0019465D02*
Y0019385D01*
X0024390Y0016955D02*
Y0016865D01*
Y0017425D02*
Y0017275D01*
Y0017615D02*
Y0017485D01*
Y0017815D02*
Y0017685D01*
Y0018025D02*
Y0017875D01*
X0024530Y0016955D02*
Y0016865D01*
X0024390Y0018295D02*
Y0018155D01*
X0024530Y0017535D02*
Y0017475D01*
Y0017735D02*
Y0017675D01*
X0024390Y0019465D02*
Y0019385D01*
X0024400Y0016955D02*
Y0016865D01*
Y0017335D02*
Y0017275D01*
Y0017425D02*
Y0017365D01*
X0024530Y0018415D02*
Y0018355D01*
Y0018575D02*
Y0018545D01*
Y0019035D02*
Y0018865D01*
X0024540Y0016955D02*
Y0016865D01*
Y0017615D02*
Y0017485D01*
Y0018035D02*
Y0017875D01*
Y0018295D02*
Y0018155D01*
Y0018575D02*
Y0018545D01*
Y0019025D02*
Y0018875D01*
X0024410Y0017625D02*
Y0017575D01*
Y0017725D02*
Y0017675D01*
Y0017825D02*
Y0017775D01*
X0024550Y0018035D02*
Y0017875D01*
X0024410Y0018205D02*
Y0018145D01*
Y0018305D02*
Y0018255D01*
Y0018415D02*
Y0018365D01*
Y0018595D02*
Y0018575D01*
Y0018705D02*
Y0018635D01*
Y0018925D02*
Y0018855D01*
Y0019035D02*
Y0018965D01*
Y0019465D02*
Y0019385D01*
X0024420Y0016955D02*
Y0016865D01*
Y0017325D02*
Y0017305D01*
Y0017435D02*
Y0017375D01*
Y0017525D02*
Y0017475D01*
Y0017625D02*
Y0017575D01*
Y0017725D02*
Y0017675D01*
Y0017825D02*
Y0017775D01*
Y0017925D02*
Y0017905D01*
Y0018035D02*
Y0017975D01*
Y0018115D02*
Y0018095D01*
Y0018205D02*
Y0018145D01*
Y0018305D02*
Y0018255D01*
X0024570Y0017575D02*
Y0017525D01*
Y0018035D02*
Y0017865D01*
Y0018245D02*
Y0018195D01*
Y0018565D02*
Y0018535D01*
X0024430Y0017525D02*
Y0017475D01*
Y0017625D02*
Y0017575D01*
X0024580Y0016955D02*
Y0016865D01*
X0024590Y0016955D02*
Y0016865D01*
X0024600Y0016955D02*
Y0016865D01*
X0024610Y0016955D02*
Y0016865D01*
X0024620Y0016955D02*
Y0016865D01*
X0024630Y0016955D02*
Y0016865D01*
X0024640Y0016955D02*
Y0016865D01*
X0024650Y0016955D02*
Y0016865D01*
X0024660Y0016955D02*
Y0016865D01*
X0024670Y0016955D02*
Y0016865D01*
X0024440Y0018025D02*
Y0017975D01*
X0024680Y0016955D02*
Y0016865D01*
X0024440Y0018205D02*
Y0018145D01*
X0024690Y0016955D02*
Y0016865D01*
X0024440Y0018485D02*
Y0018365D01*
X0024700Y0016955D02*
Y0016865D01*
X0024440Y0018805D02*
Y0018635D01*
X0024710Y0016955D02*
Y0016865D01*
X0024440Y0019465D02*
Y0019385D01*
X0024720Y0016955D02*
Y0016865D01*
X0024450Y0017425D02*
Y0017365D01*
Y0017635D02*
Y0017575D01*
Y0017835D02*
Y0017775D01*
Y0018115D02*
Y0018085D01*
Y0018315D02*
Y0018245D01*
Y0018595D02*
Y0018565D01*
Y0018915D02*
Y0018845D01*
X0024460Y0016955D02*
Y0016865D01*
Y0017525D02*
Y0017465D01*
Y0017725D02*
Y0017665D01*
Y0018015D02*
Y0017955D01*
Y0018315D02*
Y0018155D01*
Y0018585D02*
Y0018565D01*
Y0018805D02*
Y0018635D01*
Y0018915D02*
Y0018845D01*
Y0019465D02*
Y0019385D01*
X0024470Y0016955D02*
Y0016865D01*
Y0017405D02*
Y0017345D01*
Y0017525D02*
Y0017465D01*
Y0017725D02*
Y0017665D01*
Y0018005D02*
Y0017945D01*
Y0018315D02*
Y0018165D01*
Y0018415D02*
Y0018365D01*
Y0018505D02*
Y0018445D01*
Y0018585D02*
Y0018565D01*
Y0018805D02*
Y0018635D01*
X0024480Y0016955D02*
Y0016865D01*
Y0018105D02*
Y0018075D01*
Y0018315D02*
Y0018255D01*
X0024490Y0017525D02*
Y0017465D01*
Y0017725D02*
Y0017665D01*
Y0017985D02*
Y0017915D01*
Y0018515D02*
Y0018455D01*
Y0018705D02*
Y0018635D01*
Y0018985D02*
Y0018975D01*
X0024500Y0016955D02*
Y0016865D01*
Y0017525D02*
Y0017475D01*
Y0017725D02*
Y0017675D01*
Y0017975D02*
Y0017905D01*
X0024510Y0018915D02*
Y0018855D01*
Y0019465D02*
Y0019385D01*
X0024520Y0017345D02*
Y0017285D01*
Y0017625D02*
Y0017575D01*
Y0017825D02*
Y0017775D01*
Y0018095D02*
Y0018075D01*
Y0018305D02*
Y0018245D01*
Y0018505D02*
Y0018455D01*
Y0018705D02*
Y0018635D01*
Y0019035D02*
Y0018965D01*
X0024530Y0018035D02*
Y0017885D01*
Y0018205D02*
Y0018155D01*
X0024550Y0016955D02*
Y0016865D01*
Y0017615D02*
Y0017485D01*
Y0018285D02*
Y0018165D01*
Y0018565D02*
Y0018545D01*
Y0019015D02*
Y0018875D01*
X0024560Y0016955D02*
Y0016865D01*
Y0017605D02*
Y0017505D01*
Y0018035D02*
Y0017875D01*
Y0018275D02*
Y0018175D01*
Y0018565D02*
Y0018545D01*
Y0019005D02*
Y0018895D01*
X0024570Y0016955D02*
Y0016865D01*
Y0018975D02*
Y0018925D01*
X0024680Y0019465D02*
Y0019385D01*
X0022240Y0018470D02*
Y0017860D01*
X0022250Y0018450D02*
Y0017890D01*
X0022260Y0018430D02*
Y0017920D01*
X0022270Y0018400D02*
Y0017940D01*
X0022280Y0018360D02*
Y0017970D01*
X0021150Y0018730D02*
Y0018380D01*
X0021160Y0017940D02*
Y0017600D01*
Y0018740D02*
Y0018400D01*
X0021170Y0017920D02*
Y0017590D01*
Y0018750D02*
Y0018420D01*
X0021190Y0018760D02*
Y0018450D01*
X0021270Y0018810D02*
Y0018540D01*
X0021280Y0017790D02*
Y0017520D01*
Y0018270D02*
Y0018070D01*
Y0018810D02*
Y0018550D01*
X0021290Y0017780D02*
Y0017520D01*
Y0018300D02*
Y0018040D01*
Y0018820D02*
Y0018560D01*
X0021400Y0018650D02*
Y0018620D01*
Y0018820D02*
Y0018720D01*
X0021410Y0017720D02*
Y0017480D01*
Y0018130D02*
Y0017900D01*
Y0018440D02*
Y0018210D01*
Y0018640D02*
Y0018620D01*
Y0018830D02*
Y0018710D01*
X0021530Y0018950D02*
Y0018590D01*
X0021540Y0017680D02*
Y0017460D01*
Y0018000D02*
Y0017850D01*
Y0018490D02*
Y0018340D01*
Y0018960D02*
Y0018580D01*
X0021690Y0018010D02*
Y0017860D01*
Y0018880D02*
Y0018650D01*
X0021700Y0017700D02*
Y0017440D01*
Y0018010D02*
Y0017860D01*
Y0018880D02*
Y0018650D01*
X0021740Y0018040D02*
Y0017880D01*
Y0018460D02*
Y0018420D01*
Y0018870D02*
Y0018640D01*
X0021750Y0017650D02*
Y0017490D01*
Y0018050D02*
Y0017880D01*
X0022140Y0018630D02*
Y0017710D01*
X0022150Y0018620D02*
Y0017720D01*
X0022160Y0018600D02*
Y0017740D01*
X0022170Y0018590D02*
Y0017750D01*
X0022180Y0018580D02*
Y0017770D01*
X0022190Y0018560D02*
Y0017780D01*
X0022200Y0018540D02*
Y0017800D01*
X0022210Y0018530D02*
Y0017810D01*
X0022220Y0018510D02*
Y0017830D01*
X0022230Y0018490D02*
Y0017850D01*
X0022290Y0018320D02*
Y0018020D01*
X0022300Y0018280D02*
Y0018070D01*
X0020880Y0018240D02*
Y0018080D01*
X0020890Y0018320D02*
Y0018030D01*
X0020900Y0018350D02*
Y0017990D01*
X0020910Y0018380D02*
Y0017960D01*
X0020920Y0018420D02*
Y0017930D01*
X0020930Y0018450D02*
Y0017900D01*
X0020940Y0018460D02*
Y0017880D01*
X0020950Y0018490D02*
Y0017850D01*
X0020960Y0018510D02*
Y0017840D01*
X0020970Y0018520D02*
Y0017810D01*
X0020980Y0018540D02*
Y0017800D01*
X0020990Y0018560D02*
Y0017780D01*
X0021000Y0018570D02*
Y0017770D01*
X0021010Y0018590D02*
Y0017750D01*
X0021020Y0018600D02*
Y0017740D01*
X0021030Y0018620D02*
Y0017730D01*
X0021040Y0018620D02*
Y0017720D01*
X0021050Y0018640D02*
Y0017710D01*
X0021060Y0018650D02*
Y0017690D01*
X0021070Y0018660D02*
Y0017680D01*
X0021080Y0018670D02*
Y0017670D01*
X0021090Y0018680D02*
Y0017660D01*
X0021100Y0018690D02*
Y0017650D01*
X0021110Y0018070D02*
Y0017640D01*
Y0018700D02*
Y0018260D01*
X0021120Y0018040D02*
Y0017630D01*
Y0018710D02*
Y0018300D01*
X0021130Y0018010D02*
Y0017630D01*
Y0018720D02*
Y0018330D01*
X0021140Y0017980D02*
Y0017620D01*
Y0018720D02*
Y0018360D01*
X0021150Y0017960D02*
Y0017610D01*
X0021180Y0017900D02*
Y0017590D01*
Y0018750D02*
Y0018440D01*
X0021190Y0017890D02*
Y0017580D01*
X0021200Y0017880D02*
Y0017570D01*
Y0018770D02*
Y0018460D01*
X0021210Y0017860D02*
Y0017570D01*
Y0018770D02*
Y0018480D01*
X0021220Y0017850D02*
Y0017560D01*
Y0018780D02*
Y0018490D01*
X0021230Y0017840D02*
Y0017550D01*
Y0018790D02*
Y0018500D01*
X0021240Y0017830D02*
Y0017550D01*
Y0018790D02*
Y0018510D01*
X0021250Y0017820D02*
Y0017540D01*
Y0018800D02*
Y0018520D01*
X0021260Y0017810D02*
Y0017540D01*
Y0018800D02*
Y0018530D01*
X0021270Y0017800D02*
Y0017530D01*
Y0018220D02*
Y0018120D01*
X0021300Y0017780D02*
Y0017520D01*
Y0018320D02*
Y0018020D01*
Y0018750D02*
Y0018560D01*
Y0018820D02*
Y0018780D01*
X0021310Y0017770D02*
Y0017510D01*
Y0018330D02*
Y0018000D01*
Y0018740D02*
Y0018570D01*
Y0018830D02*
Y0018790D01*
X0021320Y0017760D02*
Y0017510D01*
Y0018350D02*
Y0017990D01*
Y0018730D02*
Y0018570D01*
Y0018830D02*
Y0018800D01*
X0021330Y0017760D02*
Y0017510D01*
Y0018370D02*
Y0017970D01*
Y0018720D02*
Y0018580D01*
Y0018840D02*
Y0018810D01*
X0021340Y0017750D02*
Y0017500D01*
Y0018380D02*
Y0017960D01*
Y0018710D02*
Y0018590D01*
Y0018840D02*
Y0018820D01*
X0021350Y0017740D02*
Y0017500D01*
Y0018390D02*
Y0017950D01*
Y0018700D02*
Y0018590D01*
Y0018840D02*
Y0018830D01*
X0021360Y0017740D02*
Y0017490D01*
Y0018400D02*
Y0017940D01*
Y0018690D02*
Y0018600D01*
Y0018780D02*
Y0018760D01*
X0021370Y0017740D02*
Y0017490D01*
Y0018410D02*
Y0017930D01*
Y0018680D02*
Y0018610D01*
Y0018790D02*
Y0018750D01*
X0021380Y0017730D02*
Y0017490D01*
Y0018420D02*
Y0017920D01*
Y0018670D02*
Y0018610D01*
Y0018800D02*
Y0018740D01*
X0021390Y0017730D02*
Y0017480D01*
Y0018430D02*
Y0017910D01*
Y0018660D02*
Y0018610D01*
Y0018810D02*
Y0018730D01*
X0021400Y0017720D02*
Y0017480D01*
Y0018430D02*
Y0017910D01*
X0021420Y0017710D02*
Y0017480D01*
Y0018100D02*
Y0017890D01*
Y0018450D02*
Y0018240D01*
Y0018840D02*
Y0018700D01*
X0021430Y0017710D02*
Y0017470D01*
Y0018080D02*
Y0017890D01*
Y0018450D02*
Y0018260D01*
Y0018850D02*
Y0018690D01*
X0021440Y0017710D02*
Y0017470D01*
Y0018060D02*
Y0017880D01*
Y0018460D02*
Y0018280D01*
Y0018860D02*
Y0018680D01*
X0021450Y0017700D02*
Y0017470D01*
Y0018050D02*
Y0017870D01*
Y0018460D02*
Y0018290D01*
Y0018870D02*
Y0018670D01*
X0021460Y0017700D02*
Y0017470D01*
Y0018040D02*
Y0017870D01*
Y0018470D02*
Y0018300D01*
Y0018880D02*
Y0018660D01*
X0021470Y0017700D02*
Y0017470D01*
Y0018030D02*
Y0017870D01*
Y0018470D02*
Y0018310D01*
Y0018890D02*
Y0018650D01*
X0021480Y0017700D02*
Y0017470D01*
Y0018020D02*
Y0017870D01*
Y0018480D02*
Y0018320D01*
Y0018900D02*
Y0018640D01*
X0021490Y0017690D02*
Y0017460D01*
Y0018020D02*
Y0017860D01*
Y0018480D02*
Y0018330D01*
Y0018910D02*
Y0018630D01*
X0021500Y0017690D02*
Y0017460D01*
Y0018010D02*
Y0017850D01*
Y0018480D02*
Y0018330D01*
Y0018920D02*
Y0018620D01*
X0021510Y0017690D02*
Y0017460D01*
Y0018000D02*
Y0017850D01*
Y0018490D02*
Y0018340D01*
Y0018930D02*
Y0018610D01*
X0021520Y0017690D02*
Y0017460D01*
Y0018000D02*
Y0017850D01*
Y0018490D02*
Y0018340D01*
Y0018940D02*
Y0018600D01*
X0021530Y0017690D02*
Y0017460D01*
Y0018000D02*
Y0017850D01*
Y0018490D02*
Y0018350D01*
X0021550Y0017680D02*
Y0017460D01*
Y0018500D02*
Y0017850D01*
Y0018970D02*
Y0018570D01*
X0021560Y0017680D02*
Y0017460D01*
Y0018500D02*
Y0017850D01*
Y0018980D02*
Y0018560D01*
X0021570Y0017680D02*
Y0017460D01*
Y0018500D02*
Y0017840D01*
Y0018990D02*
Y0018540D01*
X0021580Y0017680D02*
Y0017460D01*
Y0018500D02*
Y0017840D01*
Y0018990D02*
Y0018540D01*
X0021590Y0017690D02*
Y0017450D01*
Y0018500D02*
Y0017840D01*
Y0018890D02*
Y0018660D01*
X0021600Y0017790D02*
Y0017350D01*
Y0018500D02*
Y0017840D01*
Y0018880D02*
Y0018660D01*
X0021610Y0017780D02*
Y0017360D01*
Y0018500D02*
Y0017840D01*
Y0018880D02*
Y0018660D01*
X0021620Y0017780D02*
Y0017370D01*
Y0018500D02*
Y0017840D01*
Y0018880D02*
Y0018660D01*
X0021630Y0017770D02*
Y0017370D01*
Y0018500D02*
Y0017850D01*
Y0018880D02*
Y0018660D01*
X0021640Y0017760D02*
Y0017380D01*
Y0018490D02*
Y0017850D01*
Y0018880D02*
Y0018660D01*
X0021650Y0017750D02*
Y0017390D01*
Y0017990D02*
Y0017850D01*
Y0018880D02*
Y0018660D01*
X0021660Y0017740D02*
Y0017400D01*
Y0018000D02*
Y0017850D01*
Y0018880D02*
Y0018650D01*
X0021670Y0017730D02*
Y0017410D01*
Y0018000D02*
Y0017850D01*
Y0018880D02*
Y0018650D01*
X0021680Y0017720D02*
Y0017420D01*
Y0018000D02*
Y0017860D01*
Y0018880D02*
Y0018650D01*
X0021690Y0017710D02*
Y0017430D01*
X0021710Y0017690D02*
Y0017450D01*
Y0018020D02*
Y0017870D01*
Y0018880D02*
Y0018650D01*
X0021720Y0017680D02*
Y0017460D01*
Y0018020D02*
Y0017870D01*
Y0018470D02*
Y0018430D01*
Y0018870D02*
Y0018640D01*
X0021730Y0017670D02*
Y0017470D01*
Y0018030D02*
Y0017870D01*
Y0018470D02*
Y0018430D01*
Y0018870D02*
Y0018640D01*
X0021740Y0017670D02*
Y0017480D01*
X0021750Y0018460D02*
Y0018410D01*
Y0018870D02*
Y0018630D01*
X0021760Y0017640D02*
Y0017500D01*
Y0018060D02*
Y0017890D01*
Y0018450D02*
Y0018400D01*
Y0018870D02*
Y0018630D01*
X0021770Y0017630D02*
Y0017510D01*
Y0017710D02*
Y0017690D01*
Y0018070D02*
Y0017900D01*
Y0018450D02*
Y0018390D01*
Y0018870D02*
Y0018630D01*
X0021780Y0017620D02*
Y0017520D01*
Y0017720D02*
Y0017680D01*
Y0018080D02*
Y0017900D01*
Y0018440D02*
Y0018380D01*
Y0018860D02*
Y0018620D01*
X0021790Y0017610D02*
Y0017530D01*
Y0017720D02*
Y0017670D01*
Y0018090D02*
Y0017910D01*
Y0018430D02*
Y0018370D01*
Y0018860D02*
Y0018620D01*
X0021800Y0017600D02*
Y0017540D01*
Y0017730D02*
Y0017660D01*
Y0018100D02*
Y0017920D01*
Y0018430D02*
Y0018350D01*
Y0018860D02*
Y0018610D01*
X0021810Y0017590D02*
Y0017550D01*
Y0017730D02*
Y0017650D01*
Y0018130D02*
Y0017930D01*
Y0018420D02*
Y0018330D01*
Y0018850D02*
Y0018610D01*
X0021820Y0017580D02*
Y0017560D01*
Y0017740D02*
Y0017640D01*
Y0018150D02*
Y0017930D01*
Y0018410D02*
Y0018310D01*
Y0018850D02*
Y0018610D01*
X0021830Y0017510D02*
Y0017500D01*
Y0017740D02*
Y0017630D01*
Y0018210D02*
Y0017950D01*
Y0018400D02*
Y0018250D01*
Y0018840D02*
Y0018600D01*
X0021840Y0017520D02*
Y0017500D01*
Y0017750D02*
Y0017620D01*
Y0018380D02*
Y0017960D01*
Y0018840D02*
Y0018590D01*
X0021850Y0017530D02*
Y0017500D01*
Y0017750D02*
Y0017610D01*
Y0018370D02*
Y0017970D01*
Y0018840D02*
Y0018580D01*
X0021860Y0017540D02*
Y0017510D01*
Y0017760D02*
Y0017600D01*
Y0018360D02*
Y0017980D01*
Y0018840D02*
Y0018580D01*
X0021870Y0017550D02*
Y0017510D01*
Y0017770D02*
Y0017590D01*
Y0018350D02*
Y0018000D01*
Y0018830D02*
Y0018570D01*
X0021880Y0017560D02*
Y0017510D01*
Y0017770D02*
Y0017580D01*
Y0018330D02*
Y0018010D01*
Y0018830D02*
Y0018570D01*
X0021890Y0017780D02*
Y0017520D01*
Y0018310D02*
Y0018030D01*
Y0018820D02*
Y0018560D01*
X0021900Y0017790D02*
Y0017520D01*
Y0018290D02*
Y0018050D01*
Y0018820D02*
Y0018550D01*
X0021910Y0017800D02*
Y0017530D01*
Y0018260D02*
Y0018080D01*
Y0018810D02*
Y0018540D01*
X0021920Y0017810D02*
Y0017530D01*
Y0018200D02*
Y0018150D01*
Y0018810D02*
Y0018530D01*
X0021930Y0017810D02*
Y0017540D01*
Y0018800D02*
Y0018530D01*
X0021940Y0017830D02*
Y0017540D01*
Y0018800D02*
Y0018510D01*
X0021950Y0017830D02*
Y0017550D01*
Y0018790D02*
Y0018500D01*
X0021960Y0017850D02*
Y0017560D01*
Y0018780D02*
Y0018490D01*
X0021970Y0017860D02*
Y0017560D01*
Y0018780D02*
Y0018480D01*
X0021980Y0017870D02*
Y0017570D01*
Y0018770D02*
Y0018470D01*
X0021990Y0017890D02*
Y0017580D01*
Y0018760D02*
Y0018460D01*
X0022000Y0017900D02*
Y0017580D01*
Y0018760D02*
Y0018440D01*
X0022010Y0017920D02*
Y0017590D01*
Y0018750D02*
Y0018420D01*
X0022020Y0017940D02*
Y0017600D01*
Y0018740D02*
Y0018410D01*
X0022030Y0017960D02*
Y0017600D01*
Y0018740D02*
Y0018390D01*
X0022040Y0017970D02*
Y0017610D01*
Y0018730D02*
Y0018370D01*
X0022050Y0018000D02*
Y0017620D01*
Y0018720D02*
Y0018340D01*
X0022060Y0018030D02*
Y0017630D01*
Y0018710D02*
Y0018300D01*
X0022070Y0018070D02*
Y0017640D01*
Y0018700D02*
Y0018270D01*
X0022080Y0018160D02*
Y0017650D01*
Y0018690D02*
Y0018180D01*
X0022090Y0018680D02*
Y0017660D01*
X0022100Y0018670D02*
Y0017670D01*
X0022110Y0018660D02*
Y0017680D01*
X0022120Y0018650D02*
Y0017690D01*
X0022130Y0018640D02*
Y0017700D01*
X0024210Y0017842D02*
X0023978D01*
X0024210Y0017829D02*
X0023978D01*
X0024210Y0017815D02*
X0023978D01*
X0024210Y0017802D02*
X0023978D01*
X0024112Y0017788D02*
X0023986D01*
X0024125Y0017775D02*
X0023999D01*
X0024139Y0017761D02*
X0024013D01*
X0024142Y0017748D02*
X0024026D01*
X0024129Y0017734D02*
X0024011D01*
X0024115Y0017721D02*
X0023997D01*
X0024102Y0017707D02*
X0023984D01*
X0024210Y0017694D02*
X0023982D01*
X0024210Y0017680D02*
X0023982D01*
X0024210Y0017667D02*
X0023982D01*
X0024210Y0017653D02*
X0023982D01*
X0024140Y0017705D02*
Y0017627D01*
X0024126Y0017705D02*
Y0017627D01*
X0024113Y0017705D02*
Y0017627D01*
X0024099Y0017705D02*
Y0017627D01*
X0024086Y0017871D02*
Y0017627D01*
X0024072Y0017871D02*
Y0017627D01*
X0024059Y0017871D02*
Y0017627D01*
X0024045Y0017871D02*
Y0017627D01*
X0024032Y0017871D02*
Y0017627D01*
X0024018Y0017741D02*
Y0017627D01*
X0024005Y0017728D02*
Y0017627D01*
X0023991Y0017714D02*
Y0017627D01*
Y0017871D02*
Y0017783D01*
X0024005Y0017871D02*
Y0017769D01*
X0024210Y0017856D02*
X0023978D01*
X0024210Y0017871D02*
Y0017796D01*
Y0017871D02*
X0023978D01*
Y0017796D01*
X0024025Y0017749D01*
X0023982Y0017705D01*
Y0017627D01*
X0024210D02*
X0023982D01*
X0024210Y0017658D02*
Y0017627D01*
X0024207Y0017705D02*
Y0017627D01*
X0024194Y0017705D02*
Y0017627D01*
X0024180Y0017705D02*
Y0017627D01*
X0024167Y0017705D02*
Y0017627D01*
X0024153Y0017705D02*
Y0017627D01*
X0024180Y0017871D02*
Y0017796D01*
X0024167Y0017871D02*
Y0017796D01*
X0024153Y0017871D02*
Y0017796D01*
X0024140Y0017871D02*
Y0017796D01*
Y0017760D02*
Y0017745D01*
X0024126Y0017871D02*
Y0017796D01*
Y0017774D02*
Y0017731D01*
X0024113Y0017871D02*
Y0017718D01*
X0024018Y0017871D02*
Y0017756D01*
X0024210Y0017640D02*
X0023982D01*
X0024210Y0017705D02*
Y0017658D01*
Y0017705D02*
X0024100D01*
X0024147Y0017753D02*
X0024100Y0017705D01*
X0024104Y0017796D02*
X0024147Y0017753D01*
X0024210Y0017796D02*
X0024104D01*
X0024194Y0017871D02*
Y0017796D01*
X0024430Y0017725D02*
Y0017675D01*
Y0018035D02*
Y0017975D01*
Y0018205D02*
Y0018145D01*
Y0018415D02*
Y0018365D01*
Y0018595D02*
Y0018575D01*
Y0018915D02*
Y0018855D01*
Y0019465D02*
Y0019385D01*
X0024440Y0017425D02*
Y0017375D01*
Y0017635D02*
Y0017575D01*
Y0017835D02*
Y0017775D01*
Y0018115D02*
Y0018085D01*
Y0018315D02*
Y0018255D01*
Y0018595D02*
Y0018565D01*
Y0018915D02*
Y0018845D01*
X0024450Y0016955D02*
Y0016865D01*
Y0017525D02*
Y0017465D01*
Y0017725D02*
Y0017665D01*
Y0018025D02*
Y0017965D01*
Y0018215D02*
Y0018155D01*
Y0018495D02*
Y0018365D01*
Y0018805D02*
Y0018635D01*
Y0019465D02*
Y0019385D01*
X0024460Y0017415D02*
Y0017355D01*
Y0017635D02*
Y0017575D01*
Y0017835D02*
Y0017775D01*
Y0018105D02*
Y0018085D01*
Y0018505D02*
Y0018365D01*
G54D48*
G01X0012230Y0030114D02*
Y0029977D01*
X0012413Y0030160D02*
Y0029977D01*
X0012046D01*
Y0030160D01*
X0012413Y0029814D02*
Y0029653D01*
X0012046D01*
X0012291Y0029491D02*
Y0029307D01*
X0012413Y0029491D02*
X0012230D01*
X0012046Y0029422D01*
Y0029376D01*
X0012230Y0029307D01*
X0012413D01*
X0012107Y0029144D02*
X0012046Y0029121D01*
Y0028984D01*
X0012107Y0028961D01*
X0012169D01*
X0012230Y0028984D01*
Y0029121D01*
X0012291Y0029144D01*
X0012352D01*
X0012413Y0029121D01*
Y0028984D01*
X0012352Y0028961D01*
X0012230Y0028752D02*
Y0028615D01*
X0012413Y0028798D02*
Y0028615D01*
X0012046D01*
Y0028798D01*
X0012230Y0028383D02*
X0012413Y0028452D01*
X0012230Y0028269D02*
Y0028406D01*
X0012169Y0028452D01*
X0012107D01*
X0012046Y0028406D01*
Y0028269D01*
X0012413D01*
X0012230Y0027485D02*
X0012413Y0027553D01*
X0012230Y0027370D02*
Y0027508D01*
X0012169Y0027553D01*
X0012107D01*
X0012046Y0027508D01*
Y0027370D01*
X0012413D01*
Y0027047D02*
X0012352Y0027024D01*
X0012107D01*
X0012046Y0027047D01*
Y0027184D01*
X0012107Y0027207D01*
X0012352D01*
X0012413Y0027184D01*
Y0027047D01*
X0012230Y0026815D02*
Y0026678D01*
X0012413D02*
X0012046D01*
Y0026861D01*
X0012413Y0025802D02*
X0012046D01*
X0012413Y0025779D02*
Y0025917D01*
X0012291Y0025962D01*
X0012169D01*
X0012046Y0025917D01*
Y0025779D01*
X0012230Y0025570D02*
Y0025433D01*
X0012413Y0025616D02*
Y0025433D01*
X0012046D01*
Y0025616D01*
Y0025270D02*
X0012169D01*
X0012413Y0025178D01*
X0012169Y0025087D01*
X0012046D01*
X0012413Y0024763D02*
X0012352Y0024741D01*
X0012107D01*
X0012046Y0024763D01*
Y0024901D01*
X0012107Y0024924D01*
X0012352D01*
X0012413Y0024901D01*
Y0024763D01*
X0012230Y0024509D02*
X0012413Y0024578D01*
X0012230Y0024394D02*
Y0024532D01*
X0012169Y0024578D01*
X0012107D01*
X0012046Y0024532D01*
Y0024394D01*
X0012413D01*
X0012230Y0024048D02*
Y0024186D01*
X0012169Y0024232D01*
X0012107D01*
X0012046Y0024186D01*
Y0024048D01*
X0012413D01*
X0012230Y0023702D02*
Y0023840D01*
X0012169Y0023885D01*
X0012107D01*
X0012046Y0023840D01*
Y0023702D01*
X0012413D01*
X0012291Y0023539D02*
Y0023356D01*
X0012413Y0023539D02*
X0012230D01*
X0012046Y0023471D01*
Y0023425D01*
X0012230Y0023356D01*
X0012413D01*
X0012352Y0022641D02*
X0012413Y0022618D01*
Y0022480D01*
X0012352Y0022457D01*
X0012107D01*
X0012046Y0022480D01*
Y0022618D01*
X0012107Y0022641D01*
X0012352Y0022294D02*
X0012413Y0022271D01*
Y0022134D01*
X0012352Y0022111D01*
X0012107D01*
X0012046Y0022134D01*
Y0022271D01*
X0012107Y0022294D01*
X0012230Y0021902D02*
Y0021765D01*
X0012413D02*
X0012046D01*
Y0021948D01*
X0012413Y0020958D02*
X0012046D01*
Y0021050D02*
Y0020866D01*
X0012413Y0020543D02*
X0012352Y0020520D01*
X0012107D01*
X0012046Y0020543D01*
Y0020680D01*
X0012107Y0020703D01*
X0012352D01*
X0012413Y0020680D01*
Y0020543D01*
X0012046Y0020357D02*
X0012413D01*
X0012352Y0020311D01*
X0012107Y0020220D01*
X0012046Y0020174D01*
X0012413D01*
X0011708Y0028412D02*
X0011525D01*
X0011341Y0028504D02*
X0011525Y0028435D01*
Y0028389D01*
X0011341Y0028321D01*
X0011708Y0028158D02*
Y0027998D01*
X0011341D01*
Y0027835D02*
X0011708D01*
X0011647Y0027789D01*
X0011402Y0027697D01*
X0011341Y0027651D01*
X0011708D01*
Y0027328D02*
X0011647Y0027305D01*
X0011402D01*
X0011341Y0027328D01*
Y0027466D01*
X0011402Y0027489D01*
X0011647D01*
X0011708Y0027466D01*
Y0027328D01*
X0011341Y0026590D02*
X0011708D01*
X0011647Y0026544D01*
X0011402Y0026452D01*
X0011341Y0026407D01*
X0011708D01*
Y0026083D02*
X0011647Y0026060D01*
X0011402D01*
X0011341Y0026083D01*
Y0026221D01*
X0011402Y0026244D01*
X0011647D01*
X0011708Y0026221D01*
Y0026083D01*
Y0025898D02*
Y0025806D01*
Y0025852D02*
X0011341D01*
Y0025898D02*
Y0025806D01*
X0011708Y0025506D02*
X0011341D01*
Y0025597D02*
Y0025414D01*
X0011586Y0025251D02*
Y0025068D01*
X0011708Y0025251D02*
X0011525D01*
X0011341Y0025182D01*
Y0025136D01*
X0011525Y0025068D01*
X0011708D01*
X0011341Y0024905D02*
X0011647D01*
X0011708Y0024882D01*
Y0024744D01*
X0011647Y0024722D01*
X0011341D01*
X0011708Y0024559D02*
Y0024398D01*
X0011341D01*
X0011586Y0024236D02*
Y0024052D01*
X0011708Y0024236D02*
X0011525D01*
X0011341Y0024167D01*
Y0024121D01*
X0011525Y0024052D01*
X0011708D01*
X0011341Y0023889D02*
X0011464D01*
X0011708Y0023798D01*
X0011464Y0023706D01*
X0011341D01*
X0011525Y0023497D02*
Y0023360D01*
X0011708Y0023543D02*
Y0023360D01*
X0011341D01*
Y0023543D01*
X0011525Y0022576D02*
X0011708Y0022645D01*
X0011525Y0022461D02*
Y0022599D01*
X0011464Y0022645D01*
X0011402D01*
X0011341Y0022599D01*
Y0022461D01*
X0011708D01*
Y0022138D02*
X0011647Y0022115D01*
X0011402D01*
X0011341Y0022138D01*
Y0022275D01*
X0011402Y0022298D01*
X0011647D01*
X0011708Y0022275D01*
Y0022138D01*
X0011525Y0021906D02*
Y0021769D01*
X0011708D02*
X0011341D01*
Y0021952D01*
X0010773Y0027713D02*
Y0027616D01*
Y0027664D02*
X0010406D01*
X0010467Y0027616D01*
X0010406Y0027402D02*
X0010529D01*
X0010773Y0027304D01*
X0010529Y0027207D01*
X0010406D01*
X0010712Y0026847D02*
X0010773Y0026896D01*
Y0026993D01*
X0010712Y0027042D01*
X0010651D01*
X0010529Y0026944D01*
X0010406Y0027042D01*
Y0026847D01*
X0010712Y0026487D02*
X0010773Y0026536D01*
Y0026633D01*
X0010712Y0026682D01*
X0010651D01*
X0010529Y0026584D01*
X0010406Y0026682D01*
Y0026487D01*
X0010651Y0026322D02*
Y0026127D01*
X0010406Y0026224D01*
Y0026273D01*
X0010773D01*
Y0025962D02*
Y0025865D01*
Y0025913D02*
X0010406D01*
Y0025962D02*
Y0025865D01*
X0010773Y0025651D02*
X0010590Y0025505D01*
X0010406Y0025651D01*
Y0025456D02*
X0010773D01*
X0010590Y0025242D02*
Y0025096D01*
X0010773D02*
X0010406D01*
Y0025291D01*
X0010590Y0024931D02*
Y0024736D01*
X0010773Y0024571D02*
Y0024400D01*
X0010406D01*
X0010651Y0024236D02*
Y0024040D01*
X0010773Y0024236D02*
X0010590D01*
X0010406Y0024163D01*
Y0024114D01*
X0010590Y0024040D01*
X0010773D01*
X0010406Y0023876D02*
X0010529D01*
X0010773Y0023778D01*
X0010529Y0023680D01*
X0010406D01*
X0010590Y0023467D02*
Y0023320D01*
X0010773Y0023516D02*
Y0023320D01*
X0010406D01*
Y0023516D01*
X0010773Y0023058D02*
X0010406D01*
Y0023156D02*
Y0022960D01*
X0010467Y0022796D02*
X0010406Y0022771D01*
Y0022625D01*
X0010467Y0022600D01*
X0010529D01*
X0010590Y0022625D01*
Y0022771D01*
X0010651Y0022796D01*
X0010712D01*
X0010773Y0022771D01*
Y0022625D01*
X0010712Y0022600D01*
G54D43*
X0016480Y0031335D03*
M02*
