%
T1C0.0100F200S100
X012635Y032345
X013270Y019810
X013270Y020390
X013270Y020860
X013270Y021280
X013270Y021680
X013270Y022070
X013270Y022420
X013270Y022760
X013270Y023060
X013270Y023950
X013275Y023330
X013275Y023645
X013480Y024160
X013580Y021860
X013580Y022270
X013580Y022620
X013580Y023200
X013580Y023500
X013635Y032345
X013715Y024385
X013760Y024100
X013855Y021585
X013860Y019810
X013870Y020385
X013870Y021030
X013970Y024615
X014000Y024345
X014005Y025795
X014185Y025325
X014335Y024690
X014380Y023340
X014390Y021580
X014450Y017780
X014450Y020380
X014450Y021035
X014525Y023165
X014570Y019810
X014750Y021580
X014800Y023870
X014840Y028350
X014940Y023690
X015000Y017965
X015010Y019810
X015055Y021025
X015060Y020380
X015100Y021575
X015205Y025970
X015205Y027105
X015420Y019810
X015460Y021580
X015595Y024055
X015610Y023290
X015615Y022910
X015610Y023685
X015630Y020380
X015635Y021030
X015635Y032455
X015790Y022240
X015890Y019810
X015940Y021575
X016185Y021035
X016200Y020370
X016360Y019810
X016460Y021570
X016610Y024270
X016650Y025875
X016650Y027385
X016680Y022480
X016740Y021040
X016770Y020370
X016820Y019810
X016822Y024058
X016835Y032795
X016840Y021570
X017055Y022480
X017100Y027390
X017150Y024340
X017150Y024680
X017150Y024970
X017150Y025240
X017230Y019810
X017230Y021565
X017305Y026370
X017320Y021040
X017350Y020370
X017415Y022470
X017430Y024340
X017430Y024680
X017430Y024970
X017430Y025240
X017490Y027400
X017500Y026155
X017555Y023640
X017640Y021220
X017695Y026375
X017730Y019810
X017740Y024680
X017740Y024970
X017740Y025240
X017760Y024340
X017895Y026165
X017970Y020160
X017970Y020590
X017980Y021000
X018050Y024340
X018050Y024680
X018050Y024970
X018050Y025240
X018150Y019810
X018287Y025522
X018390Y021000
X018460Y021810
X018520Y020160
X018520Y020590
X018600Y023335
X018610Y019810
X018730Y024805
X018760Y020930
X018980Y020160
X018990Y020590
X019020Y019810
X019120Y020930
X019207Y026012
X019335Y022675
X019340Y021825
X019495Y023340
X019500Y023725
X019545Y018860
X019545Y021605
X019592Y026007
X019845Y030480
X020195Y029980
X020235Y017675
X020290Y026000
X020300Y019810
X020300Y020160
X020300Y020470
X020300Y022000
X020300Y022370
X020310Y023100
X020310Y023460
X020320Y021640
X020320Y022780
X020310Y025330
X020310Y025690
X020690Y025950
X020710Y025330
X020710Y025630
X020720Y020145
X020720Y020470
X020720Y021640
X020720Y022000
X020720Y022370
X020730Y022780
X020730Y023100
X020720Y023460
X020770Y019805
X021040Y028425
X021195Y021995
X021200Y021640
X021195Y022370
X021195Y022765
X021195Y023095
X021195Y025805
X021205Y020475
X021210Y020180
X021345Y025600
X021360Y025275
X021385Y024920
X021480Y023835
X021555Y023110
X021555Y023465
X021560Y021640
X021560Y022000
X021560Y022390
X021560Y022780
X021610Y031300
X021615Y030565
X021630Y026095
X021640Y019840
X021640Y020180
X021645Y020930
X021650Y020565
X021705Y025275
X021725Y024920
X022075Y026095
X022140Y030215
X022200Y025545
X022250Y025000
X022260Y021380
X022265Y020185
X022265Y020535
X022265Y020925
X022265Y022680
X022265Y023300
X022260Y024530
X022270Y021805
X022270Y022275
X022270Y023695
X022270Y024075
X022315Y029190
X022485Y026090
X022530Y022690
X022550Y023310
X022585Y021800
X022590Y021360
X022590Y022270
X022595Y019850
X022595Y020170
X022595Y020510
X022595Y020930
X022695Y025535
X022700Y024130
X022700Y024590
X022705Y025060
X022710Y023690
X022850Y022690
X022890Y023305
X022940Y026095
X023165Y022265
X023170Y020500
X023170Y020920
X023170Y021810
X023170Y022690
X023180Y019840
X023180Y020160
X023200Y023310
X023200Y023730
X023205Y024145
X023210Y025065
X023210Y025530
X023355Y026095
X023490Y022700
X023510Y023310
X023605Y032220
X023650Y022260
X023660Y021810
X023670Y020915
X023680Y019840
X023680Y020140
X023680Y020480
X023715Y025060
X023715Y025530
X023730Y024150
X023740Y023730
X023750Y026095
X023775Y022640
X023810Y023360
X024155Y020135
X024155Y020915
X024155Y022645
X023810Y029860
X024160Y019840
X024160Y020480
X024160Y021810
X024160Y022260
X024180Y023360
X024200Y026100
X024230Y024150
X024230Y025060
X024230Y025535
X024240Y023730
X024360Y031480
X024480Y022640
X024530Y023360
X024590Y020470
X024590Y020915
X024590Y021810
X024590Y022250
X024600Y019835
X024600Y020120
X024655Y026105
X024700Y024150
X024700Y025070
X024700Y025530
X024715Y023735
X024815Y022640
X024835Y023365
X025085Y020135
X025085Y020470
X025090Y019840
X025090Y020920
X025090Y025070
X025100Y025530
X025110Y023365
X025110Y023725
X025115Y024155
X025110Y026100
X025120Y021800
X025120Y022250
X025120Y022640
T3C0.0420F200S100
X006635Y034456
X007635Y034456
X008635Y034456
X009635Y034456
X010227Y015458
X010635Y034456
X011227Y015458
X011635Y034456
X012227Y015458
X012635Y034456
X013227Y015458
X013635Y034456
X014227Y015458
X014635Y034456
X015227Y015458
X015635Y034456
X016227Y015458
X017227Y015458
X017229Y034456
X018229Y034456
X019229Y034456
X019234Y015458
X020229Y034456
X020234Y015458
X021229Y034456
X021234Y015458
X022229Y034456
X022234Y015458
X023229Y034456
X023234Y015458
X024229Y034456
X024234Y015458
T2C0.0400F200S100
X013215Y017580
X013215Y018580
X013695Y026720
M30
