G04*
G04 #@! TF.GenerationSoftware,Altium Limited,Altium Designer,20.2.4 (192)*
G04*
G04 Layer_Color=128*
%FSLAX24Y24*%
%MOIN*%
G70*
G04*
G04 #@! TF.SameCoordinates,5BCF1839-4794-4958-B018-1AD1511920B9*
G04*
G04*
G04 #@! TF.FilePolarity,Positive*
G04*
G01*
G75*
%ADD60C,0.0020*%
D60*
X660Y850D02*
X960D01*
X810Y700D02*
Y1000D01*
X18680Y850D02*
X18980D01*
X18830Y700D02*
Y1000D01*
X18640Y15540D02*
X18940D01*
X18790Y15390D02*
Y15690D01*
X9260Y6755D02*
X9360D01*
X9310Y6705D02*
Y6805D01*
X10830Y7280D02*
X10930D01*
X10880Y7230D02*
Y7330D01*
X8750Y9310D02*
X8850D01*
X8800Y9260D02*
Y9360D01*
X14040Y8080D02*
X14140D01*
X14090Y8030D02*
Y8130D01*
X14120Y7110D02*
X14220D01*
X14170Y7060D02*
Y7160D01*
X2902Y8500D02*
X3182D01*
X3042Y8360D02*
Y8640D01*
X9530Y7850D02*
X9630D01*
X9580Y7800D02*
Y7900D01*
X9650Y6520D02*
X9750D01*
X9700Y6470D02*
Y6570D01*
X7810Y7510D02*
X7910D01*
X7860Y7460D02*
Y7560D01*
X12830Y5830D02*
X12930D01*
X12880Y5780D02*
Y5880D01*
X11158Y6075D02*
X11258D01*
X11208Y6025D02*
Y6125D01*
X10830Y5820D02*
X10930D01*
X10880Y5770D02*
Y5870D01*
X12390Y6600D02*
X12490D01*
X12440Y6550D02*
Y6650D01*
X12390Y7180D02*
X12490D01*
X12440Y7130D02*
Y7230D01*
X11990Y6940D02*
X12090D01*
X12040Y6890D02*
Y6990D01*
X10320Y2990D02*
X10420D01*
X10370Y2940D02*
Y3040D01*
M02*
